<svg xmlns="http://www.w3.org/2000/svg" xmlns:xlink="http://www.w3.org/1999/xlink" viewBox="0 0 244.8 146.3"><defs><style>.a,.b,.c{fill:none;}.b{clip-path:url(#a);}.c{clip-path:url(#b);}.d{clip-path:url(#cb);}.e{clip-path:url(#cc);}.f{fill:#006cb7;}.g{fill:#006db8;}.h{fill:#006eb9;}.i{fill:#006fba;}.j{fill:#0070ba;}.k{fill:#0071bb;}.l{fill:#0072bc;}.m{fill:#0073bd;}.n{fill:#0074be;}.o{fill:#0075bf;}.p{fill:#0076c0;}.q{fill:#0077c1;}.r{fill:#0078c1;}.s{fill:#0079c2;}.t{fill:#007ac3;}.u{fill:#007bc4;}.v{fill:#007cc5;}.w{fill:#007dc6;}.x{fill:#007ec7;}.y{fill:#007fc8;}.z{fill:#0080c8;}.aa{fill:#0081c9;}.ab{fill:#0082ca;}.ac{fill:#0083cb;}.ad{fill:#0084cc;}.ae{fill:#0085cd;}.af{fill:#0086ce;}.ag{fill:#0087cf;}.ah{fill:#0088cf;}.ai{fill:#0089d0;}.aj{fill:#008ad1;}.ak{fill:#008cd2;}.al{fill:#008dd3;}.am{fill:#008ed4;}.an{fill:#008fd5;}.ao{fill:#0090d6;}.ap{fill:#0091d6;}.aq{fill:#0092d7;}.ar{fill:#0093d8;}.as{fill:#0094d9;}.at{fill:#0095da;}.au{fill:#0096db;}.av{fill:#0097dc;}.aw{fill:#0098dd;}.ax{fill:#09d;}.ay{fill:#009ade;}.az{fill:#009bdf;}.ba{fill:#009ce0;}.bb{fill:#009de1;}.bc{fill:#009ee2;}.bd{fill:#009fe3;}.be{fill:#00a0e4;}.bf{fill:#00a1e4;}.bg{fill:#00a2e5;}.bh{fill:#00a3e6;}.bi{fill:#00a4e7;}.bj{fill:#00a5e8;}.bk{fill:#00a6e8;}.bl{fill:#00a6e9;}.bm{fill:#00a7e9;}.bn{fill:#00a8e9;}.bo{fill:#00a9ea;}.bp{fill:#00aaea;}.bq{fill:#00abeb;}.br{fill:#00aceb;}.bs{fill:#00adec;}.bt{fill:#00aeed;}.bu{fill:#00afed;}.bv{fill:#00b0ee;}.bw{fill:#00b2ee;}.bx{fill:#00b3ef;}.by{fill:#00b4ef;}.bz{fill:#00b5f0;}.ca{fill:#00b6f1;}.cb{fill:#00b8f1;}.cc{fill:#00b9f2;}</style><clipPath id="a"><rect class="c" x="280.75" y="199.33" width="230.4" height="133.9"/></clipPath><clipPath id="b"><rect class="b" x="280.75" y="199.33" width="230.4" height="133.9"/></clipPath><clipPath id="cb" transform="translate(-272.95 -194.73)"><path class="a" d="M445.45,259.33a17.84,17.84,0,0,0-6.3,10.2c5.6-.2,8.7-1,11.6-3.3,2.6-2,3.8-4.3,3.8-6.3,0-1.1-.7-2.7-3.7-2.7a10,10,0,0,0-5.4,2.1m-119-20.2c-1.8,6.5-4.3,15.8-6.7,24.6,9.8,0,15.9-1.7,18.9-11.4,2.5-7.9,1.5-13.2-10.1-13.2Zm87.8,19.3h-17.1l1.7-6.2h30.7c-3.5,11.7-20.2,21.1-24.7,30h19.3l-2,7.5h-31.4c-.1-11.8,19.7-25.5,23.5-31.3m80.5-6.8c6.8,0,7.8,4.1,7.8,7.2,0,3.7-2.6,6.2-5.6,6.2a4.81,4.81,0,0,1-3.7-1.3,4.64,4.64,0,0,1-1.3-3,2.15,2.15,0,0,0-1.7-2.2c-1.7-.3-3.1.4-4.6,1.7a21.86,21.86,0,0,0-4.9,7.2,24.7,24.7,0,0,0-1.8,4.8l-4.8,17.5h-12.3l10.1-37.5h12l-2.2,7.5c2.9-3.4,8.1-8.1,13-8.1m-68.4,24.9c0-13.6,12.2-25.1,25.3-25.1,6.5,0,12.1,3,12.1,8.2s-4.2,10.8-10.7,12.9a43.9,43.9,0,0,1-14.8,2.1,13.49,13.49,0,0,0-.1,2.7c0,3.6,3.1,6.7,7.4,6.7,5.8,0,11.2-5.3,11.8-5.9l2.1,5.7a23.16,23.16,0,0,1-5.8,4.5,25,25,0,0,1-11.7,2.8c-9.3-.2-15.6-6-15.6-14.6m-110.7-43h14.3c22,0,23.5,11.2,21.7,19.2-2.3,9.9-8.2,16.9-33.5,17-2.5,9.2-4.6,17.2-5.4,20h-12.3c2.3-8.3,15.2-56.2,15.2-56.2m107.8-34.2h0a201.44,201.44,0,0,0-41.5,4.4c-58.2,12.1-101.2,46.4-101.2,78.9a30.52,30.52,0,0,0,.8,7.4c4.2,20.2,25.3,34.5,54.6,40.4,6.2-23.9,20.4-78.6,20.4-78.6,2.8-10.8,4.4-15,7.1-19.7,3.6-6.1,9.4-11.1,17.5-11.9,4.4-.4,11,.2,14.6,2.7s3.9,5,3.8,7.3c-.2,4.8-3.2,8-7.8,8-4.8,0-6.3-3.5-6.3-5.8,0-3.2,1.8-3.6,1.8-6,0-1.2-1.1-3.1-4.1-2.6-3.7.6-6.8,3.5-8.8,8.6-.5,1.2-1,2.8-1.8,5.5l-3.7,14.3h24.3c-3.2,11.5-8.5,31.9-10,37.5h-12.2l8.4-31.3h-12l-19.2,73.8a161.16,161.16,0,0,0,18.7,1h.7a201.12,201.12,0,0,0,40.6-4.3c58.4-12.2,103-46.7,103.1-79.3a35.14,35.14,0,0,0-.7-7.2c-5.7-26.7-41.9-43.1-87.1-43.1h0"/></clipPath><clipPath id="cc" transform="translate(-272.95 -194.73)"><rect class="c" x="280.75" y="199.33" width="230.4" height="133.9"/></clipPath></defs><title>Pfizer_logo-small</title><g class="d"><g class="e"><rect class="f" x="7.8" y="4.6" width="230.4" height="133.9"/><path class="f" d="M512.15,198.33H279.85v135.9h186.7v5.3c2.4-2.6,4.7-5.3,6.9-8a208.56,208.56,0,0,0,12.7-17,226.37,226.37,0,0,0,20.4-37.5,204.77,204.77,0,0,0,7.4-20.3h-1.8Z" transform="translate(-272.95 -194.73)"/><path class="g" d="M512.15,198.33H279.85v135.9h185.4v4.1c2.4-2.6,4.7-5.2,6.9-8a190.08,190.08,0,0,0,12.6-16.9,215.59,215.59,0,0,0,20.2-37.2,220.38,220.38,0,0,0,12.8-41.1h-5.5v-36.8Z" transform="translate(-272.95 -194.73)"/><path class="h" d="M512.15,198.33H279.85v135.9h184v2.9c2.3-2.6,4.6-5.2,6.8-7.9,4.4-5.4,8.6-11,12.5-16.7a217.62,217.62,0,0,0,32.7-77.7h-3.7v-36.5Z" transform="translate(-272.95 -194.73)"/><path class="i" d="M512.15,198.33H279.85v135.9h182.7v1.6c2.3-2.6,4.6-5.2,6.8-7.8,4.4-5.3,8.5-10.9,12.4-16.6a222.87,222.87,0,0,0,19.9-36.6,211.74,211.74,0,0,0,12.6-40.5h-1.9v-36Z" transform="translate(-272.95 -194.73)"/><path class="j" d="M512.15,198.33H279.85v135.9h181.3v.4c2.3-2.5,4.5-5.1,6.7-7.8a196.19,196.19,0,0,0,12.3-16.5,211.93,211.93,0,0,0,19.7-36.3,217.19,217.19,0,0,0,12.5-40.1h-.1v-35.6Z" transform="translate(-272.95 -194.73)"/><path class="k" d="M512.15,198.33H279.85v135.9h172.9v6.5a212,212,0,0,0,45.4-67.3,212,212,0,0,0,15.5-60.8h-1.5v-14.3Z" transform="translate(-272.95 -194.73)"/><path class="l" d="M512.15,198.33H279.85v135.9h171.6v5.2a209.27,209.27,0,0,0,45-66.8,211.77,211.77,0,0,0,12.2-39.4,202.21,202.21,0,0,0,3.2-20.9c.4-3.5.6-7.1.8-10.7h-.5Z" transform="translate(-272.95 -194.73)"/><path class="m" d="M511.15,198.33H279.85v135.9h170.3v3.9a208.29,208.29,0,0,0,44.6-66.2,199.31,199.31,0,0,0,12.1-39.1c1.4-6.8,2.4-13.7,3.2-20.7.4-3.5.6-7,.8-10.6.1-1.8.2-3.6.2-5.3l.1,2.1Z" transform="translate(-272.95 -194.73)"/><path class="n" d="M509.25,198.33H279.85v135.9h169v2.6a205.67,205.67,0,0,0,44.2-65.6,202.16,202.16,0,0,0,12-38.7,198.56,198.56,0,0,0,3.1-20.5c.4-3.5.6-7,.8-10.5.1-1.8.2-3.5.2-5.3l.1,2.1Z" transform="translate(-272.95 -194.73)"/><path class="o" d="M507.45,198.33H279.85v135.9h167.8v1.3a203.6,203.6,0,0,0,43.8-65,199,199,0,0,0,11.9-38.4,194.76,194.76,0,0,0,3.1-20.3c.3-3.4.6-6.9.8-10.4.1-1.7.2-3.5.2-5.2v2.1Z" transform="translate(-272.95 -194.73)"/><path class="p" d="M505.65,198.33H279.85v135.9h166.5v.1a202.11,202.11,0,0,0,55.2-102.4,191,191,0,0,0,3.1-20.1c.3-3.4.6-6.8.8-10.3.1-1.7.2-3.5.2-5.2v2Z" transform="translate(-272.95 -194.73)"/><path class="q" d="M503.75,198.33H279.85v135.9h158.1v5.4c2.4-2.2,4.7-4.4,7-6.7a200.18,200.18,0,0,0,54.7-101.5,187.1,187.1,0,0,0,3-19.9c.3-3.4.6-6.8.8-10.2.1-1.7.2-3.4.2-5.2l.1,2.2Z" transform="translate(-272.95 -194.73)"/><path class="r" d="M501.95,198.33H279.85v135.9h157v4.1q3.6-3.15,6.9-6.6a200.29,200.29,0,0,0,42.7-63.3A203.07,203.07,0,0,0,498,231q2-9.75,3-19.8c.3-3.3.6-6.7.8-10.1.1-1.7.2-3.4.2-5.1l-.1,2.3Z" transform="translate(-272.95 -194.73)"/><path class="s" d="M500.15,198.33H279.85v135.9h155.7v2.7c2.3-2.1,4.6-4.3,6.8-6.5a198.2,198.2,0,0,0,42.3-62.7,193.79,193.79,0,0,0,11.5-37c1.3-6.4,2.3-13,3-19.6.3-3.3.6-6.7.8-10,.1-1.7.1-3.4.2-5.1v2.3Z" transform="translate(-272.95 -194.73)"/><path class="t" d="M498.25,198.33H279.85v135.9h154.5v1.3c2.3-2.1,4.6-4.3,6.8-6.5a195.58,195.58,0,0,0,41.9-62.1,197.92,197.92,0,0,0,11.4-36.7c1.3-6.4,2.3-12.8,3-19.4.3-3.3.6-6.6.8-9.9.1-1.7.1-3.3.2-5l-.2,2.4Z" transform="translate(-272.95 -194.73)"/><path class="u" d="M496.45,198.33H279.85v135.9H426v6.1a162.42,162.42,0,0,0,13.7-12.5,193.16,193.16,0,0,0,52.8-97.8,174.19,174.19,0,0,0,2.9-19.2c.3-3.3.6-6.5.7-9.8.1-1.6.1-3.3.2-5l.1,2.3Z" transform="translate(-272.95 -194.73)"/><path class="v" d="M494.65,198.33H279.85v135.9h145.1v4.7a176.81,176.81,0,0,0,13.6-12.4,192.53,192.53,0,0,0,41.1-60.9,190.5,190.5,0,0,0,11.2-36,170.63,170.63,0,0,0,2.9-19c.3-3.2.6-6.5.7-9.7.1-1.6.1-3.3.2-4.9v2.3Z" transform="translate(-272.95 -194.73)"/><path class="w" d="M492.75,198.33H279.85v135.9h143.9v3.2q7-5.85,13.5-12.3a189.24,189.24,0,0,0,40.7-60.4,196.16,196.16,0,0,0,11.1-35.6c1.3-6.2,2.2-12.5,2.9-18.9.3-3.2.6-6.4.7-9.6.1-1.6.1-3.2.2-4.9l-.1,2.6Z" transform="translate(-272.95 -194.73)"/><path class="x" d="M490.95,198.33H279.85v135.9h142.7V336c4.6-3.8,9.1-7.9,13.4-12.1a188.26,188.26,0,0,0,40.3-59.8,183.22,183.22,0,0,0,11-35.3,161.91,161.91,0,0,0,2.8-18.7c.3-3.2.6-6.3.7-9.5.1-1.6.1-3.2.2-4.8v2.5Z" transform="translate(-272.95 -194.73)"/><path class="y" d="M489.15,198.33H279.85v135.9h141.6v.4q6.9-5.7,13.2-12a186.42,186.42,0,0,0,50.8-94.2c1.2-6.1,2.2-12.2,2.8-18.5.3-3.1.6-6.3.7-9.5.1-1.6.1-3.2.2-4.8v2.7Z" transform="translate(-272.95 -194.73)"/><path class="z" d="M487.25,198.33H279.85v135.9h133.4v4.5c2.4-1.8,4.7-3.6,7-5.5,4.6-3.8,8.9-7.7,13.1-11.9a183.57,183.57,0,0,0,39.5-58.6,175.85,175.85,0,0,0,10.7-34.6,183.43,183.43,0,0,0,2.8-18.3c.3-3.1.6-6.2.7-9.4.1-1.6.1-3.1.2-4.7v2.6Z" transform="translate(-272.95 -194.73)"/><path class="aa" d="M485.45,198.33H279.85v135.9h132.3v3l6.9-5.4c4.5-3.7,8.8-7.7,13-11.8a182.59,182.59,0,0,0,39.1-58,179.66,179.66,0,0,0,10.6-34.3c1.2-5.9,2.1-12,2.8-18.1.3-3.1.5-6.2.7-9.3.1-1.6.1-3.1.2-4.7v2.7Z" transform="translate(-272.95 -194.73)"/><path class="ab" d="M483.65,198.33H279.85v135.9h124.1v6.6a177.13,177.13,0,0,0,26.7-22.1,180,180,0,0,0,38.7-57.4,177.75,177.75,0,0,0,10.5-33.9,179.72,179.72,0,0,0,2.7-17.9c.3-3,.5-6.1.7-9.2.1-1.5.1-3.1.2-4.6l.2,2.6Z" transform="translate(-272.95 -194.73)"/><path class="ac" d="M481.75,198.33H279.85v135.9h123.1v5.1a185.1,185.1,0,0,0,26.5-21.8,178.34,178.34,0,0,0,48.7-90.5,169.41,169.41,0,0,0,2.7-17.8c.3-3,.5-6,.7-9.1.1-1.5.1-3.1.2-4.6v2.8Z" transform="translate(-272.95 -194.73)"/><path class="ad" d="M479.95,198.33H279.85v135.9h122.1v3.5a181.25,181.25,0,0,0,26.2-21.6,176.25,176.25,0,0,0,37.9-56.3A177.08,177.08,0,0,0,479,209c.3-3,.5-6,.7-9,.1-1.5.1-3,.2-4.5v2.8Z" transform="translate(-272.95 -194.73)"/><path class="ae" d="M478.15,198.33H279.85v135.9h121.1v2a177.44,177.44,0,0,0,25.9-21.4,174.19,174.19,0,0,0,47.8-88.6,165.86,165.86,0,0,0,2.7-17.4c.3-2.9.5-5.9.7-8.9.1-1.5.1-3,.2-4.5l-.1,2.9Z" transform="translate(-272.95 -194.73)"/><path class="af" d="M476.25,198.33H279.85v135.9h120.1v.5a173.1,173.1,0,0,0,73-108.8,162,162,0,0,0,2.6-17.2c.3-2.9.5-5.9.7-8.8.1-1.5.1-3,.2-4.4l-.2,2.8Z" transform="translate(-272.95 -194.73)"/><path class="ag" d="M474.45,198.33H279.85v135.9h112.1v3.4c2.4-1.4,4.7-2.9,7-4.5a182.13,182.13,0,0,0,25.4-20.9,172.5,172.5,0,0,0,36.8-54.5,174.47,174.47,0,0,0,10-32.2c1.1-5.6,2-11.3,2.6-17,.3-2.9.5-5.8.7-8.7.1-1.5.1-2.9.2-4.4l-.2,2.9Z" transform="translate(-272.95 -194.73)"/><path class="ah" d="M472.65,198.33H279.85v135.9h104v6c4.8-2.6,9.5-5.5,14-8.5a169.24,169.24,0,0,0,71.4-106.5c1.1-5.5,2-11.1,2.6-16.9.3-2.9.5-5.7.7-8.6.1-1.4.1-2.9.2-4.4l-.1,3Z" transform="translate(-272.95 -194.73)"/><path class="ai" d="M470.75,198.33H279.85v135.9h103.1v4.3a158.37,158.37,0,0,0,13.8-8.4,162.78,162.78,0,0,0,24.8-20.5,168.23,168.23,0,0,0,36-53.4,174.66,174.66,0,0,0,9.8-31.5,152.68,152.68,0,0,0,2.5-16.7c.3-2.8.5-5.7.6-8.5.1-1.4.1-2.9.2-4.3l.1,3.1Z" transform="translate(-272.95 -194.73)"/><path class="aj" d="M468.95,198.33H279.85v135.9h102.3v2.7c4.7-2.6,9.3-5.3,13.7-8.3a171.25,171.25,0,0,0,24.6-20.3,166.15,166.15,0,0,0,35.6-52.8,163.86,163.86,0,0,0,9.7-31.2c1.1-5.4,1.9-10.9,2.5-16.5q.45-4.2.6-8.4c.1-1.4.1-2.8.2-4.3l-.1,3.2Z" transform="translate(-272.95 -194.73)"/><path class="ak" d="M467.15,198.33H279.85v135.9h101.4v1.1a151.42,151.42,0,0,0,13.5-8.2,161.2,161.2,0,0,0,24.3-20.1,164.64,164.64,0,0,0,35.2-52.2,159.75,159.75,0,0,0,9.6-30.8c1.1-5.3,1.9-10.8,2.5-16.3.3-2.8.5-5.5.6-8.3.1-1.4.1-2.8.2-4.2v3.1Z" transform="translate(-272.95 -194.73)"/><path class="al" d="M465.25,198.33H279.85v135.9h86.3v6.3a162.64,162.64,0,0,0,95.9-116.9c1.1-5.3,1.9-10.7,2.5-16.1.3-2.7.5-5.5.6-8.2.1-1.4.1-2.8.2-4.2l-.1,3.2Z" transform="translate(-272.95 -194.73)"/><path class="am" d="M463.45,198.33H279.85v135.9h85.6v4.7a161,161,0,0,0,94.8-115.5,138.44,138.44,0,0,0,2.4-15.9c.3-2.7.5-5.4.6-8.2.1-1.4.1-2.7.2-4.1v3.1Z" transform="translate(-272.95 -194.73)"/><path class="an" d="M461.65,198.33H279.85v135.9h84.9v3a160,160,0,0,0,50.5-34,157.79,157.79,0,0,0,43.2-80.3,136.72,136.72,0,0,0,2.4-15.8q.45-4.05.6-8.1c.1-1.4.1-2.7.2-4.1v3.4Z" transform="translate(-272.95 -194.73)"/><path class="ao" d="M459.85,198.33h-180v135.9h84.1v1.3a157,157,0,0,0,83.5-83.5,146.37,146.37,0,0,0,9.1-29.5q1.5-7.65,2.4-15.6c.3-2.6.5-5.3.6-8,.1-1.3.1-2.7.2-4l.1,3.4Z" transform="translate(-272.95 -194.73)"/><path class="ap" d="M457.95,198.33H279.85v135.9h69.2V339c4.9-1.5,9.6-3.3,14.2-5.2a155.16,155.16,0,0,0,82.5-82.5,151.13,151.13,0,0,0,9-29.1,154.31,154.31,0,0,0,2.3-15.4c.3-2.6.5-5.2.6-7.9.1-1.3.1-2.6.2-4l.1,3.4Z" transform="translate(-272.95 -194.73)"/><path class="aq" d="M456.15,198.33H279.85v135.9h54V341a152.35,152.35,0,0,0,77.5-41.7,152.63,152.63,0,0,0,32.8-48.7,148,148,0,0,0,8.9-28.8c1-5,1.8-10.1,2.3-15.2q.45-3.9.6-7.8c.1-1.3.1-2.6.1-3.9l.1,3.4Z" transform="translate(-272.95 -194.73)"/><path class="ar" d="M454.35,198.33H279.85v135.9h53.6v5a148.75,148.75,0,0,0,28.4-8.8,152.19,152.19,0,0,0,48.1-32.4,150.55,150.55,0,0,0,32.4-48.1,153.31,153.31,0,0,0,8.8-28.4,146.44,146.44,0,0,0,2.3-15c.3-2.5.5-5.1.6-7.7.1-1.3.1-2.6.1-3.9l.2,3.4Z" transform="translate(-272.95 -194.73)"/><path class="as" d="M452.45,198.33H279.85v135.9h23.1v6.3a150,150,0,0,0,137.9-91.3,151.42,151.42,0,0,0,11-43c.3-2.5.4-5,.6-7.6.1-1.3.1-2.6.1-3.8l-.1,3.5Z" transform="translate(-272.95 -194.73)"/><path class="at" d="M450.65,198.33H279.85v135.9h23.1v4.5a148.06,148.06,0,0,0,136.2-90.3,151,151,0,0,0,8.6-27.7,140.61,140.61,0,0,0,2.2-14.7c.3-2.5.4-5,.6-7.5.1-1.3.1-2.5.1-3.8v3.6Z" transform="translate(-272.95 -194.73)"/><path class="au" d="M448.85,198.33h-169v135.6h-6.3a149.56,149.56,0,0,0,29.4,3,146.08,146.08,0,0,0,134.5-89.1,140.61,140.61,0,0,0,8.5-27.4,136.83,136.83,0,0,0,2.2-14.5c.2-2.5.4-4.9.6-7.4.1-1.2.1-2.5.1-3.7v3.5Z" transform="translate(-272.95 -194.73)"/><path class="av" d="M446.95,198.33H279.85v133.8h-5.9a146.28,146.28,0,0,0,29,2.9,143.59,143.59,0,0,0,101.9-42.2,143.74,143.74,0,0,0,39.3-72.8,137.08,137.08,0,0,0,2.2-14.3c.2-2.4.4-4.9.6-7.3.1-1.2.1-2.5.1-3.7l-.1,3.6Z" transform="translate(-272.95 -194.73)"/><path class="aw" d="M445.15,198.33H279.85v132h-5.5a142.56,142.56,0,0,0,159.8-84,140.39,140.39,0,0,0,8.3-26.7c.9-4.6,1.7-9.3,2.2-14.1.2-2.4.4-4.8.5-7.2h0Z" transform="translate(-272.95 -194.73)"/><path class="ax" d="M443.35,198.33H279.85v130.2h-5.2a140.31,140.31,0,0,0,127.6-38.2,140.45,140.45,0,0,0,30.1-44.6,137.23,137.23,0,0,0,8.2-26.4c.9-4.6,1.6-9.2,2.1-13.9.2-2.4.4-4.7.5-7.1v.1h.2Z" transform="translate(-272.95 -194.73)"/><path class="ay" d="M441.45,198.33H279.85v128.4h-4.9a142.7,142.7,0,0,0,27.9,2.8,138.07,138.07,0,0,0,98-40.6,139.48,139.48,0,0,0,29.7-44,142.74,142.74,0,0,0,8.1-26q1.35-6.75,2.1-13.8c.2-2.3.4-4.7.5-7v.2Z" transform="translate(-272.95 -194.73)"/><path class="az" d="M439.65,198.33H279.85v126.6h-4.4a138.89,138.89,0,0,0,27.6,2.8,136.93,136.93,0,0,0,126-83.6,139.45,139.45,0,0,0,8-25.7c.9-4.5,1.6-9,2.1-13.6.2-2.3.4-4.6.5-6.9v.3h0Z" transform="translate(-272.95 -194.73)"/><path class="ba" d="M437.85,198.33h-158v124.8h-4.1a135.61,135.61,0,0,0,122.6-36.8,135.43,135.43,0,0,0,36.8-68.2,120.24,120.24,0,0,0,2-13.4c.2-2.3.4-4.6.5-6.9v.4h.2Z" transform="translate(-272.95 -194.73)"/><path class="bb" d="M435.95,198.33H279.85v123h-3.7A133.28,133.28,0,0,0,397,285a133.5,133.5,0,0,0,36.3-67.3,113.41,113.41,0,0,0,2-13.2c.2-2.2.4-4.5.5-6.8v.5h.1Z" transform="translate(-272.95 -194.73)"/><path class="bc" d="M434.15,198.33H279.85v121.2h-3.3a135.3,135.3,0,0,0,26.5,2.7,130.83,130.83,0,0,0,128.5-104.7c.9-4.3,1.5-8.6,2-13,.2-2.2.4-4.4.5-6.7v.6h.1Z" transform="translate(-272.95 -194.73)"/><path class="bd" d="M432.35,198.33H279.85v119.4h-3a131.27,131.27,0,0,0,26.1,2.6,129.47,129.47,0,0,0,119.2-79,124.55,124.55,0,0,0,7.5-24.3c.9-4.2,1.5-8.5,2-12.8.2-2.2.4-4.4.5-6.6v.7h.2Z" transform="translate(-272.95 -194.73)"/><path class="be" d="M430.45,198.33H279.85v117.6h-2.6a127.49,127.49,0,0,0,150.6-99.3c.8-4.2,1.5-8.4,1.9-12.7.2-2.1.4-4.3.5-6.5v.8h.2Z" transform="translate(-272.95 -194.73)"/><path class="bf" d="M428.65,198.33H279.85v115.8h-2.2a125.56,125.56,0,0,0,141.1-74.2,117.55,117.55,0,0,0,7.3-23.6c.8-4.1,1.5-8.3,1.9-12.5.2-2.1.4-4.2.5-6.4v.9h.2Z" transform="translate(-272.95 -194.73)"/><path class="bg" d="M426.85,198.33h-147v114h-1.9a121.15,121.15,0,0,0,25,2.5,123.57,123.57,0,0,0,87.6-36.3,125.13,125.13,0,0,0,26.6-39.4,125.91,125.91,0,0,0,9.1-35.6c.2-2.1.4-4.2.5-6.3v1h.1Z" transform="translate(-272.95 -194.73)"/><path class="bh" d="M424.95,198.33H279.85v112.3h-1.5a124.39,124.39,0,0,0,24.6,2.5,121.68,121.68,0,0,0,86.3-35.8,123,123,0,0,0,26.2-38.8,119.28,119.28,0,0,0,7.1-22.9,121.63,121.63,0,0,0,1.8-12.1c.2-2.1.4-4.1.5-6.2v1.1h.1Z" transform="translate(-272.95 -194.73)"/><path class="bi" d="M423.15,198.33H279.85v110.5h-1.1a120.16,120.16,0,0,0,142-93.6,117.7,117.7,0,0,0,1.8-11.9c.2-2,.4-4.1.5-6.1v1.2h.1Z" transform="translate(-272.95 -194.73)"/><path class="bj" d="M421.35,198.33H279.85V307h-.7a118.67,118.67,0,0,0,107.6-32.3,117.75,117.75,0,0,0,32.3-59.8,115.76,115.76,0,0,0,1.8-11.8c.2-2,.4-4,.5-6v1.3h0Z" transform="translate(-272.95 -194.73)"/><path class="bj" d="M419.45,198.33H279.85v106.9h-.4a113.54,113.54,0,0,0,23.5,2.4,116.6,116.6,0,0,0,107.4-71.2,123.75,123.75,0,0,0,6.8-21.9,111.94,111.94,0,0,0,1.8-11.6c.2-2,.3-3.9.5-5.9v1.3h0Z" transform="translate(-272.95 -194.73)"/><path class="bk" d="M416.45,198.33H279.85v102.6h-5.3c1.8.5,3.6.9,5.5,1.3a114.75,114.75,0,0,0,22.9,2.3,113.62,113.62,0,0,0,104.6-69.4,109.7,109.7,0,0,0,6.6-21.3,106.09,106.09,0,0,0,1.7-11.3c.2-1.9.3-3.8.4-5.8v1.5h.2Z" transform="translate(-272.95 -194.73)"/><path class="bl" d="M413.45,198.33H279.85V298h-4.5a50.5,50.5,0,0,0,5.3,1.2,108.83,108.83,0,0,0,22.3,2.2,110.82,110.82,0,0,0,101.8-67.5,105.64,105.64,0,0,0,6.4-20.7c.7-3.6,1.3-7.3,1.7-11,.2-1.9.3-3.7.4-5.6v1.7Z" transform="translate(-272.95 -194.73)"/><path class="bm" d="M410.35,198.33H279.85V295h-3.7l5.2,1.2a110.13,110.13,0,0,0,21.7,2.2,107.45,107.45,0,0,0,99-65.7,113,113,0,0,0,6.3-20.2,95.14,95.14,0,0,0,1.6-10.7c.2-1.8.3-3.6.4-5.5v1.8h0Z" transform="translate(-272.95 -194.73)"/><path class="bn" d="M407.35,198.33H279.85v93.8h-3l5.1,1.2a104.68,104.68,0,0,0,117.3-61.7,106.32,106.32,0,0,0,6.1-19.6c.7-3.4,1.2-6.9,1.6-10.4.2-1.8.3-3.5.4-5.3v2h0Z" transform="translate(-272.95 -194.73)"/><path class="bo" d="M404.35,198.33H279.85v90.9h-2.2c1.6.4,3.3.8,4.9,1.1a98,98,0,0,0,20.4,2.1,101.44,101.44,0,0,0,93.4-61.9,95.19,95.19,0,0,0,5.9-19,84.79,84.79,0,0,0,1.5-10.1c.2-1.7.3-3.4.4-5.1v2.1h.2Z" transform="translate(-272.95 -194.73)"/><path class="bp" d="M401.25,198.33H279.85v86.6h-6.1a76.17,76.17,0,0,0,9.4,2.4,99.23,99.23,0,0,0,19.8,2,98.47,98.47,0,0,0,90.7-60.1,96.77,96.77,0,0,0,5.7-18.5,79.88,79.88,0,0,0,1.5-9.8c.2-1.7.3-3.3.4-5v2.3h0Z" transform="translate(-272.95 -194.73)"/><path class="bq" d="M398.25,198.33H279.85V282h-5.2a96.41,96.41,0,0,0,28.3,4.2,95.27,95.27,0,0,0,87.8-58.2,98,98,0,0,0,5.6-17.9c.6-3.1,1.1-6.3,1.4-9.5.2-1.6.3-3.2.4-4.8v2.4h.1Z" transform="translate(-272.95 -194.73)"/><path class="br" d="M395.25,198.33H279.85v80.8h-4.3a87.45,87.45,0,0,0,8.8,2.3,94.61,94.61,0,0,0,18.6,1.9,92,92,0,0,0,65.3-27A93,93,0,0,0,388,227a99.42,99.42,0,0,0,5.4-17.3,92.71,92.71,0,0,0,1.4-9.2c.2-1.6.3-3.1.4-4.7v2.6h0Z" transform="translate(-272.95 -194.73)"/><path class="bs" d="M392.15,198.33H279.85v77.9h-3.4a77.27,77.27,0,0,0,8.6,2.2,89.19,89.19,0,0,0,100.2-52.7,84.16,84.16,0,0,0,5.2-16.8c.6-2.9,1-5.9,1.4-8.9a34,34,0,0,0,.3-4.5v2.8Z" transform="translate(-272.95 -194.73)"/><path class="bt" d="M389.15,198.33H279.85v75h-2.5a77.54,77.54,0,0,0,8.3,2.1,90,90,0,0,0,17.4,1.8,86.09,86.09,0,0,0,61-25.3,87.19,87.19,0,0,0,18.5-27.4,82.18,82.18,0,0,0,5-16.2,81,81,0,0,0,1.3-8.6c.1-1.4.3-2.9.3-4.4v2.9h0Z" transform="translate(-272.95 -194.73)"/><path class="bu" d="M386,198.33H279.85v72.1h-1.6a72,72,0,0,0,8,2,84,84,0,0,0,16.8,1.7,82.57,82.57,0,0,0,58.8-24.4,82.1,82.1,0,0,0,22.6-42,75.5,75.5,0,0,0,1.3-8.3l.3-4.2v3.1h0Z" transform="translate(-272.95 -194.73)"/><path class="bv" d="M383,198.33H279.85v69.2h-.7c2.5.8,5.1,1.4,7.7,2a78.09,78.09,0,0,0,16.2,1.6,80.35,80.35,0,0,0,73.9-49,84.36,84.36,0,0,0,4.7-15c.5-2.6.9-5.3,1.2-8,.1-1.3.2-2.7.3-4.1v3.2H383Z" transform="translate(-272.95 -194.73)"/><path class="bw" d="M380,198.33H279.85V262h-6.9a77.09,77.09,0,0,0,101-41,71.76,71.76,0,0,0,4.5-14.5c.5-2.5.9-5.1,1.2-7.7l.3-3.9v3.4Z" transform="translate(-272.95 -194.73)"/><path class="bx" d="M376.95,198.33h-97.1v60.9h-5.7a74.79,74.79,0,0,0,28.8,5.8,73.83,73.83,0,0,0,52.4-21.7,75.66,75.66,0,0,0,15.9-23.5,72.33,72.33,0,0,0,4.3-13.9,60,60,0,0,0,1.1-7.4c.1-1.2.2-2.5.3-3.8v3.6Z" transform="translate(-272.95 -194.73)"/><path class="by" d="M373.95,198.33h-94.1v58.1h-4.5a71.09,71.09,0,0,0,77.9-15.2,71.4,71.4,0,0,0,15.2-22.6,66.21,66.21,0,0,0,4.1-13.3c.5-2.3.8-4.7,1.1-7.1v.1h.3Z" transform="translate(-272.95 -194.73)"/><path class="bz" d="M370.95,198.33h-91.1v55.3h-3.3a68.49,68.49,0,0,0,26.5,5.3,67.79,67.79,0,0,0,48.1-19.9,69.26,69.26,0,0,0,14.6-21.6,68.06,68.06,0,0,0,4-12.8,50.63,50.63,0,0,0,1-6.8v.4h.2Z" transform="translate(-272.95 -194.73)"/><path class="ca" d="M367.85,198.33h-88.1v52.5h-2.2a64.88,64.88,0,0,0,85.1-34.6,72,72,0,0,0,3.8-12.2c.4-2.1.8-4.3,1-6.5v.7h.4Z" transform="translate(-272.95 -194.73)"/><path class="cb" d="M364.85,198.33h-85V248h-1a62.5,62.5,0,0,0,24.1,4.9,61.74,61.74,0,0,0,43.8-18.1,63.41,63.41,0,0,0,13.3-19.7,57.81,57.81,0,0,0,3.6-11.6c.4-2,.7-4.1.9-6.1v1h.3Z" transform="translate(-272.95 -194.73)"/><path class="cc" d="M361.85,198.33h-82v44.4h-5c1.7.9,3.4,1.7,5.1,2.5a58.87,58.87,0,0,0,64.5-12.7,59.85,59.85,0,0,0,12.6-18.7,57.26,57.26,0,0,0,3.4-11.1,58.14,58.14,0,0,0,.9-5.8v1.3h.5Z" transform="translate(-272.95 -194.73)"/><path class="cc" d="M358.75,198.33h-78.9v41.8h-3.5c1.6.9,3.2,1.6,4.9,2.4a55.75,55.75,0,0,0,61.2-12,57,57,0,0,0,12-17.8,58.44,58.44,0,0,0,3.3-10.5,34.73,34.73,0,0,0,.8-5.5v1.6Z" transform="translate(-272.95 -194.73)"/><path class="cc" d="M330.85,198.33h-51v3.5h-2.6a28.51,28.51,0,0,0,6,8.9,28,28,0,0,0,39.6,0,27.4,27.4,0,0,0,6-8.9,24,24,0,0,0,1.6-5.2v1.7Z" transform="translate(-272.95 -194.73)"/></g></g></svg>