<?xml version="1.0" standalone="no"?>
<!DOCTYPE svg PUBLIC "-//W3C//DTD SVG 1.1//EN" "http://www.w3.org/Graphics/SVG/1.1/DTD/svg11.dtd" >
<svg>
<metadata>
Created by FontForge 20120731 at Tue Dec  6 15:35:28 2016
 By www-data
Copyright (c) 2009 by Fontsmith Ltd. All rights reserved.
</metadata>
<defs>
<font id="FSAlbert-ExtraBold" horiz-adv-x="570" >
  <font-face 
    font-family="FS Albert ExtraBold"
    font-weight="800"
    font-stretch="normal"
    units-per-em="1000"
    panose-1="2 0 0 0 4 0 0 2 0 4"
    ascent="770"
    descent="-230"
    x-height="487"
    cap-height="694"
    bbox="-211 -285 1047 1069"
    underline-thickness="50"
    underline-position="-50"
    stemh="129"
    stemv="150"
    unicode-range="U+000D-FB02"
  />
<missing-glyph horiz-adv-x="535" 
d="M20 0v693h495v-693h-495zM268 391l168 253h-337zM297 347l169 -253v505zM99 50h337l-168 252zM70 599v-505l168 253z" />
    <glyph glyph-name="fi" unicode="fi" horiz-adv-x="656" 
d="M594 461v-432c0 -21 -9 -29 -29 -29h-90c-21 0 -31 7 -31 29v356h-200v-353c0 -21 -6 -32 -29 -32h-93c-20 0 -28 11 -28 30v355h-50c-24 0 -28 6 -28 33v43c0 14 8 26 23 26h55v33c0 128 62 214 209 214c58 0 121 -11 158 -24c11 -4 15 -10 15 -22c0 -6 -2 -17 -3 -24
l-8 -51c-2 -11 -5 -19 -15 -19c-4 0 -9 1 -13 2c-22 5 -76 13 -111 13c-65 0 -82 -37 -82 -78v-44h321c19 0 29 -5 29 -26z" />
    <glyph glyph-name="fl" unicode="fl" horiz-adv-x="642" 
d="M582 692v-664c0 -19 -10 -28 -26 -28h-97c-15 0 -27 8 -27 27v566c-23 8 -79 16 -103 16c-60 0 -85 -38 -85 -79v-43h101c14 0 24 -6 24 -21v-58c0 -15 -10 -23 -24 -23h-101v-353c0 -21 -6 -32 -29 -32h-93c-20 0 -28 11 -28 30v355h-50c-24 0 -28 6 -28 33v43
c0 14 8 26 23 26h55v33c0 128 75 214 214 214c48 0 120 -13 154 -29l99 12c14 0 21 -9 21 -25z" />
    <glyph glyph-name=".notdef" horiz-adv-x="535" 
d="M20 0v693h495v-693h-495zM268 391l168 253h-337zM297 347l169 -253v505zM99 50h337l-168 252zM70 599v-505l168 253z" />
    <glyph glyph-name=".null" horiz-adv-x="0" 
 />
    <glyph glyph-name=".null" horiz-adv-x="0" 
 />
    <glyph glyph-name="CR" unicode="&#xd;" horiz-adv-x="246" 
 />
    <glyph glyph-name="nbspace" unicode="&#xa0;" horiz-adv-x="246" 
 />
    <glyph glyph-name="space" unicode=" " horiz-adv-x="246" 
 />
    <glyph glyph-name="A" unicode="A" horiz-adv-x="671" 
d="M665 20c0 -12 -7 -20 -21 -20h-112c-24 0 -33 11 -39 28l-40 116h-247l-40 -120c-4 -13 -12 -24 -30 -24h-114c-11 0 -16 7 -16 16c0 4 0 8 2 12l238 641c6 15 15 25 34 25h103c20 0 31 -9 36 -22l243 -637c2 -6 3 -11 3 -15zM246 264h164l-63 197c-7 22 -13 41 -18 58
h-2c-5 -18 -11 -38 -18 -59z" />
    <glyph glyph-name="B" unicode="B" horiz-adv-x="622" 
d="M584 205c0 -166 -140 -205 -284 -205h-200c-24 0 -30 10 -30 35v630c0 24 10 29 33 29h162c178 0 265 -52 265 -170c0 -68 -39 -129 -108 -144v-1c94 -10 162 -74 162 -174zM374 502c0 48 -37 72 -98 72h-49v-156h38c75 0 109 21 109 84zM423 212c0 42 -20 70 -49 83
s-58 14 -97 14c-12 0 -34 -1 -50 -1v-187h62c30 0 60 2 82 10c31 12 52 41 52 81z" />
    <glyph glyph-name="C" unicode="C" horiz-adv-x="604" 
d="M582 649c0 -4 -1 -9 -3 -14l-29 -84c-4 -10 -8 -15 -15 -15c-4 0 -8 2 -13 4c-53 25 -94 34 -141 34c-104 0 -171 -80 -171 -226c0 -158 76 -226 174 -226c47 0 88 9 135 28c6 2 11 4 15 4c9 0 14 -4 18 -16l25 -74c2 -6 3 -11 3 -16c0 -10 -4 -17 -18 -22
c-69 -26 -126 -39 -203 -39c-212 0 -319 141 -319 356c0 216 131 366 332 366c72 0 133 -14 191 -40c14 -6 19 -13 19 -20z" />
    <glyph glyph-name="D" unicode="D" horiz-adv-x="710" 
d="M670 345c0 -240 -161 -345 -364 -345h-204c-20 0 -32 5 -32 31v631c0 22 6 32 33 32h158c248 0 409 -83 409 -349zM500 346c0 149 -74 211 -215 211h-56v-422h71c100 0 200 43 200 211z" />
    <glyph glyph-name="E" unicode="E" horiz-adv-x="561" 
d="M96 694h398c20 0 26 -10 25 -23l-9 -81c-2 -21 -15 -25 -39 -25h-242v-149h227c22 0 30 -11 30 -27v-73c0 -20 -10 -29 -29 -29h-228v-158h261c18 0 29 -8 29 -27v-74c0 -19 -9 -28 -28 -28h-388c-23 0 -33 6 -33 31v635c0 17 9 28 26 28z" />
    <glyph glyph-name="F" unicode="F" horiz-adv-x="557" 
d="M494 694c20 0 26 -10 25 -23l-9 -81c-2 -21 -15 -25 -39 -25h-242v-149h227c22 0 30 -11 30 -27v-73c0 -20 -10 -29 -29 -29h-228v-259c0 -19 -9 -28 -28 -28h-98c-23 0 -33 6 -33 31v635c0 17 9 28 26 28h398z" />
    <glyph glyph-name="G" unicode="G" horiz-adv-x="697" 
d="M639 389v-318c0 -20 -3 -28 -24 -38c-60 -29 -163 -46 -248 -46c-201 0 -329 142 -329 357c0 214 143 365 342 365c73 0 129 -12 197 -43c13 -6 15 -14 15 -21c0 -5 -2 -9 -3 -13l-30 -78c-4 -11 -10 -16 -17 -16c-5 0 -11 2 -17 5c-29 13 -85 30 -136 30
c-44 0 -93 -17 -124 -52c-34 -38 -57 -93 -57 -171c0 -159 78 -227 170 -227c39 0 81 4 102 10v154h-77c-14 0 -25 9 -25 26v78c0 18 10 25 27 25h206c19 0 28 -7 28 -27z" />
    <glyph glyph-name="H" unicode="H" horiz-adv-x="711" 
d="M636 668v-639c0 -21 -9 -29 -29 -29h-99c-21 0 -31 7 -31 29v258h-253v-258c0 -21 -9 -29 -29 -29h-99c-21 0 -31 7 -31 29v639c0 20 13 26 31 26h99c19 0 29 -5 29 -26v-252h253v252c0 20 13 26 31 26h99c19 0 29 -5 29 -26z" />
    <glyph glyph-name="I" unicode="I" horiz-adv-x="427" 
d="M371 672v-54c0 -18 -10 -26 -25 -26h-54v-490h50c16 0 24 -12 24 -26v-53c0 -12 -8 -23 -22 -23h-257c-15 0 -25 11 -25 22v54c0 18 10 26 25 26h46v490h-53c-16 0 -24 12 -24 26v53c0 12 8 23 22 23h268c15 0 25 -11 25 -22z" />
    <glyph glyph-name="J" unicode="J" horiz-adv-x="446" 
d="M376 668v-439c0 -93 -27 -160 -80 -199c-37 -27 -89 -41 -158 -41c-21 0 -53 3 -80 8c-15 3 -20 9 -20 18c0 4 1 8 2 13l12 69c3 14 8 20 23 18c20 -3 44 -6 61 -6c21 0 45 6 59 21s22 41 22 78v384h-115c-16 0 -23 14 -23 26v51c0 16 9 25 23 25h246c18 0 28 -11 28 -26
z" />
    <glyph glyph-name="K" unicode="K" horiz-adv-x="635" 
d="M620 17c0 -10 -8 -17 -18 -17h-126c-28 0 -42 9 -56 29l-188 259h-3v-259c0 -21 -9 -29 -29 -29h-99c-21 0 -31 7 -31 29v639c0 20 13 26 31 26h99c19 0 29 -5 29 -26v-278h3l178 283c10 15 23 21 43 21h101c13 0 19 -7 19 -15c0 -5 -3 -10 -6 -15l-208 -306l252 -321
c5 -7 9 -14 9 -20z" />
    <glyph glyph-name="L" unicode="L" horiz-adv-x="524" 
d="M512 105v-76c0 -22 -13 -29 -30 -29h-380c-21 0 -32 5 -32 32v634c0 18 9 28 28 28h101c22 0 30 -7 30 -30v-530h255c19 0 28 -11 28 -29z" />
    <glyph glyph-name="M" unicode="M" horiz-adv-x="902" 
d="M807 0h-100c-26 0 -32 13 -33 41l-11 343h-2l-151 -362c-8 -20 -21 -22 -34 -22h-37c-19 0 -30 3 -40 23l-173 361h-2l-6 -353c0 -28 -13 -31 -34 -31h-82c-25 0 -35 9 -34 32l27 630c1 24 12 32 31 32h72c23 0 32 -8 41 -27l221 -452h2l200 452c8 17 19 27 41 27h70
c20 0 27 -7 28 -25l33 -638c1 -20 -7 -31 -27 -31z" />
    <glyph glyph-name="N" unicode="N" horiz-adv-x="754" 
d="M684 663v-632c0 -26 -11 -31 -29 -31h-85c-18 0 -33 7 -44 22l-298 397h-2v-389c0 -22 -10 -30 -30 -30h-93c-23 0 -33 5 -33 29v634c0 26 12 31 33 31h84c20 0 30 -6 41 -21l298 -400h2v392c0 22 11 29 31 29h97c26 0 28 -14 28 -31z" />
    <glyph glyph-name="O" unicode="O" horiz-adv-x="710" 
d="M672 351c0 -225 -132 -364 -320 -364c-201 0 -314 143 -314 358c0 214 121 364 320 364c209 0 314 -155 314 -358zM502 348c0 161 -53 226 -148 226c-87 0 -146 -77 -146 -225c0 -158 54 -227 149 -227c88 0 145 71 145 226z" />
    <glyph glyph-name="P" unicode="P" horiz-adv-x="587" 
d="M557 470c0 -161 -119 -240 -273 -240c-13 0 -44 2 -55 3v-206c0 -17 -7 -27 -30 -27h-100c-18 0 -29 7 -29 31v632c0 25 7 31 30 31h156c116 0 196 -20 247 -76c36 -40 54 -95 54 -148zM397 463c0 76 -44 108 -119 108h-49v-217c13 -1 46 -1 54 -1c75 0 114 38 114 110z
" />
    <glyph glyph-name="Q" unicode="Q" horiz-adv-x="704" 
d="M352 -12c-201 0 -314 142 -314 357c0 214 121 364 320 364c209 0 314 -155 314 -358c0 -145 -55 -254 -144 -313c34 -21 71 -40 123 -45c21 -2 26 -13 22 -29l-15 -70c-3 -16 -9 -22 -23 -22c-15 0 -40 4 -59 8c-87 20 -125 71 -165 95c-19 11 -28 13 -59 13zM502 348
c0 161 -53 226 -148 226c-87 0 -146 -77 -146 -225c0 -158 54 -229 149 -229c88 0 145 73 145 228z" />
    <glyph glyph-name="R" unicode="R" horiz-adv-x="623" 
d="M475 0c-20 0 -34 5 -45 22l-139 213h-62v-207c0 -16 -7 -28 -27 -28h-104c-20 0 -28 9 -28 29v631c0 27 6 34 33 34h152c85 0 187 -7 248 -75c36 -40 54 -95 54 -149c0 -89 -38 -163 -119 -204v-2l164 -234c4 -6 6 -12 6 -17c0 -9 -8 -13 -16 -13h-117zM397 467
c0 79 -54 107 -129 107h-39v-220h50c73 0 118 39 118 113z" />
    <glyph glyph-name="S" unicode="S" horiz-adv-x="567" 
d="M527 214c0 -144 -115 -228 -252 -228c-65 0 -144 13 -209 36c-16 5 -21 12 -21 21c0 5 2 11 4 17l27 81c3 10 8 19 21 19c5 0 10 -1 17 -4c49 -19 105 -31 156 -31c42 0 95 22 95 71c0 38 -30 57 -61 71l-134 62c-74 34 -123 96 -123 180c0 128 128 200 245 200
c72 0 134 -13 197 -40c16 -7 22 -14 22 -23c0 -4 -2 -9 -4 -15l-31 -78c-5 -13 -11 -18 -20 -18c-5 0 -11 2 -18 5c-41 18 -95 32 -136 32c-40 0 -85 -15 -85 -62c0 -32 40 -52 65 -63l115 -52c79 -36 130 -90 130 -181z" />
    <glyph glyph-name="T" unicode="T" horiz-adv-x="596" 
d="M575 694c20 0 27 -10 25 -25l-8 -79c-2 -20 -15 -25 -36 -25h-176v-539c0 -22 -3 -26 -23 -26h-113c-21 0 -23 3 -23 24v541h-183c-20 0 -28 10 -28 30v74c0 17 9 25 27 25h538z" />
    <glyph glyph-name="U" unicode="U" horiz-adv-x="738" 
d="M672 668v-356c0 -225 -115 -325 -307 -325c-206 0 -299 112 -299 324v357c0 20 13 26 31 26h99c19 0 29 -5 29 -26v-345c0 -158 54 -202 147 -202c88 0 142 46 142 201v346c0 20 12 26 30 26h99c19 0 29 -5 29 -26z" />
    <glyph glyph-name="V" unicode="V" horiz-adv-x="687" 
d="M671 677c0 -3 -1 -7 -2 -11l-240 -642c-5 -14 -18 -24 -35 -24h-82c-22 0 -33 11 -40 28l-253 636c-2 4 -3 8 -3 12c0 12 10 18 22 18h114c22 0 34 -8 39 -22l167 -458h4l154 454c6 19 16 26 43 26h90c14 0 22 -7 22 -17z" />
    <glyph glyph-name="W" unicode="W" horiz-adv-x="977" 
d="M832 694h113c15 0 19 -16 15 -28l-184 -635c-6 -20 -19 -31 -38 -31h-82c-18 0 -31 11 -37 30l-125 408h-2l-124 -403c-9 -28 -19 -35 -41 -35h-78c-19 0 -30 7 -39 36l-192 626c-5 15 -3 32 18 32h124c23 0 33 -12 37 -28l107 -407h1l120 411c5 16 18 24 33 24h85
c18 0 28 -9 32 -23l119 -412h2l103 410c5 18 19 25 33 25z" />
    <glyph glyph-name="X" unicode="X" horiz-adv-x="642" 
d="M480 0c-21 0 -33 9 -42 24l-124 208h-1l-126 -210c-9 -15 -21 -22 -44 -22h-107c-11 0 -20 6 -20 17c0 4 2 10 5 15l207 324l-197 309c-3 5 -4 10 -4 14c0 9 8 15 16 15h127c17 0 33 -9 43 -25l109 -184h1l117 188c9 15 18 21 39 21h116c11 0 18 -7 18 -16
c0 -6 -3 -13 -6 -17l-202 -295l217 -333c3 -4 4 -11 4 -16c0 -10 -7 -17 -22 -17h-124z" />
    <glyph glyph-name="Y" unicode="Y" horiz-adv-x="627" 
d="M611 680c0 -3 -1 -7 -4 -12l-210 -371v-270c0 -17 -9 -27 -27 -27h-105c-17 0 -27 10 -27 29v261l-219 377c-2 3 -3 7 -3 10c0 10 8 17 19 17h121c19 0 32 -7 39 -21l129 -249h2l129 249c8 15 18 21 38 21h97c12 0 21 -4 21 -14z" />
    <glyph glyph-name="Z" unicode="Z" horiz-adv-x="621" 
d="M589 100v-71c0 -17 -9 -29 -26 -29h-508c-15 0 -23 12 -23 26v38c0 14 2 24 11 37l312 463l-1 1h-278c-18 0 -29 8 -29 29v76c0 15 9 24 24 24h472c21 0 28 -12 28 -27v-30c0 -18 -2 -35 -14 -52l-308 -455l1 -1h312c17 0 27 -9 27 -29z" />
    <glyph glyph-name="a" unicode="a" horiz-adv-x="574" 
d="M554 81v-58c0 -15 -10 -23 -24 -23h-53c-59 0 -83 17 -96 46h-2c-27 -31 -91 -59 -140 -59c-144 0 -211 114 -211 247c0 177 110 267 220 267c56 0 101 -26 122 -56l3 22c1 11 10 20 23 20h90c14 0 24 -8 24 -24v-345c0 -10 4 -17 15 -17h8c14 0 21 -5 21 -20zM360 150
v193c-18 16 -51 34 -81 34c-49 0 -95 -40 -95 -133c0 -62 16 -136 92 -136c36 0 72 27 84 42z" />
    <glyph glyph-name="b" unicode="b" horiz-adv-x="568" 
d="M538 242c0 -139 -72 -255 -221 -255c-39 0 -95 24 -122 52c-2 -22 -2 -39 -29 -39h-78c-21 0 -28 10 -28 30v643c0 18 5 28 24 31l106 14c14 0 20 -8 20 -22v-237c32 26 77 42 122 42c56 0 96 -19 129 -49c53 -48 77 -126 77 -210zM382 242c0 60 -14 131 -88 131
c-30 0 -60 -14 -84 -32v-194c21 -18 52 -36 81 -36c77 0 91 68 91 131z" />
    <glyph glyph-name="c" unicode="c" horiz-adv-x="458" 
d="M437 35c0 -11 -8 -14 -16 -18c-53 -24 -94 -30 -153 -30c-152 0 -245 91 -245 249c0 162 97 265 256 265c47 0 92 -7 139 -27c14 -6 14 -15 11 -29l-16 -72c-2 -10 -7 -14 -13 -14c-4 0 -9 2 -14 4c-28 11 -57 19 -88 19c-78 0 -120 -52 -120 -138
c0 -91 44 -140 113 -140c43 0 62 6 100 21c4 1 7 3 11 3c8 0 12 -6 14 -13c5 -18 21 -64 21 -80z" />
    <glyph glyph-name="d" unicode="d" horiz-adv-x="571" 
d="M511 696v-668c0 -20 -12 -28 -27 -28h-84c-17 0 -25 9 -26 20l-2 21c-25 -27 -79 -54 -127 -54c-145 0 -215 112 -215 248c0 133 71 267 219 267c44 0 85 -15 112 -40v211c0 18 5 28 24 31l106 14c14 0 20 -8 20 -22zM361 145v204c-18 17 -50 32 -79 32
c-73 0 -96 -77 -96 -137c0 -62 17 -135 93 -135c29 0 66 19 82 36z" />
    <glyph glyph-name="e" unicode="e" horiz-adv-x="528" 
d="M504 246v-13c0 -24 -11 -29 -36 -29h-280c12 -63 68 -98 129 -98c44 0 86 10 126 26c4 2 8 3 12 3c9 0 14 -6 16 -14c4 -17 19 -63 19 -78c0 -13 -9 -17 -19 -22c-53 -24 -123 -34 -181 -34c-159 0 -260 98 -260 258c0 155 105 257 259 257c64 0 118 -24 155 -64
c50 -53 60 -122 60 -192zM190 299h167c0 43 -25 87 -77 87c-50 0 -83 -40 -90 -87z" />
    <glyph glyph-name="f" unicode="f" horiz-adv-x="374" 
d="M414 688c0 -6 -2 -17 -3 -24l-8 -51c-3 -19 -12 -22 -28 -17c-24 8 -45 13 -69 13c-54 0 -62 -37 -62 -78v-44h101c14 0 24 -6 24 -21v-58c0 -15 -10 -23 -24 -23h-101v-353c0 -21 -6 -32 -29 -32h-93c-20 0 -28 11 -28 30v355h-50c-24 0 -28 6 -28 33v43
c0 14 8 26 23 26h55v33c0 128 48 214 187 214c35 0 85 -9 118 -24c10 -5 15 -10 15 -22z" />
    <glyph glyph-name="g" unicode="g" horiz-adv-x="572" 
d="M512 459v-420c0 -168 -73 -258 -246 -258c-52 0 -101 9 -154 30c-22 8 -20 21 -15 39l17 56c7 22 16 23 34 16c37 -15 76 -23 110 -23c91 0 104 47 104 108v36c-28 -23 -80 -45 -120 -45c-60 0 -111 19 -148 56c-43 42 -64 107 -64 180c0 135 78 265 225 265
c24 0 46 -5 68 -15c16 -7 37 -23 48 -39l2 22c1 13 9 20 26 20h85c21 0 28 -8 28 -28zM362 156v190c-19 18 -49 32 -78 32c-26 0 -48 -11 -63 -26c-27 -27 -35 -73 -35 -109s8 -76 34 -101c16 -16 40 -22 60 -22c31 0 66 19 82 36z" />
    <glyph glyph-name="h" unicode="h" horiz-adv-x="582" 
d="M522 323v-303c0 -17 -2 -20 -16 -20h-117c-15 0 -18 2 -18 20v276c0 42 -12 70 -57 70c-33 0 -76 -15 -104 -39v-307c0 -17 -3 -20 -20 -20h-114c-13 0 -16 4 -16 18v657c0 21 9 27 25 29l107 13c12 0 18 -6 18 -21v-245c39 33 103 50 153 50c109 0 159 -70 159 -178z
" />
    <glyph glyph-name="i" unicode="i" horiz-adv-x="281" 
d="M221 621c0 -48 -42 -76 -80 -76s-81 27 -81 75c0 49 40 77 81 77c40 0 80 -28 80 -76zM217 461v-432c0 -20 -9 -29 -29 -29h-90c-21 0 -31 7 -31 29v432c0 20 13 26 31 26h90c19 0 29 -5 29 -26z" />
    <glyph glyph-name="j" unicode="j" horiz-adv-x="302" 
d="M242 620c0 -48 -42 -76 -80 -76s-81 26 -81 75c0 50 40 78 81 78c40 0 80 -28 80 -77zM235 462v-440c0 -93 -23 -160 -76 -199c-37 -27 -89 -41 -158 -41c-20 0 -50 4 -76 8c-15 3 -21 9 -21 18c0 4 0 8 1 13l14 71c2 12 6 17 16 17c3 0 6 -1 10 -2c19 -4 38 -5 54 -5
c21 0 50 6 64 21s22 41 22 78v461c0 17 12 25 28 25h95c17 0 27 -7 27 -25z" />
    <glyph glyph-name="k" unicode="k" horiz-adv-x="517" 
d="M502 13c0 -11 -13 -13 -21 -13h-112c-21 0 -35 5 -46 24l-111 199h-2v-195c0 -17 -8 -28 -26 -28h-97c-17 0 -27 10 -27 27v649c0 17 7 26 24 28l106 14c13 0 20 -6 20 -26v-400h2l111 179c9 14 16 16 33 16h108c11 0 17 -5 17 -13c0 -4 -1 -9 -5 -14l-130 -180l148 -245
c4 -7 8 -14 8 -22z" />
    <glyph glyph-name="l" unicode="l" horiz-adv-x="270" 
d="M210 692v-664c0 -19 -10 -28 -26 -28h-97c-15 0 -27 8 -27 27v649c0 20 9 26 24 28l105 13c14 0 21 -9 21 -25z" />
    <glyph glyph-name="m" unicode="m" horiz-adv-x="868" 
d="M808 260v-231c0 -21 -9 -29 -29 -29h-90c-21 0 -31 7 -31 29v268c0 40 -9 72 -54 72c-35 0 -76 -19 -103 -42v-298c0 -21 -9 -29 -29 -29h-82c-21 0 -31 7 -31 29v268c0 40 -9 72 -54 72c-33 0 -67 -17 -95 -42v-298c0 -21 -9 -29 -29 -29h-90c-21 0 -31 7 -31 29v432
c0 18 11 26 28 26h82c17 0 27 -6 29 -21l2 -19c40 34 92 54 143 54c67 0 104 -33 125 -67c45 45 111 67 174 67c78 0 127 -44 145 -85c18 -40 20 -85 20 -156z" />
    <glyph glyph-name="n" unicode="n" horiz-adv-x="579" 
d="M519 323v-293c0 -20 -7 -30 -29 -30h-92c-21 0 -29 11 -29 30v266c0 42 -11 70 -57 70c-33 0 -74 -15 -102 -39v-298c0 -19 -8 -29 -28 -29h-94c-17 0 -28 9 -28 27v431c0 19 7 29 29 29h82c15 0 26 -4 28 -21l2 -21c46 36 101 56 160 56c110 0 158 -69 158 -178z" />
    <glyph glyph-name="o" unicode="o" horiz-adv-x="563" 
d="M533 243c0 -147 -93 -256 -255 -256c-169 0 -248 109 -248 258c0 147 93 256 255 256c169 0 248 -109 248 -258zM378 244c0 74 -21 139 -95 139s-98 -64 -98 -137c0 -74 21 -141 95 -141s98 66 98 139z" />
    <glyph glyph-name="p" unicode="p" horiz-adv-x="571" 
d="M541 252c0 -78 -22 -148 -64 -197c-37 -44 -90 -70 -155 -70c-44 0 -85 15 -112 40v-211c0 -23 -11 -31 -31 -31h-91c-18 0 -28 10 -28 30v646c0 20 10 28 29 28h77c19 0 29 -5 31 -21l2 -20c26 29 80 54 132 54c69 0 114 -27 146 -61c44 -46 64 -118 64 -187zM385 243
c0 45 -9 78 -23 99c-17 26 -43 36 -70 36c-29 0 -66 -19 -82 -36v-204c18 -17 50 -32 79 -32s54 15 67 33c20 27 29 58 29 104z" />
    <glyph glyph-name="q" unicode="q" horiz-adv-x="568" 
d="M508 459v-646c0 -20 -8 -30 -28 -30h-93c-17 0 -29 9 -29 27v218c-29 -23 -73 -42 -113 -42c-55 0 -96 15 -130 42c-59 47 -85 129 -85 217c0 80 25 152 73 199c40 38 89 56 144 56c40 0 96 -18 126 -50l2 21c1 10 8 16 26 16h79c22 0 28 -10 28 -28zM358 146v194
c-23 19 -57 36 -84 36c-73 0 -88 -70 -88 -131c0 -43 8 -80 25 -102c13 -17 32 -29 63 -29c30 0 60 15 84 32z" />
    <glyph glyph-name="r" unicode="r" horiz-adv-x="370" 
d="M302 366c-33 0 -67 -14 -92 -39v-299c0 -18 -8 -28 -28 -28h-94c-18 0 -28 9 -28 28v430c0 24 12 29 29 29h81c19 0 28 -5 29 -20l2 -30c36 43 66 64 125 64c8 0 19 -2 28 -4c13 -3 13 -13 11 -24l-15 -94c-2 -11 -7 -16 -16 -16c-10 0 -15 3 -32 3z" />
    <glyph glyph-name="s" unicode="s" horiz-adv-x="427" 
d="M405 146c0 -115 -102 -159 -201 -159c-53 0 -112 14 -167 37c-11 4 -14 11 -14 18c0 4 1 8 2 12l20 63c4 13 8 18 15 18c4 0 9 -1 16 -4c49 -20 96 -31 132 -31c32 0 54 13 54 35c0 19 -10 29 -47 43l-89 33c-54 20 -102 68 -102 140c0 107 102 150 191 150
c52 0 104 -8 157 -32c9 -4 14 -9 14 -17c0 -3 -1 -7 -2 -11l-21 -70c-2 -8 -9 -12 -17 -12c-3 0 -7 1 -11 2c-38 14 -79 24 -111 24c-33 0 -48 -18 -48 -32c0 -12 4 -25 38 -38l101 -40c51 -20 90 -62 90 -129z" />
    <glyph glyph-name="t" unicode="t" horiz-adv-x="405" 
d="M390 34c0 -11 -5 -16 -16 -21c-38 -17 -82 -26 -128 -26c-56 0 -101 13 -128 45c-32 38 -34 79 -34 161v192h-40c-24 0 -28 6 -28 33v43c0 14 8 26 23 26h46v105c0 20 13 24 31 26l96 12c15 0 22 -8 22 -26v-117h109c14 0 24 -6 24 -21v-58c0 -15 -10 -23 -24 -23h-109
v-195c0 -52 7 -84 51 -84c25 0 44 6 64 12c6 2 10 3 14 3c8 0 12 -5 14 -14l12 -64c1 -3 1 -6 1 -9z" />
    <glyph glyph-name="u" unicode="u" horiz-adv-x="577" 
d="M517 461v-428c0 -25 -7 -33 -31 -33h-81c-14 0 -26 6 -27 20l-2 21c-46 -36 -101 -55 -160 -55c-109 0 -158 70 -158 178v297c0 20 13 26 31 26h90c19 0 29 -5 29 -26v-270c0 -41 12 -70 57 -70c33 0 74 15 102 39v301c0 20 13 26 31 26h90c19 0 29 -5 29 -26z" />
    <glyph glyph-name="v" unicode="v" horiz-adv-x="509" 
d="M501 470c0 -3 -1 -8 -3 -12l-181 -437c-7 -18 -15 -21 -34 -21h-59c-17 0 -28 3 -35 20l-179 443c-1 4 -2 7 -2 10c0 8 6 14 21 14h115c19 0 28 -9 33 -25l63 -203c7 -21 15 -51 20 -72h1c5 18 13 48 20 70l67 205c7 20 15 25 37 25h92c15 0 24 -6 24 -17z" />
    <glyph glyph-name="w" unicode="w" horiz-adv-x="741" 
d="M733 474c0 -3 -1 -7 -2 -10l-133 -436c-5 -18 -15 -28 -37 -28h-83c-21 0 -30 10 -36 30l-73 246h-2l-73 -249c-6 -19 -16 -27 -38 -27h-81c-19 0 -30 12 -35 29l-131 435c-1 3 -1 6 -1 8c0 11 11 15 25 15h105c21 0 29 -9 32 -24l53 -275h1l83 275c5 17 17 24 32 24h69
c19 0 30 -7 34 -21l79 -281h1l59 276c3 16 12 26 33 26h101c15 0 18 -6 18 -13z" />
    <glyph glyph-name="x" unicode="x" horiz-adv-x="535" 
d="M527 16c0 -8 -7 -16 -22 -16h-123c-25 0 -35 7 -44 22l-80 133h-1l-79 -129c-11 -18 -25 -26 -48 -26h-109c-9 0 -13 7 -13 15c0 5 2 10 6 15l173 222l-151 209c-2 3 -3 7 -3 11c0 8 5 15 16 15h130c19 0 30 -7 38 -20l64 -104h1l66 104c9 14 19 20 35 20h111
c11 0 16 -7 16 -14c0 -4 -2 -9 -5 -13l-155 -191l170 -237c4 -5 7 -11 7 -16z" />
    <glyph glyph-name="y" unicode="y" horiz-adv-x="537" 
d="M523 470c0 -3 -1 -7 -2 -11l-198 -514c-46 -119 -106 -163 -236 -163c-23 0 -40 2 -60 6c-19 4 -19 16 -17 32l9 63c3 22 9 22 23 22c11 0 27 -3 39 -3c68 0 87 21 107 64l14 30l-186 464c-1 4 -2 7 -2 10c0 10 8 17 18 17h121c17 0 26 -8 30 -20l95 -297l88 288
c6 20 17 29 37 29h103c10 0 17 -7 17 -17z" />
    <glyph glyph-name="z" unicode="z" horiz-adv-x="453" 
d="M427 81v-58c0 -15 -10 -23 -24 -23h-350c-22 0 -29 11 -29 28v31c0 16 1 23 11 37l200 288l-1 1h-164c-24 0 -28 6 -28 33v43c0 14 8 26 23 26h332c23 0 26 -13 26 -25v-35c0 -15 -2 -26 -11 -38l-204 -286l1 -2h194c14 0 24 -5 24 -20z" />
    <glyph glyph-name="ampersand" unicode="&#x26;" horiz-adv-x="659" 
d="M707 89c0 -3 -1 -6 -2 -10l-21 -73c-4 -13 -10 -18 -23 -18h-6c-72 7 -143 47 -181 86c-65 -56 -138 -88 -220 -88c-128 0 -238 79 -238 209c0 97 76 162 151 206l-24 26c-36 39 -54 74 -54 121c0 98 96 161 195 161s184 -62 184 -158c0 -74 -61 -125 -113 -161l129 -141
c16 19 58 75 63 180c1 18 6 22 22 22h74c17 0 22 -4 22 -18v-2c-4 -135 -49 -212 -97 -267c31 -28 78 -53 123 -63c12 -3 16 -6 16 -12zM390 156l-149 161c-41 -29 -75 -68 -75 -113c0 -58 44 -95 105 -95c44 0 94 20 119 47zM338 550c0 26 -21 48 -52 48
c-29 0 -49 -20 -49 -45c0 -19 7 -32 25 -53l21 -24c19 13 55 48 55 74z" />
    <glyph glyph-name="at" unicode="@" horiz-adv-x="841" 
d="M801 396c0 -114 -81 -243 -206 -243c-44 0 -86 16 -99 62h-2c-28 -36 -64 -60 -111 -60c-86 0 -120 68 -120 146c0 110 74 237 195 237c28 0 60 -15 73 -41c1 6 2 12 4 18c3 10 7 11 18 11h59c7 0 12 -1 12 -9v-7l-51 -205c-4 -14 -7 -30 -7 -45c0 -22 8 -43 33 -43
c50 0 87 60 100 101c8 24 11 49 11 74c0 149 -101 220 -242 220c-171 0 -289 -141 -289 -306c0 -158 102 -229 252 -229c60 0 119 9 176 27c3 1 7 2 10 2c6 0 8 -4 10 -9c4 -11 20 -50 20 -59c0 -7 -5 -10 -10 -13c-63 -29 -149 -38 -217 -38c-200 0 -375 97 -375 316
c0 238 190 405 423 405c187 0 333 -118 333 -312zM477 293l30 130c-9 17 -24 27 -43 27c-56 0 -82 -101 -82 -145c0 -20 10 -51 35 -51c29 0 45 17 60 39z" />
    <glyph glyph-name="exclam" unicode="!" horiz-adv-x="229" 
d="M194 675l-13 -492c0 -14 -4 -21 -20 -21h-70c-18 0 -22 8 -22 23l-13 490v2c0 15 6 17 19 17h99c16 0 20 -5 20 -17v-2zM199 59c0 -45 -40 -71 -75 -71c-36 0 -76 25 -76 70c0 46 38 73 76 73s75 -27 75 -72z" />
    <glyph glyph-name="exclamdown" unicode="&#xa1;" horiz-adv-x="229" 
d="M181 430c0 -46 -38 -72 -76 -72s-75 26 -75 71s40 72 75 72c36 0 76 -26 76 -71zM173 -188c0 -15 -6 -17 -19 -17h-99c-16 0 -20 5 -20 17v2l13 492c0 14 4 20 20 20h70c18 0 22 -7 22 -22l13 -490v-2z" />
    <glyph glyph-name="question" unicode="?" horiz-adv-x="455" 
d="M425 531c0 -57 -30 -105 -70 -145l-74 -74c-24 -24 -41 -46 -41 -96c0 -12 1 -24 2 -36v-4c0 -9 -4 -13 -13 -13h-88c-14 0 -18 6 -21 18c-5 25 -9 49 -9 75c0 57 25 89 53 115l74 70c21 20 45 49 45 78c0 51 -39 71 -85 71c-31 0 -78 -14 -109 -33c-4 -3 -8 -4 -11 -4
c-5 0 -9 4 -11 10l-27 72c-1 3 -2 7 -2 10c0 7 3 12 10 16c53 30 122 48 179 48c105 0 198 -66 198 -178zM259 59c0 -45 -40 -71 -75 -71c-36 0 -76 25 -76 70c0 46 38 73 76 73s75 -27 75 -72z" />
    <glyph glyph-name="questiondown" unicode="&#xbf;" horiz-adv-x="455" 
d="M347 430c0 -46 -38 -72 -76 -72s-75 26 -75 71s40 72 75 72c36 0 76 -26 76 -71zM417 -156c0 -7 -3 -12 -10 -16c-53 -30 -122 -48 -179 -48c-105 0 -198 65 -198 177c0 57 30 106 70 146l74 73c24 24 41 46 41 96c0 12 -1 25 -2 37v4c0 9 4 13 13 13h88
c14 0 18 -6 21 -18c5 -25 8 -49 8 -75c0 -57 -24 -89 -52 -115l-74 -70c-21 -20 -45 -49 -45 -78c0 -51 39 -71 85 -71c31 0 78 14 109 33c4 3 8 4 11 4c5 0 9 -4 11 -10l27 -72c1 -3 2 -7 2 -10z" />
    <glyph glyph-name="asterisk" unicode="*" horiz-adv-x="395" 
d="M345 580c0 -9 -5 -12 -18 -13l-87 -8l63 -56c8 -7 12 -13 12 -18s-4 -10 -12 -17l-41 -33c-9 -7 -15 -10 -19 -10c-6 0 -9 5 -12 13l-34 88l-33 -87c-4 -10 -8 -16 -14 -16c-3 0 -7 2 -12 6l-46 38c-8 7 -12 12 -12 18c0 5 3 11 10 17l65 57l-97 8c-7 1 -10 4 -10 10
c0 3 1 6 2 10l21 66c2 8 8 13 15 13c3 0 7 -1 11 -4l75 -50l-22 92c-1 4 -1 7 -1 10c0 9 5 12 16 12h57c18 0 24 -3 24 -12c0 -2 0 -5 -1 -8l-22 -94l72 48c6 4 12 6 16 6c6 0 10 -4 13 -14l19 -59c2 -5 2 -10 2 -13z" />
    <glyph glyph-name="period" unicode="." horiz-adv-x="231" 
d="M201 63c0 -48 -42 -76 -80 -76s-81 27 -81 75c0 49 40 77 81 77c40 0 80 -28 80 -76z" />
    <glyph glyph-name="comma" unicode="," horiz-adv-x="230" 
d="M200 46c0 -85 -51 -156 -117 -202c-8 -6 -14 -9 -20 -9s-11 4 -17 11l-13 15c-3 4 -5 8 -5 12s3 9 8 14c21 21 46 53 46 77c0 33 -46 60 -46 101c0 46 36 77 80 77c50 0 84 -50 84 -96z" />
    <glyph glyph-name="colon" unicode=":" horiz-adv-x="231" 
d="M201 425c0 -48 -42 -76 -80 -76s-81 27 -81 75c0 49 40 77 81 77c40 0 80 -28 80 -76zM201 63c0 -48 -42 -76 -80 -76s-81 27 -81 75c0 49 40 77 81 77c40 0 80 -28 80 -76z" />
    <glyph glyph-name="semicolon" unicode=";" horiz-adv-x="230" 
d="M199 425c0 -48 -42 -76 -80 -76s-81 27 -81 75c0 49 40 77 81 77c40 0 80 -28 80 -76zM200 46c0 -85 -51 -156 -117 -202c-8 -6 -14 -9 -20 -9s-11 4 -17 11l-13 15c-3 4 -5 8 -5 12s3 9 8 14c21 21 46 53 46 77c0 33 -46 60 -46 101c0 46 36 77 80 77
c50 0 84 -50 84 -96z" />
    <glyph glyph-name="ellipsis" unicode="&#x2026;" horiz-adv-x="1000" 
d="M898 63c0 -48 -42 -76 -80 -76s-81 27 -81 75c0 49 40 77 81 77c40 0 80 -28 80 -76zM579 63c0 -48 -42 -76 -80 -76s-81 27 -81 75c0 49 40 77 81 77c40 0 80 -28 80 -76zM261 63c0 -48 -42 -76 -80 -76s-81 27 -81 75c0 49 40 77 81 77c40 0 80 -28 80 -76z" />
    <glyph glyph-name="periodcentered" unicode="&#xb7;" horiz-adv-x="241" 
d="M201 289c0 -48 -42 -76 -80 -76s-81 27 -81 75c0 49 40 77 81 77c40 0 80 -28 80 -76z" />
    <glyph glyph-name="periodcentered" unicode="&#x2219;" horiz-adv-x="241" 
d="M201 289c0 -48 -42 -76 -80 -76s-81 27 -81 75c0 49 40 77 81 77c40 0 80 -28 80 -76z" />
    <glyph glyph-name="bullet" unicode="&#x2022;" horiz-adv-x="500" 
d="M419 269c0 -88 -76 -159 -169 -159s-169 71 -169 159s76 159 169 159s169 -71 169 -159z" />
    <glyph glyph-name="slash" unicode="/" horiz-adv-x="323" 
d="M342 697c0 -5 -1 -12 -4 -20l-214 -670c-5 -16 -10 -20 -28 -20h-96c-9 0 -15 3 -15 12c0 3 1 8 3 13l216 673c7 21 12 24 34 24h86c13 0 18 -3 18 -12z" />
    <glyph glyph-name="parenleft" unicode="(" horiz-adv-x="328" 
d="M312 675c0 -5 -2 -11 -6 -16c-49 -66 -79 -117 -100 -172c-23 -60 -35 -125 -35 -197c0 -74 13 -139 39 -199c22 -52 54 -100 93 -148c4 -5 7 -10 7 -15c0 -6 -4 -11 -13 -16l-57 -35c-7 -4 -13 -6 -19 -6c-8 0 -14 3 -20 10c-106 128 -169 264 -169 421
c0 154 70 290 173 414c7 8 13 12 20 12c4 0 9 -2 13 -4l65 -35c6 -3 9 -8 9 -14z" />
    <glyph glyph-name="brokenbar" unicode="&#xa6;" horiz-adv-x="247" 
d="M191 683v-232c0 -21 -9 -29 -29 -29h-75c-21 0 -31 7 -31 29v232c0 20 13 26 31 26h75c19 0 29 -5 29 -26zM191 248v-232c0 -21 -9 -29 -29 -29h-75c-21 0 -31 7 -31 29v232c0 20 13 26 31 26h75c19 0 29 -5 29 -26z" />
    <glyph glyph-name="parenright" unicode=")" horiz-adv-x="328" 
d="M296 299c0 -154 -70 -290 -173 -414c-7 -8 -13 -12 -20 -12c-4 0 -9 2 -13 4l-65 35c-6 3 -9 8 -9 14c0 5 2 11 6 16c49 66 79 117 100 172c23 60 35 125 35 197c0 74 -13 139 -39 199c-22 52 -54 100 -93 148c-4 5 -7 10 -7 15c0 6 4 11 13 16l57 35c7 4 13 6 19 6
c8 0 14 -3 20 -10c106 -128 169 -264 169 -421z" />
    <glyph glyph-name="bracketleft" unicode="[" horiz-adv-x="377" 
d="M342 -52v-65c0 -20 -2 -26 -29 -26h-203c-27 0 -30 5 -30 33v784c0 32 6 35 30 35h200c29 0 32 -3 32 -27v-65c0 -19 -4 -24 -27 -24h-85v-621h83c27 0 29 -4 29 -24z" />
    <glyph glyph-name="backslash" unicode="\" horiz-adv-x="346" 
d="M350 -1c0 -9 -5 -12 -18 -12h-86c-22 0 -27 3 -34 24l-216 673c-2 5 -3 10 -3 13c0 9 6 12 15 12h96c18 0 23 -4 28 -20l214 -670c3 -8 4 -15 4 -20z" />
    <glyph glyph-name="bracketright" unicode="]" horiz-adv-x="377" 
d="M297 676v-784c0 -32 -6 -35 -30 -35h-200c-29 0 -32 3 -32 27v65c0 19 4 24 27 24h85v621h-83c-27 0 -29 4 -29 24v65c0 20 2 26 29 26h203c27 0 30 -5 30 -33z" />
    <glyph glyph-name="braceleft" unicode="{" horiz-adv-x="408" 
d="M379 -127c0 -10 -7 -13 -23 -13h-78c-84 0 -150 52 -152 147l-3 133c-1 65 -27 97 -72 102c-19 2 -21 7 -21 19v52c0 14 4 19 19 21c48 5 73 41 74 95l3 140c2 95 73 147 152 147h84c11 0 17 -3 17 -12c0 -2 -1 -4 -1 -7l-10 -56c-2 -11 -5 -15 -15 -15h-22
c-54 0 -57 -37 -58 -64l-3 -133c-2 -90 -83 -137 -126 -140v-2c43 -3 123 -40 126 -147l3 -126c1 -27 4 -64 58 -64h19c15 0 15 -4 18 -18l10 -52c1 -3 1 -5 1 -7z" />
    <glyph glyph-name="bar" unicode="|" horiz-adv-x="247" 
d="M191 695v-691c0 -22 -2 -27 -27 -27h-74c-22 0 -34 2 -34 24v693c0 18 9 25 23 25h84c18 0 28 -8 28 -24z" />
    <glyph glyph-name="braceright" unicode="}" horiz-adv-x="408" 
d="M378 315v-52c0 -14 -4 -19 -19 -21c-48 -5 -73 -41 -74 -95l-3 -140c-2 -95 -73 -147 -152 -147h-84c-11 0 -17 3 -17 12c0 2 1 4 1 7l10 56c2 11 5 15 15 15h22c54 0 57 37 58 64l3 133c2 90 83 137 126 140v2c-43 3 -123 40 -126 147l-3 126c-1 27 -4 64 -58 64h-19
c-15 0 -15 4 -18 18l-10 52c-1 3 -1 5 -1 7c0 10 7 13 23 13h78c84 0 150 -52 152 -147l3 -133c1 -65 27 -97 72 -102c19 -2 21 -7 21 -19z" />
    <glyph glyph-name="hyphen" unicode="-" horiz-adv-x="295" 
d="M265 308v-85c0 -21 -7 -31 -29 -31h-180c-20 0 -26 13 -26 31v85c0 19 5 29 26 29h180c20 0 29 -9 29 -29z" />
    <glyph glyph-name="uni00AD" unicode="&#xad;" horiz-adv-x="295" 
d="M265 308v-85c0 -21 -7 -31 -29 -31h-180c-20 0 -26 13 -26 31v85c0 19 5 29 26 29h180c20 0 29 -9 29 -29z" />
    <glyph glyph-name="endash" unicode="&#x2013;" horiz-adv-x="500" 
d="M500 308v-85c0 -21 -7 -31 -29 -31h-445c-20 0 -26 13 -26 31v85c0 19 5 29 26 29h445c20 0 29 -9 29 -29z" />
    <glyph glyph-name="emdash" unicode="&#x2014;" horiz-adv-x="1000" 
d="M1000 308v-85c0 -21 -7 -31 -29 -31h-945c-20 0 -26 13 -26 31v85c0 19 5 29 26 29h945c20 0 29 -9 29 -29z" />
    <glyph glyph-name="underscore" unicode="_" horiz-adv-x="500" 
d="M500 -101v-20c0 -15 -3 -19 -17 -19h-463c-17 0 -20 4 -20 15v26c0 12 4 15 17 15h463c18 0 20 -3 20 -17z" />
    <glyph glyph-name="dagger" unicode="&#x2020;" horiz-adv-x="510" 
d="M486 454v-83c0 -16 -7 -19 -20 -19h-1l-144 1l-3 -332c0 -17 -3 -21 -20 -21h-91c-14 0 -17 2 -17 22l-4 331l-142 -1h-1c-17 0 -19 4 -19 18v84c0 14 5 17 16 17l146 -1l-3 204v1c0 16 4 20 19 20h103c14 0 19 -5 19 -18l-2 -207l143 1c16 0 21 -6 21 -17z" />
    <glyph glyph-name="daggerdbl" unicode="&#x2021;" horiz-adv-x="510" 
d="M486 520v-83c0 -16 -7 -19 -20 -19h-1l-144 1v-83l134 1h1c16 0 20 -6 20 -17v-83c0 -16 -7 -19 -20 -19h-1l-135 1l-2 -198c0 -17 -3 -21 -20 -21h-91c-14 0 -17 2 -17 22l-2 197l-134 -1h-1c-17 0 -19 4 -19 18v84c0 14 5 17 16 17l137 -1l-1 83l-142 -1h-1
c-17 0 -19 4 -19 18v84c0 14 5 17 16 17l146 -1l-3 138v2c0 15 4 19 19 19h103c14 0 19 -5 19 -17v-1l-2 -141l143 1c16 0 21 -6 21 -17z" />
    <glyph glyph-name="section" unicode="&#xa7;" horiz-adv-x="461" 
d="M422 354c0 -47 -18 -83 -45 -108c26 -23 43 -56 43 -100c0 -115 -102 -159 -201 -159c-53 0 -112 14 -167 37c-10 4 -15 10 -15 17c0 4 1 8 3 13l20 63c4 13 8 18 15 18c4 0 9 -1 16 -4c49 -20 96 -31 132 -31c32 0 54 13 54 35c0 19 -10 29 -47 43l-89 33
c-54 20 -102 68 -102 140c0 45 19 79 47 103c-27 25 -45 61 -45 105c0 107 102 150 191 150c52 0 102 -7 157 -32c6 -3 14 -6 14 -14c0 -4 0 -9 -2 -14l-21 -72c-3 -9 -8 -12 -14 -12s-13 3 -18 5c-34 14 -76 23 -106 23c-33 0 -49 -18 -49 -32c0 -12 4 -25 38 -38l101 -40
c51 -20 90 -62 90 -129zM289 340c0 19 -20 34 -57 46l-30 10c-14 -9 -21 -20 -21 -35c0 -18 13 -33 47 -46l34 -13c14 8 27 23 27 38z" />
    <glyph glyph-name="paragraph" unicode="&#xb6;" horiz-adv-x="546" 
d="M486 665v-783c0 -14 -5 -23 -20 -23h-41c-15 0 -20 7 -20 24v685h-75v-679c0 -20 -6 -30 -26 -30h-99c-19 0 -25 5 -25 29v446c-87 17 -155 88 -155 178c0 104 89 182 191 182h240c23 0 30 -7 30 -29z" />
    <glyph glyph-name="registered" unicode="&#xae;" horiz-adv-x="830" 
d="M780 348c0 -199 -166 -361 -365 -361c-210 0 -365 162 -365 361s159 361 365 361c199 0 365 -162 365 -361zM669 348c0 147 -108 264 -254 264c-147 0 -254 -117 -254 -264s107 -264 254 -264c146 0 254 117 254 264zM574 181c0 -6 -6 -8 -10 -8h-59c-10 0 -18 2 -24 11
l-69 106h-28v-101c0 -9 -4 -16 -15 -16h-52c-11 0 -16 5 -16 16v316c0 15 3 19 18 19c25 1 51 2 76 2c43 0 95 -6 126 -41c18 -21 27 -48 27 -75c0 -45 -19 -82 -59 -103l82 -116c2 -3 3 -7 3 -10zM464 408c0 38 -27 53 -62 53h-18v-108h24c36 0 56 19 56 55z" />
    <glyph glyph-name="copyright" unicode="&#xa9;" horiz-adv-x="830" 
d="M780 348c0 -199 -166 -361 -365 -361c-210 0 -365 162 -365 361s159 361 365 361c199 0 365 -162 365 -361zM669 348c0 147 -108 264 -254 264c-147 0 -254 -117 -254 -264s107 -264 254 -264c146 0 254 117 254 264zM536 499c0 -3 -1 -5 -2 -8l-14 -42
c-2 -6 -6 -9 -10 -9c-2 0 -4 1 -7 2c-26 13 -49 17 -72 17c-47 0 -81 -40 -81 -110c0 -78 37 -112 85 -112c23 0 44 4 67 14c3 1 5 2 8 2c6 0 9 -2 11 -9l12 -37c1 -3 2 -6 2 -9c0 -6 -3 -10 -10 -13c-35 -13 -63 -19 -102 -19c-107 0 -162 73 -162 181
c0 109 66 184 168 184c36 0 67 -8 96 -21c7 -3 11 -6 11 -11z" />
    <glyph glyph-name="trademark" unicode="&#x2122;" horiz-adv-x="837" 
d="M707 415c0 -11 -6 -19 -18 -19h-45c-17 0 -21 11 -21 24l-3 109l-48 -119c-5 -12 -14 -14 -21 -14h-19c-10 0 -17 2 -22 14l-57 122l-2 -116c0 -17 -10 -20 -21 -20h-38c-12 0 -21 6 -21 19v2l15 257c1 14 8 20 20 20h31c13 0 19 -5 24 -15l82 -172l74 172
c4 9 11 15 23 15h31c12 0 18 -6 19 -17l17 -260v-2zM356 694c12 0 18 -8 17 -18l-4 -32c-2 -14 -11 -17 -21 -17h-60v-213c0 -12 -4 -18 -17 -18h-53c-13 0 -17 5 -17 17v214h-63c-13 0 -18 8 -18 19v31c0 11 7 17 18 17h218z" />
    <glyph glyph-name="quotedblleft" unicode="&#x201c;" horiz-adv-x="480" 
d="M430 671c0 -4 -3 -9 -8 -14c-21 -21 -46 -53 -46 -77c0 -33 46 -60 46 -101c0 -46 -36 -77 -80 -77c-50 0 -84 50 -84 96c0 85 51 157 117 203c8 6 14 8 20 8s11 -4 17 -11l13 -15c3 -4 5 -8 5 -12zM227 671c0 -4 -3 -9 -8 -14c-21 -21 -46 -53 -46 -77
c0 -33 46 -60 46 -101c0 -46 -36 -77 -80 -77c-50 0 -84 50 -84 96c0 85 51 157 117 203c8 6 14 8 20 8s11 -4 17 -11l13 -15c3 -4 5 -8 5 -12z" />
    <glyph glyph-name="quotedblright" unicode="&#x201d;" horiz-adv-x="480" 
d="M425 598c0 -85 -51 -156 -117 -202c-8 -6 -14 -9 -20 -9s-10 4 -16 11l-14 15c-3 4 -5 8 -5 12s3 9 8 14c21 21 46 53 46 77c0 33 -46 60 -46 101c0 46 36 77 80 77c50 0 84 -50 84 -96zM222 598c0 -85 -51 -156 -117 -202c-8 -6 -14 -9 -20 -9s-10 4 -16 11l-14 15
c-3 4 -5 8 -5 12s3 9 8 14c21 21 46 53 46 77c0 33 -46 60 -46 101c0 46 36 77 80 77c50 0 84 -50 84 -96z" />
    <glyph glyph-name="quoteleft" unicode="&#x2018;" horiz-adv-x="360" 
d="M273 671c0 -4 -3 -9 -8 -14c-21 -21 -46 -53 -46 -77c0 -33 46 -60 46 -101c0 -46 -36 -77 -80 -77c-50 0 -84 50 -84 96c0 85 51 157 117 203c8 6 14 8 20 8s11 -4 17 -11l13 -15c3 -4 5 -8 5 -12z" />
    <glyph glyph-name="quoteright" unicode="&#x2019;" horiz-adv-x="360" 
d="M259 613c0 -85 -51 -156 -117 -202c-8 -6 -14 -9 -20 -9s-10 4 -16 11l-14 15c-3 4 -5 8 -5 12s3 9 8 14c21 21 46 53 46 77c0 33 -46 60 -46 101c0 46 36 77 80 77c50 0 84 -50 84 -96z" />
    <glyph glyph-name="guillemotleft" unicode="&#xab;" horiz-adv-x="459" 
d="M428 349c0 -3 -1 -5 -3 -8l-79 -111l76 -112c3 -4 4 -9 4 -13c0 -7 -4 -14 -15 -20l-41 -23c-7 -4 -12 -5 -16 -5c-9 0 -15 7 -21 14l-110 141c-5 6 -7 13 -7 19c0 7 3 13 7 18l112 138c7 9 13 13 20 13c3 0 6 -1 10 -3l49 -28c7 -4 14 -12 14 -20zM239 349
c0 -3 -1 -5 -3 -8l-79 -111l76 -112c3 -4 4 -9 4 -13c0 -7 -4 -14 -15 -20l-41 -23c-7 -4 -12 -5 -16 -5c-9 0 -15 7 -21 14l-110 141c-5 6 -7 12 -7 18c0 7 3 13 8 19l111 138c7 9 13 13 20 13c3 0 6 -1 10 -3l49 -28c7 -4 14 -12 14 -20z" />
    <glyph glyph-name="guillemotright" unicode="&#xbb;" horiz-adv-x="459" 
d="M432 229c0 -7 -2 -13 -7 -19l-111 -138c-7 -9 -13 -13 -20 -13c-3 0 -6 1 -10 3l-49 28c-7 4 -14 12 -14 20c0 3 1 5 3 8l78 111l-75 112c-3 4 -5 9 -5 13c0 7 5 14 16 20l41 23c7 4 12 5 16 5c9 0 14 -7 20 -14l111 -141c5 -6 6 -12 6 -18zM243 229c0 -7 -2 -13 -7 -19
l-111 -138c-7 -9 -13 -13 -20 -13c-3 0 -6 1 -10 3l-49 28c-7 4 -14 12 -14 20c0 3 1 5 3 8l79 111l-76 112c-3 4 -5 9 -5 13c0 7 5 14 16 20l41 23c7 4 12 5 16 5c9 0 15 -7 21 -14l110 -141c5 -6 6 -12 6 -18z" />
    <glyph glyph-name="guilsinglleft" unicode="&#x2039;" horiz-adv-x="271" 
d="M239 349c0 -3 -1 -5 -3 -8l-79 -111l76 -112c3 -4 4 -9 4 -13c0 -7 -4 -14 -15 -20l-41 -23c-7 -4 -12 -5 -16 -5c-9 0 -15 7 -21 14l-110 141c-5 6 -7 12 -7 18c0 7 3 13 8 19l111 138c7 9 13 13 20 13c3 0 6 -1 10 -3l49 -28c7 -4 14 -12 14 -20z" />
    <glyph glyph-name="guilsinglright" unicode="&#x203a;" horiz-adv-x="271" 
d="M243 229c0 -7 -2 -13 -7 -19l-111 -138c-7 -9 -13 -13 -20 -13c-3 0 -6 1 -10 3l-49 28c-7 4 -14 12 -14 20c0 3 1 5 3 8l79 111l-76 112c-3 4 -5 9 -5 13c0 7 5 14 16 20l41 23c7 4 12 5 16 5c9 0 15 -7 21 -14l110 -141c5 -6 6 -12 6 -18z" />
    <glyph glyph-name="quotesinglbase" unicode="&#x201a;" horiz-adv-x="360" 
d="M259 46c0 -85 -51 -156 -117 -202c-8 -6 -14 -9 -20 -9s-11 4 -17 11l-13 15c-3 4 -5 8 -5 12s3 9 8 14c21 21 46 53 46 77c0 33 -46 60 -46 101c0 46 36 77 80 77c50 0 84 -50 84 -96z" />
    <glyph glyph-name="quotedblbase" unicode="&#x201e;" horiz-adv-x="480" 
d="M425 46c0 -85 -51 -156 -117 -202c-8 -6 -14 -9 -20 -9s-10 4 -16 11l-14 15c-3 4 -5 8 -5 12s3 9 8 14c21 21 46 53 46 77c0 33 -46 60 -46 101c0 46 36 77 80 77c50 0 84 -50 84 -96zM222 46c0 -85 -51 -156 -117 -202c-8 -6 -14 -9 -20 -9s-10 4 -16 11l-14 15
c-3 4 -5 8 -5 12s3 9 8 14c21 21 46 53 46 77c0 33 -46 60 -46 101c0 46 36 77 80 77c50 0 84 -50 84 -96z" />
    <glyph glyph-name="ordfeminine" unicode="&#xaa;" horiz-adv-x="345" 
d="M305 590v-170c0 -9 -3 -12 -12 -12h-65c-12 0 -12 9 -13 18c-22 -15 -49 -25 -76 -25s-53 8 -71 25c-16 15 -28 38 -28 66c0 42 25 70 56 85c34 17 74 22 111 22v7c0 16 -10 29 -39 29c-22 0 -51 -6 -83 -21c-2 -1 -3 -1 -5 -1c-4 0 -8 3 -9 7l-15 46c0 2 -1 3 -1 4
c0 4 3 8 7 10c37 20 85 29 116 29c79 0 127 -38 127 -119zM207 492v40c-20 0 -68 -3 -68 -33c0 -13 9 -22 28 -22c14 0 29 7 40 15z" />
    <glyph glyph-name="ordmasculine" unicode="&#xba;" horiz-adv-x="390" 
d="M350 554c0 -88 -57 -153 -157 -153c-104 0 -153 65 -153 154c0 88 57 154 157 154c104 0 153 -66 153 -155zM249 555c0 43 -12 77 -53 77s-55 -34 -55 -76c0 -43 12 -79 53 -79s55 35 55 78z" />
    <glyph glyph-name="zero" unicode="0" 
d="M545 348c0 -214 -78 -361 -255 -361s-258 142 -258 356c0 212 89 365 260 365c177 0 253 -148 253 -360zM381 349c0 179 -38 222 -88 222c-59 0 -97 -53 -97 -222c0 -173 32 -224 94 -224c63 0 91 52 91 224z" />
    <glyph glyph-name="one" unicode="1" 
d="M448 667v-633c0 -28 -11 -34 -37 -34h-83c-32 0 -39 3 -39 33v486l-133 -71c-7 -4 -14 -7 -20 -7c-12 0 -20 10 -27 24l-27 55c-3 6 -4 11 -4 16c0 11 5 18 20 26l208 119c18 10 31 13 53 13h61c18 0 28 -6 28 -27z" />
    <glyph glyph-name="two" unicode="2" 
d="M528 507c0 -122 -129 -234 -217 -307c-31 -26 -59 -49 -80 -68c13 4 249 4 249 4c23 0 34 -10 34 -33v-68c0 -23 -9 -35 -34 -35h-404c-29 0 -38 9 -38 38v60c0 25 4 36 22 53c69 68 146 133 206 193c61 60 103 113 103 156c0 54 -40 75 -90 75c-43 0 -97 -17 -144 -45
c-7 -4 -14 -7 -20 -7c-9 0 -16 6 -21 17l-30 64c-2 5 -4 11 -4 16c0 10 6 17 18 24c63 38 138 65 221 65c135 0 229 -72 229 -202z" />
    <glyph glyph-name="three" unicode="3" 
d="M512 208c0 -138 -127 -221 -261 -221c-81 0 -144 16 -194 42c-15 8 -23 16 -23 29c0 21 24 74 25 77c4 12 10 20 22 20c6 0 12 -2 19 -5c41 -19 89 -33 142 -33c74 0 117 42 117 98c0 86 -96 99 -157 99h-10c-24 0 -30 16 -30 35v48c0 21 6 33 30 33h36
c64 0 102 24 102 81c0 42 -32 71 -85 71c-41 0 -86 -12 -129 -36c-7 -4 -13 -7 -19 -7c-10 0 -17 7 -21 18l-22 58c-2 6 -4 11 -4 16c0 9 5 17 15 23c59 37 124 55 203 55c111 0 215 -59 215 -182c0 -73 -44 -132 -102 -151c64 -18 131 -79 131 -168z" />
    <glyph glyph-name="four" unicode="4" 
d="M514 425v-395c0 -23 -17 -30 -36 -30h-90c-21 0 -33 6 -33 30v111h-307c-30 0 -33 18 -33 38v47c0 21 2 33 14 57l188 380c11 23 20 31 44 31h84c21 0 29 -10 29 -21c0 -7 -3 -13 -5 -17l-182 -382h168v151c0 23 16 30 35 30h90c21 0 34 -6 34 -30z" />
    <glyph glyph-name="five" unicode="5" 
d="M541 225c0 -153 -121 -238 -274 -238c-73 0 -144 17 -205 50c-12 6 -19 14 -19 24c0 6 1 11 4 18l30 66c4 8 10 17 21 17c6 0 12 -2 19 -6c51 -27 105 -40 155 -40c65 0 113 41 113 101c0 32 -13 62 -35 81c-29 25 -67 34 -116 34h-98c-28 0 -38 16 -38 45v275
c0 33 13 42 40 42h340c23 0 34 -10 34 -33v-66c0 -23 -9 -35 -34 -35h-222v-111h7c147 0 278 -65 278 -224z" />
    <glyph glyph-name="six" unicode="6" 
d="M347 709c35 0 88 -6 124 -16c21 -6 25 -14 21 -35l-15 -71c-4 -14 -14 -25 -30 -20c-27 5 -54 12 -82 12c-48 0 -81 -12 -107 -38c-27 -28 -42 -67 -48 -112c30 17 76 29 112 29c127 0 220 -67 220 -215c0 -135 -90 -256 -246 -256c-201 0 -261 162 -261 316
c0 184 79 406 312 406zM383 233c0 55 -26 97 -83 97c-34 0 -81 -16 -103 -39v-13c0 -105 33 -161 100 -161c58 0 86 59 86 116z" />
    <glyph glyph-name="seven" unicode="7" 
d="M538 661v-62c0 -19 -2 -30 -13 -51l-258 -517c-14 -28 -28 -31 -55 -31h-114c-12 0 -24 7 -24 21c0 6 1 13 5 20l269 517h-256c-24 0 -30 16 -30 35v68c0 21 6 33 30 33h412c23 0 34 -10 34 -33z" />
    <glyph glyph-name="eight" unicode="8" 
d="M545 210c0 -141 -124 -223 -261 -223c-136 0 -256 69 -256 212c0 25 8 57 22 83c23 41 63 75 96 92c-48 26 -88 83 -88 145c0 124 105 190 231 190c122 0 223 -63 223 -188c0 -63 -45 -118 -92 -146c64 -26 125 -91 125 -165zM359 514c0 40 -31 71 -76 71
c-37 0 -73 -30 -73 -65c0 -39 41 -77 81 -95c33 21 68 45 68 89zM388 206c0 54 -63 93 -112 110c-39 -23 -92 -60 -92 -110c0 -54 44 -95 103 -95s101 36 101 95z" />
    <glyph glyph-name="nine" unicode="9" 
d="M539 393c0 -184 -80 -406 -313 -406c-35 0 -88 6 -124 16c-15 4 -26 13 -23 26l17 80c3 12 9 21 22 21c2 0 5 0 8 -1c27 -5 54 -12 82 -12c48 0 81 12 107 38c27 28 42 67 48 112c-33 -19 -76 -29 -112 -29c-127 0 -219 67 -219 215c0 135 89 256 245 256
c201 0 262 -162 262 -316zM376 405v13c0 105 -33 161 -100 161c-51 0 -85 -46 -85 -116c0 -57 29 -97 82 -97c50 0 85 21 103 39z" />
    <glyph glyph-name="dollar" unicode="$" 
d="M522 206c0 -125 -87 -199 -199 -216v-71c0 -16 0 -21 -19 -21h-31c-18 0 -18 7 -18 21v67c-61 2 -131 15 -191 36c-16 5 -21 12 -21 21c0 5 2 11 4 17l23 78c3 11 8 19 21 19c5 0 10 -1 17 -4c43 -16 99 -30 147 -33v177l-90 39c-75 33 -121 93 -121 177
c0 116 104 183 211 194v79c0 12 6 16 15 16h36c14 0 17 -4 17 -17v-77c56 -4 106 -16 159 -39c16 -7 21 -14 21 -23c0 -4 -1 -9 -3 -15l-28 -75c-3 -9 -8 -17 -19 -17c-5 0 -11 1 -18 4c-31 14 -74 27 -112 33v-160l54 -24c79 -35 145 -95 145 -186zM255 446v129
c-30 -8 -57 -27 -57 -62c0 -30 19 -49 57 -67zM374 196c0 34 -24 57 -51 71v-137c28 12 51 35 51 66z" />
    <glyph glyph-name="cent" unicode="&#xa2;" 
d="M446 35c0 -11 -9 -14 -17 -18c-37 -17 -68 -25 -104 -28v-72c0 -14 -5 -19 -22 -19h-26c-16 0 -20 5 -20 22v67c-141 8 -233 98 -233 249c0 152 90 253 233 264v71c0 17 1 19 19 19h30c17 0 19 -4 19 -19v-72c34 -3 68 -11 101 -25c9 -4 14 -8 14 -18c0 -4 -1 -7 -2 -11
l-16 -72c-2 -10 -8 -14 -14 -14c-4 0 -9 2 -14 4c-20 8 -45 14 -69 17v-275c26 2 46 9 74 20c4 1 8 3 12 3c8 0 11 -6 13 -13c5 -18 22 -64 22 -80zM257 109v267c-45 -13 -78 -53 -78 -133c0 -79 31 -121 78 -134z" />
    <glyph glyph-name="Euro" unicode="&#x20ac;" 
d="M579 649c0 -4 -1 -9 -3 -14l-37 -83c-4 -10 -9 -15 -16 -15c-3 0 -7 2 -12 4c-47 25 -75 33 -117 33c-88 0 -136 -58 -148 -165h239c15 0 20 -4 20 -12c0 -3 0 -6 -1 -9l-6 -25c-4 -18 -17 -18 -35 -18h-220c0 -14 1 -28 2 -41h205c16 0 23 -1 23 -11c0 -2 0 -6 -1 -9
l-6 -24c-3 -14 -8 -20 -33 -20h-178c21 -81 64 -117 136 -117c41 0 73 8 120 27c6 2 11 4 15 4c9 0 14 -4 18 -16l24 -75c2 -6 3 -11 3 -16c0 -10 -4 -17 -18 -22c-69 -26 -121 -38 -189 -38c-176 0 -258 97 -283 253h-70c-20 0 -21 6 -21 24v19c0 18 3 21 22 21h62
c-1 12 -1 25 -1 41h-53c-17 0 -20 3 -20 19v25c0 19 3 20 21 20h56c21 180 128 300 308 300c66 0 119 -14 175 -40c14 -7 19 -13 19 -20z" />
    <glyph glyph-name="florin" unicode="&#x192;" 
d="M614 670c0 -2 0 -4 -1 -7c-1 -6 -4 -17 -7 -24l-18 -51c-4 -11 -9 -19 -19 -19c-4 0 -8 1 -12 2c-21 8 -43 13 -67 13c-54 0 -71 -49 -79 -90l-22 -112h90c20 0 22 -2 22 -20v-21c0 -22 -4 -23 -23 -23h-101l-58 -300c-25 -128 -90 -214 -229 -214c-35 0 -83 9 -113 24
c-8 4 -12 8 -12 16c0 2 1 4 1 6c1 6 4 17 7 24l19 51c4 11 8 19 18 19c4 0 9 -1 13 -2c21 -8 42 -13 66 -13c44 0 72 44 83 104l54 285h-76c-20 0 -21 6 -21 24v19c0 18 3 21 22 21h87l22 113c25 128 90 214 229 214c35 0 84 -9 114 -24c7 -4 11 -8 11 -15z" />
    <glyph glyph-name="sterling" unicode="&#xa3;" 
d="M527 102v-74c0 -19 -9 -28 -28 -28h-442c-17 0 -28 10 -28 29v55c0 19 5 28 19 32c51 15 69 49 69 105v29h-48c-20 0 -21 6 -21 24v19c0 18 3 21 22 21h47v43h-49c-17 0 -20 3 -20 19v25c0 19 3 20 21 20h48v55c0 133 75 233 228 233c45 0 104 -7 154 -31
c13 -6 20 -12 20 -22c0 -4 -1 -8 -3 -14l-22 -60c-4 -11 -8 -15 -15 -15c-4 0 -10 2 -17 5c-35 18 -68 24 -100 24c-62 0 -95 -48 -95 -113v-62h130c20 0 23 -4 23 -18v-27c0 -18 -5 -19 -23 -19h-131v-43h132c20 0 22 -2 22 -20v-21c0 -22 -4 -23 -23 -23h-131v-6
c0 -52 -10 -90 -45 -113v-2h277c18 0 29 -8 29 -27z" />
    <glyph glyph-name="yen" unicode="&#xa5;" 
d="M585 680c0 -3 -1 -7 -4 -12l-197 -348h67c20 0 23 -4 23 -18v-27c0 -18 -5 -19 -23 -19h-80v-43h83c20 0 22 -2 22 -20v-21c0 -22 -4 -23 -23 -23h-82v-122c0 -17 -9 -27 -27 -27h-105c-17 0 -27 10 -27 29v120h-87c-20 0 -21 6 -21 24v19c0 18 3 21 22 21h86v43h-90
c-17 0 -20 3 -20 19v25c0 19 3 20 21 20h72l-202 347c-2 3 -3 7 -3 10c0 10 8 17 19 17h121c19 0 32 -7 39 -21l129 -249h2l129 249c8 15 18 21 38 21h97c12 0 21 -4 21 -14z" />
    <glyph glyph-name="numbersign" unicode="#" 
d="M580 477l-8 -78c-1 -14 -5 -16 -22 -16h-95l-13 -88h93c10 0 15 -3 15 -13v-4l-9 -76c-2 -15 -7 -17 -19 -17h-97l-25 -166c-2 -13 -6 -19 -18 -19h-97c-12 0 -17 4 -17 13c0 2 1 4 1 7l27 165h-71l-28 -167c-2 -12 -9 -18 -21 -18h-91c-11 0 -18 5 -18 16v5l26 164h-88
c-10 0 -15 3 -15 13v6l11 75c2 12 7 16 21 16h91l13 88h-92c-10 0 -13 2 -13 11v7l9 76c2 13 7 17 19 17h96l27 185c2 12 4 15 17 15h95c14 0 19 -3 19 -11c0 -2 -1 -4 -1 -6l-28 -183h69l27 183c2 13 4 17 18 17h101c9 0 12 -3 12 -10v-5l-27 -185h94c9 0 12 -2 12 -11v-6z
M313 295l12 88h-69l-13 -88h70z" />
    <glyph glyph-name="percent" unicode="%" horiz-adv-x="1000" 
d="M803 654c0 -4 -2 -9 -6 -14l-504 -653c-4 -6 -7 -9 -12 -9s-12 4 -23 12l-53 41c-7 5 -10 10 -10 16s3 12 10 21l492 641c5 6 10 10 16 10c5 0 12 -2 21 -9l56 -39c8 -6 13 -11 13 -17zM857 161c0 -96 -55 -174 -158 -174s-160 75 -160 173s59 176 162 176
c105 0 156 -78 156 -175zM454 536c0 -96 -55 -174 -158 -174s-160 75 -160 173s59 176 162 176c105 0 156 -78 156 -175zM735 148v20c0 24 -2 70 -36 70c-32 0 -37 -33 -37 -58v-38c0 -26 5 -58 38 -58c31 0 35 41 35 64zM332 523v20c0 24 -2 69 -36 69
c-32 0 -37 -32 -37 -57v-38c0 -26 5 -58 38 -58c31 0 35 41 35 64z" />
    <glyph glyph-name="perthousand" unicode="&#x2030;" horiz-adv-x="1000" 
d="M641 654c0 -4 -2 -9 -6 -14l-504 -653c-4 -6 -7 -9 -12 -9s-12 4 -23 12l-53 41c-7 5 -10 10 -10 16s3 12 10 21l492 641c5 6 10 10 16 10c5 0 12 -2 21 -9l56 -39c8 -6 13 -11 13 -17zM659 152c0 -92 -52 -165 -150 -165s-152 71 -152 164s57 168 154 168
c99 0 148 -74 148 -167zM992 152c0 -92 -52 -165 -150 -165s-152 71 -152 164s57 168 154 168c99 0 148 -74 148 -167zM309 543c0 -92 -52 -166 -150 -166s-152 72 -152 165s57 167 154 167c99 0 148 -73 148 -166zM543 140v19c0 23 -2 66 -34 66c-30 0 -35 -31 -35 -55v-36
c0 -25 5 -55 36 -55c30 0 33 39 33 61zM876 140v19c0 23 -2 66 -34 66c-30 0 -35 -31 -35 -55v-36c0 -25 5 -55 36 -55c30 0 33 39 33 61zM193 530v19c0 23 -2 66 -34 66c-30 0 -35 -30 -35 -54v-36c0 -25 5 -55 36 -55c30 0 33 38 33 60z" />
    <glyph glyph-name="plus" unicode="+" horiz-adv-x="533" 
d="M499 301v-71c0 -21 -7 -31 -29 -31h-130v-144c0 -20 -13 -26 -31 -26h-87c-19 0 -29 5 -29 26v144h-133c-20 0 -26 13 -26 31v71c0 19 5 29 26 29h133v141c0 20 9 29 29 29h87c21 0 31 -7 31 -29v-141h130c20 0 29 -9 29 -29z" />
    <glyph glyph-name="minus" unicode="&#x2212;" horiz-adv-x="533" 
d="M499 301v-71c0 -21 -7 -31 -29 -31h-410c-20 0 -26 13 -26 31v71c0 19 5 29 26 29h410c20 0 29 -9 29 -29z" />
    <glyph glyph-name="multiply" unicode="&#xd7;" horiz-adv-x="533" 
d="M475 151c0 -8 -5 -16 -12 -23l-61 -61c-8 -8 -15 -12 -22 -12c-6 0 -11 3 -17 9l-102 102l-94 -94c-6 -6 -12 -8 -18 -8c-8 0 -16 5 -23 12l-50 50c-7 7 -12 14 -12 21c0 6 3 11 10 18l94 94l-99 100c-7 7 -11 14 -11 21s4 13 11 20l61 61c8 8 14 12 21 12
c6 0 14 -4 21 -11l100 -99l92 92c7 7 13 11 20 11s14 -4 21 -11l50 -50c8 -8 12 -15 12 -23c0 -6 -3 -13 -10 -20l-92 -92l102 -102c6 -6 8 -11 8 -17z" />
    <glyph glyph-name="less" unicode="&#x3c;" horiz-adv-x="533" 
d="M470 488c0 -6 -3 -12 -11 -17l-207 -130l202 -129c10 -7 15 -13 15 -20c0 -4 -2 -9 -5 -14l-48 -78c-6 -10 -12 -15 -19 -15c-6 0 -12 3 -21 9l-294 196c-10 7 -17 14 -17 31v32c0 16 11 24 21 31l307 194c7 5 12 7 17 7s10 -3 14 -11l42 -73c3 -5 4 -9 4 -13z" />
    <glyph glyph-name="divide" unicode="&#xf7;" horiz-adv-x="533" 
d="M499 301v-71c0 -21 -7 -31 -29 -31h-410c-20 0 -26 13 -26 31v71c0 19 5 29 26 29h410c20 0 29 -9 29 -29zM348 93c0 -48 -42 -76 -80 -76s-81 27 -81 75c0 49 40 77 81 77c40 0 80 -28 80 -76zM348 437c0 -48 -42 -76 -80 -76s-81 27 -81 75c0 49 40 77 81 77
c40 0 80 -28 80 -76z" />
    <glyph glyph-name="equal" unicode="=" horiz-adv-x="533" 
d="M463 370v-58c0 -21 -7 -31 -29 -31h-340c-20 0 -26 13 -26 31v58c0 19 5 29 26 29h340c20 0 29 -9 29 -29zM463 214v-58c0 -21 -7 -31 -29 -31h-340c-20 0 -26 13 -26 31v58c0 19 5 29 26 29h340c20 0 29 -9 29 -29z" />
    <glyph glyph-name="logicalnot" unicode="&#xac;" horiz-adv-x="533" 
d="M500 385v-192c0 -23 -9 -35 -32 -35h-78c-22 0 -28 10 -28 33v110h-303c-25 0 -29 8 -29 27v64c0 17 8 24 27 24h407c29 0 36 -7 36 -31z" />
    <glyph glyph-name="greater" unicode="&#x3e;" horiz-adv-x="533" 
d="M468 351v-32c0 -16 -11 -24 -21 -31l-307 -194c-7 -5 -12 -7 -17 -7s-10 3 -14 11l-42 73c-3 5 -4 9 -4 13c0 6 3 12 11 17l207 130l-202 129c-10 7 -15 13 -15 20c0 4 2 9 5 14l48 78c6 10 12 15 19 15c6 0 12 -3 21 -9l294 -196c10 -7 17 -14 17 -31z" />
    <glyph glyph-name="notequal" unicode="&#x2260;" horiz-adv-x="533" 
d="M104 83l26 42h-50c-20 0 -26 13 -26 31v58c0 19 5 29 26 29h122l24 38h-146c-20 0 -26 13 -26 31v58c0 19 5 29 26 29h218l51 82c10 17 23 22 40 10l20 -12c18 -10 21 -24 12 -41l-24 -39h53c20 0 29 -9 29 -29v-58c0 -21 -7 -31 -29 -31h-125l-24 -38h149
c20 0 29 -9 29 -29v-58c0 -21 -7 -31 -29 -31h-221l-53 -86c-11 -17 -24 -15 -41 -6l-20 12c-17 11 -22 20 -11 38z" />
    <glyph glyph-name="approxequal" unicode="&#x2248;" horiz-adv-x="533" 
d="M268 81l-31 22c-25 17 -45 29 -62 29c-19 0 -34 -15 -50 -50c-8 -16 -25 -17 -41 -3l-40 36c-13 14 -13 24 -5 45c32 78 70 123 123 123c27 0 57 -12 92 -36l38 -26c26 -18 48 -26 67 -26c29 0 53 18 82 54c12 14 25 17 39 1l33 -38c13 -14 15 -25 5 -45
c-39 -71 -97 -115 -161 -115c-29 0 -59 9 -89 29zM280 309l-38 26c-26 18 -48 27 -68 27c-28 0 -52 -19 -81 -55c-11 -14 -24 -16 -39 -1l-33 38c-13 14 -15 25 -5 45c38 70 97 115 161 115c30 0 61 -10 91 -32l32 -23c24 -17 43 -27 59 -27c20 0 36 16 50 54
c7 17 23 19 39 5l42 -40c14 -14 14 -24 5 -45c-32 -78 -69 -123 -122 -123c-27 0 -57 12 -93 36z" />
    <glyph glyph-name="plusminus" unicode="&#xb1;" horiz-adv-x="533" 
d="M499 458v-71c0 -21 -7 -31 -29 -31h-130v-144c0 -20 -13 -26 -31 -26h-87c-19 0 -29 5 -29 26v144h-133c-20 0 -26 13 -26 31v71c0 19 5 29 26 29h133v141c0 20 9 29 29 29h87c21 0 31 -7 31 -29v-141h130c20 0 29 -9 29 -29zM439 116v-85c0 -21 -7 -31 -29 -31h-280
c-20 0 -26 13 -26 31v85c0 19 5 29 26 29h280c20 0 29 -9 29 -29z" />
    <glyph glyph-name="lessequal" unicode="&#x2264;" horiz-adv-x="533" 
d="M469 252c0 -4 -2 -9 -5 -14l-48 -78c-6 -10 -12 -15 -19 -15c-6 0 -12 3 -21 9l-294 196c-10 7 -17 14 -17 31v32c0 16 11 24 21 31l307 194c7 5 12 7 17 7s10 -3 14 -11l42 -73c3 -5 4 -9 4 -13c0 -6 -3 -12 -11 -17l-207 -130l202 -129c10 -7 15 -13 15 -20zM463 89
v-58c0 -21 -7 -31 -29 -31h-340c-20 0 -26 13 -26 31v58c0 19 5 29 26 29h340c20 0 29 -9 29 -29z" />
    <glyph glyph-name="greaterequal" unicode="&#x2265;" horiz-adv-x="533" 
d="M66 252c0 7 5 13 15 20l202 129l-207 130c-8 5 -11 11 -11 17c0 4 1 8 4 13l42 73c4 8 9 11 14 11s10 -2 17 -7l307 -194c10 -7 21 -15 21 -31v-32c0 -17 -7 -24 -17 -31l-294 -196c-9 -6 -15 -9 -21 -9c-7 0 -13 5 -19 15l-48 78c-3 5 -5 10 -5 14zM72 31v58
c0 20 9 29 29 29h340c21 0 26 -10 26 -29v-58c0 -18 -6 -31 -26 -31h-340c-22 0 -29 10 -29 31z" />
    <glyph glyph-name="asciicircum" unicode="^" horiz-adv-x="533" 
d="M517 359c0 -5 -4 -10 -12 -14l-82 -42c-5 -3 -9 -4 -13 -4c-6 0 -12 3 -17 11l-130 199l-129 -194c-7 -10 -13 -15 -20 -15c-4 0 -9 2 -14 5l-69 48c-9 7 -14 13 -14 20c0 6 2 12 8 20l196 284c7 10 14 17 31 17h32c16 0 24 -11 31 -21l194 -297c5 -7 8 -12 8 -17z" />
    <glyph glyph-name="asciitilde" unicode="~" horiz-adv-x="533" 
d="M487 285c0 -7 -4 -13 -11 -18c-41 -31 -80 -66 -135 -66c-56 0 -97 51 -150 51c-19 0 -52 -17 -80 -32c-10 -5 -18 -9 -23 -9c-6 0 -9 4 -13 13l-23 52c-3 7 -5 11 -5 15c0 8 5 13 18 21c35 22 72 52 115 52c28 0 57 -13 85 -26c20 -10 52 -26 75 -26c20 0 59 26 76 35
c9 5 16 7 21 7c7 0 12 -4 17 -12l27 -40c4 -6 6 -12 6 -17z" />
    <glyph glyph-name="lozenge" unicode="&#x25ca;" horiz-adv-x="514" 
d="M262 524l-93 -191l91 -190l91 190zM187 -20l-142 280c-7 17 -15 37 -15 54v24c0 19 9 41 16 59l154 293c7 18 15 21 34 21h59c17 0 28 -3 35 -20l140 -278c7 -18 16 -40 16 -59v-24c0 -17 -8 -37 -15 -54l-154 -295c-7 -18 -15 -21 -34 -21h-59c-17 0 -28 3 -35 20z" />
    <glyph glyph-name="degree" unicode="&#xb0;" horiz-adv-x="278" 
d="M233 615c0 -52 -42 -94 -94 -94s-94 42 -94 94s42 94 94 94s94 -42 94 -94zM170 615c0 17 -14 31 -31 31s-31 -14 -31 -31s14 -31 31 -31s31 14 31 31z" />
    <glyph glyph-name="quotesingle" unicode="'" horiz-adv-x="360" 
d="M241 688l-11 -146c-1 -11 -3 -17 -20 -17h-61c-14 0 -17 3 -18 20l-11 144v4c0 14 7 16 18 16h85c13 0 18 -3 18 -16v-5z" />
    <glyph glyph-name="quotedbl" unicode="&#x22;" horiz-adv-x="360" 
d="M315 688l-11 -146c-1 -11 -3 -17 -20 -17h-61c-14 0 -17 3 -18 20l-11 144v4c0 14 7 16 18 16h85c13 0 18 -3 18 -16v-5zM166 688l-11 -146c-1 -11 -3 -17 -20 -17h-61c-14 0 -17 3 -18 20l-11 144v4c0 14 7 16 18 16h85c13 0 18 -3 18 -16v-5z" />
    <glyph glyph-name="radical" unicode="&#x221a;" horiz-adv-x="655" 
d="M10 400v58c0 20 9 29 29 29h168c19 0 28 -9 33 -25l83 -275l169 496c7 20 15 25 37 25h82c21 0 27 -12 21 -29l-252 -658c-7 -18 -15 -21 -34 -21h-59c-17 0 -28 3 -35 20l-141 349h-72c-22 0 -29 10 -29 31z" />
    <glyph glyph-name="currency" unicode="&#xa4;" 
d="M454 347c0 -22 -5 -42 -13 -61l49 -48c15 -15 12 -26 -5 -43l-29 -29c-18 -18 -26 -22 -43 -5l-45 45c-25 -14 -54 -22 -83 -22c-30 0 -58 8 -83 22l-45 -45c-17 -17 -25 -13 -43 5l-29 29c-17 17 -20 28 -5 43l48 48c-8 19 -12 39 -12 61c0 21 4 42 12 60l-48 49
c-15 15 -12 26 5 43l29 29c18 18 26 22 43 5l45 -45c25 14 53 22 83 22c29 0 58 -8 83 -22l45 45c17 17 25 13 43 -5l29 -29c17 -17 20 -28 5 -43l-49 -49c8 -18 13 -39 13 -60zM224 347c0 -32 25 -60 61 -60s61 28 61 60s-25 60 -61 60s-61 -28 -61 -60z" />
    <glyph glyph-name="infinity" unicode="&#x221e;" horiz-adv-x="810" 
d="M40 328c0 105 68 173 182 173c71 0 127 -33 183 -85c55 52 111 85 183 85c114 0 182 -68 182 -173c0 -111 -79 -171 -182 -171c-75 0 -133 35 -183 83c-51 -48 -109 -83 -183 -83c-103 0 -182 60 -182 171zM574 287h1c29 0 54 17 54 46c0 25 -19 46 -52 46
c-37 0 -66 -22 -90 -46c25 -29 53 -46 87 -46zM235 287h1c34 0 62 17 87 46c-24 24 -53 46 -90 46c-33 0 -52 -21 -52 -46c0 -29 25 -46 54 -46z" />
    <glyph glyph-name="mu" unicode="&#xb5;" horiz-adv-x="579" 
d="M519 461v-428c0 -25 -7 -33 -31 -33h-81c-14 0 -26 6 -27 20l-2 21c-28 -22 -64 -40 -104 -40c-23 0 -46 5 -67 17v-167c0 -21 -6 -30 -37 -30h-74c-28 0 -36 4 -36 28v612c0 20 13 26 31 26h90c19 0 29 -5 29 -26v-270c0 -48 12 -70 57 -70c33 0 74 15 102 39v301
c0 20 13 26 31 26h90c19 0 29 -5 29 -26z" />
    <glyph glyph-name="mu" unicode="&#x3bc;" horiz-adv-x="579" 
d="M519 461v-428c0 -25 -7 -33 -31 -33h-81c-14 0 -26 6 -27 20l-2 21c-28 -22 -64 -40 -104 -40c-23 0 -46 5 -67 17v-167c0 -21 -6 -30 -37 -30h-74c-28 0 -36 4 -36 28v612c0 20 13 26 31 26h90c19 0 29 -5 29 -26v-270c0 -48 12 -70 57 -70c33 0 74 15 102 39v301
c0 20 13 26 31 26h90c19 0 29 -5 29 -26z" />
    <glyph glyph-name="partialdiff" unicode="&#x2202;" 
d="M28 230c0 148 93 228 220 228c36 0 88 -11 118 -28v6c0 100 -50 162 -143 162c-41 0 -67 -12 -100 -33c-14 -9 -27 0 -33 13l-30 67c-8 17 -6 30 12 40c59 34 103 45 157 45c245 0 306 -200 306 -370c0 -200 -67 -373 -268 -373c-156 0 -239 108 -239 243zM187 228
c0 -57 27 -107 85 -107c67 0 101 52 101 170c-22 23 -61 39 -95 39c-70 0 -91 -47 -91 -102z" />
    <glyph glyph-name="summation" unicode="&#x2211;" horiz-adv-x="608" 
d="M551 -180h-496c-18 0 -25 8 -25 25v64c0 15 10 30 16 36l275 317l-280 304c-8 8 -11 15 -11 29v74c0 17 9 25 27 25h488c18 0 25 -8 25 -21v-83c-2 -20 -15 -25 -36 -25h-280l177 -194c26 -29 26 -36 26 -60v-44c0 -25 0 -40 -23 -68l-209 -250h325c20 0 28 -10 28 -30
v-74c0 -17 -9 -25 -27 -25z" />
    <glyph glyph-name="product" unicode="&#x220f;" horiz-adv-x="690" 
d="M405 -156v721h-130v-719c0 -22 -3 -26 -23 -26h-113c-21 0 -23 3 -23 24v721h-58c-20 0 -28 10 -28 30v74c0 17 9 25 27 25h578c18 0 26 -8 25 -21l-8 -83c-2 -20 -15 -25 -36 -25h-52v-719c0 -22 -3 -26 -23 -26h-113c-21 0 -23 3 -23 24z" />
    <glyph glyph-name="pi" unicode="&#x3c0;" horiz-adv-x="728" 
d="M270 29c0 -19 -8 -29 -28 -29h-94c-17 0 -28 9 -28 27v347h-62c-24 0 -28 6 -28 33v54c0 14 8 26 23 26h574c14 0 24 -6 24 -21v-69c0 -15 -10 -23 -24 -23h-79v-176c0 -51 2 -83 39 -83c14 0 30 6 45 14c12 6 23 9 29 -6l24 -55c5 -15 1 -23 -10 -33
c-31 -27 -76 -44 -122 -44c-135 0 -155 84 -155 210v173h-128v-345z" />
    <glyph glyph-name="integral" unicode="&#x222b;" horiz-adv-x="442" 
d="M391 595c-19 4 -38 5 -54 5c-56 0 -86 -30 -86 -88v-11c10 -160 73 -302 90 -451c2 -13 2 -26 2 -38c0 -138 -101 -202 -236 -202c-20 0 -50 4 -76 8c-22 4 -23 15 -20 31l14 71c3 18 12 19 26 15c19 -4 38 -5 54 -5c53 0 87 28 87 83c0 5 0 10 -1 16
c-13 130 -82 308 -90 451c0 8 -1 15 -1 22c0 150 88 218 235 218c20 0 50 -4 76 -8c22 -4 23 -15 20 -31l-14 -71c-3 -18 -12 -19 -26 -15z" />
    <glyph glyph-name="Omega" unicode="&#x3a9;" horiz-adv-x="778" 
d="M318 118c20 -8 26 -10 26 -29v-58c0 -18 -6 -31 -26 -31h-251c-22 0 -29 10 -29 31v58c0 20 9 29 29 29h63c-38 59 -58 137 -58 227c0 214 121 364 320 364c209 0 314 -155 314 -358c0 -94 -23 -173 -64 -233h72c21 0 26 -10 26 -29v-58c0 -18 -6 -31 -26 -31h-257
c-20 0 -26 13 -26 31v58c0 19 6 24 26 29c70 16 76 122 76 230c0 161 -54 220 -147 220c-87 0 -147 -71 -147 -219c0 -109 12 -205 79 -231z" />
    <glyph glyph-name="Omega" unicode="&#x2126;" horiz-adv-x="778" 
d="M318 118c20 -8 26 -10 26 -29v-58c0 -18 -6 -31 -26 -31h-251c-22 0 -29 10 -29 31v58c0 20 9 29 29 29h63c-38 59 -58 137 -58 227c0 214 121 364 320 364c209 0 314 -155 314 -358c0 -94 -23 -173 -64 -233h72c21 0 26 -10 26 -29v-58c0 -18 -6 -31 -26 -31h-257
c-20 0 -26 13 -26 31v58c0 19 6 24 26 29c70 16 76 122 76 230c0 161 -54 220 -147 220c-87 0 -147 -71 -147 -219c0 -109 12 -205 79 -231z" />
    <glyph glyph-name="Delta" unicode="&#x2206;" horiz-adv-x="621" 
d="M525 0h-429c-18 0 -28 5 -37 19l-32 51c-10 16 -8 24 -1 41l216 575c7 18 15 21 34 21h59c17 0 28 -3 35 -20l225 -576c7 -17 9 -25 -1 -41l-32 -51c-9 -14 -19 -19 -37 -19zM295 522l-131 -393h262z" />
    <glyph glyph-name="litre" unicode="&#x2113;" horiz-adv-x="540" 
d="M277 261v-65c0 -33 4 -56 15 -69c8 -10 20 -15 37 -15c26 0 55 17 85 49c15 16 27 16 41 3l37 -35c13 -12 15 -20 6 -32c-53 -71 -127 -112 -203 -112c-53 0 -93 16 -121 43c-32 32 -47 79 -47 142v30l-53 -16c-11 -3 -17 1 -21 12l-18 51c-4 12 -6 20 9 26
c30 11 58 22 83 33v186c0 71 15 123 49 161c31 35 78 54 133 54c109 0 174 -75 174 -176c0 -119 -75 -204 -206 -270zM341 528c0 36 -12 58 -32 58c-22 0 -32 -24 -32 -73v-122c46 40 64 83 64 137z" />
    <glyph glyph-name="estimated" unicode="&#x212e;" horiz-adv-x="872" 
d="M832 336h-641c-3 0 -5 -1 -5 -5v-193c0 -9 4 -16 9 -23c60 -64 147 -105 243 -105c102 0 193 46 254 118h58c-72 -84 -186 -139 -313 -139c-218 0 -397 159 -397 356c0 198 179 356 397 356s395 -158 395 -356v-9zM687 361v196c0 9 -4 17 -10 23
c-61 61 -146 100 -239 100c-96 0 -181 -40 -242 -103c-6 -6 -10 -15 -10 -25v-191c0 -3 2 -5 5 -5h491c3 0 5 2 5 5z" />
    <glyph glyph-name="numero" unicode="&#x2116;" horiz-adv-x="1097" 
d="M684 663v-632c0 -26 -11 -31 -29 -31h-85c-18 0 -33 7 -44 22l-298 397h-2v-389c0 -22 -10 -30 -30 -30h-93c-23 0 -33 5 -33 29v634c0 26 12 31 33 31h84c20 0 30 -6 41 -21l298 -400h2v392c0 22 11 29 31 29h97c26 0 28 -14 28 -31zM1047 292c0 -88 -57 -153 -157 -153
c-104 0 -153 65 -153 154c0 88 57 154 157 154c104 0 153 -66 153 -155zM946 293c0 43 -12 77 -53 77s-55 -34 -55 -76c0 -43 12 -79 53 -79s55 35 55 78zM1047 58v-27c0 -21 -7 -31 -29 -31h-254c-20 0 -26 13 -26 31v27c0 19 5 29 26 29h254c20 0 29 -9 29 -29z" />
    <glyph glyph-name="fraction" unicode="&#x2044;" horiz-adv-x="174" 
d="M390 710c0 -5 -2 -11 -7 -18l-432 -700c-9 -14 -19 -20 -37 -20h-107c-9 0 -18 4 -18 13c0 3 1 7 4 12l440 703c11 18 20 24 42 24h94c13 0 21 -5 21 -14z" />
    <glyph glyph-name="fraction" unicode="&#x2215;" horiz-adv-x="174" 
d="M390 710c0 -5 -2 -11 -7 -18l-432 -700c-9 -14 -19 -20 -37 -20h-107c-9 0 -18 4 -18 13c0 3 1 7 4 12l440 703c11 18 20 24 42 24h94c13 0 21 -5 21 -14z" />
    <glyph glyph-name="onesuperior" unicode="&#xb9;" horiz-adv-x="375" 
d="M284 683v-361c0 -22 -12 -29 -32 -29h-50c-22 0 -34 3 -34 28v262l-64 -34c-6 -3 -12 -4 -17 -4c-14 0 -22 11 -26 19l-16 31c-2 5 -3 9 -3 13c0 11 8 19 18 24l124 68c12 7 22 9 37 9h37c17 0 26 -9 26 -26z" />
    <glyph glyph-name="twosuperior" unicode="&#xb2;" horiz-adv-x="375" 
d="M348 584c0 -43 -26 -82 -59 -117c-30 -32 -64 -59 -98 -86h118c19 0 30 -9 30 -28v-40c0 -17 -9 -29 -30 -29h-242c-22 0 -34 8 -34 31v35c0 17 5 26 17 37c41 39 88 77 124 111c37 35 58 62 58 82c0 24 -18 33 -44 33c-23 0 -53 -9 -80 -25c-5 -3 -12 -5 -18 -5
c-8 0 -16 4 -22 15c-5 11 -14 28 -20 41c-1 2 -2 5 -2 9c0 11 8 17 16 22c39 22 86 39 138 39c85 0 148 -43 148 -125z" />
    <glyph glyph-name="threesuperior" unicode="&#xb3;" horiz-adv-x="375" 
d="M341 412c0 -87 -82 -136 -166 -136c-50 0 -89 9 -121 25c-9 5 -20 11 -20 25c0 4 1 9 3 14l13 34c3 8 10 17 23 17c6 0 12 -2 16 -4c23 -10 50 -16 80 -16c40 0 60 20 60 45c0 43 -51 47 -84 47h-6c-24 0 -28 18 -28 30v27c0 14 5 30 28 30h22c36 0 51 10 51 35
c0 17 -13 31 -41 31c-23 0 -47 -6 -72 -19c-7 -4 -13 -5 -18 -5c-9 0 -16 5 -19 13l-15 37c-2 4 -3 9 -3 13c0 7 3 15 13 21c37 22 79 33 128 33c70 0 139 -36 139 -114c0 -37 -18 -68 -46 -85c34 -17 63 -51 63 -98z" />
    <glyph glyph-name="onehalf" unicode="&#xbd;" horiz-adv-x="890" 
d="M850 300c0 -43 -26 -83 -59 -118c-30 -32 -65 -58 -99 -85h119c19 0 30 -9 30 -28v-39c0 -16 -8 -30 -30 -30h-242c-22 0 -34 8 -34 31v35c0 17 5 26 17 37c41 39 88 77 124 111c37 35 58 62 58 82c0 24 -18 33 -44 33c-24 0 -53 -9 -80 -24c-5 -3 -12 -6 -19 -6
c-8 0 -16 4 -21 15c-2 4 -15 29 -20 42c-1 2 -2 6 -2 9c0 12 9 17 16 21c39 22 86 39 138 39c85 0 148 -43 148 -125zM706 710c0 -5 -2 -11 -7 -18l-432 -700c-9 -14 -19 -20 -37 -20h-100c-9 0 -18 4 -18 13c0 3 1 7 4 12l440 703c11 18 20 24 42 24h87c13 0 21 -5 21 -14z
M260 683v-361c0 -22 -12 -29 -32 -29h-50c-22 0 -34 3 -34 28v262l-64 -34c-6 -3 -12 -4 -17 -4c-14 0 -22 11 -26 19l-16 31c-2 5 -3 9 -3 13c0 11 8 19 18 24l124 68c12 7 22 9 37 9h37c17 0 26 -9 26 -26z" />
    <glyph glyph-name="onequarter" unicode="&#xbc;" horiz-adv-x="890" 
d="M828 253v-226c0 -22 -18 -27 -32 -27h-54c-17 0 -30 7 -30 27v54h-174c-27 0 -30 18 -30 31v26c0 14 1 23 9 38l113 217c8 15 16 23 36 23h50c16 0 28 -8 28 -22c0 -5 -2 -9 -4 -14l-102 -204h74v77c0 22 18 27 31 27h54c14 0 31 -5 31 -27zM744 710c0 -5 -2 -11 -7 -18
l-432 -700c-9 -14 -19 -20 -37 -20h-100c-9 0 -18 4 -18 13c0 3 1 7 4 12l440 703c11 18 20 24 42 24h87c13 0 21 -5 21 -14zM297 683v-361c0 -22 -12 -29 -32 -29h-50c-22 0 -34 3 -34 28v262l-64 -34c-6 -3 -12 -4 -17 -4c-14 0 -22 11 -26 19l-16 31c-2 5 -3 9 -3 13
c0 11 8 19 18 24l124 68c12 7 22 9 37 9h37c17 0 26 -9 26 -26z" />
    <glyph glyph-name="threequarters" unicode="&#xbe;" horiz-adv-x="890" 
d="M836 253v-226c0 -22 -18 -27 -32 -27h-54c-17 0 -30 7 -30 27v54h-174c-27 0 -30 18 -30 31v26c0 14 1 23 9 38l113 217c8 15 16 23 36 23h50c16 0 28 -8 28 -22c0 -5 -2 -9 -4 -14l-102 -204h74v77c0 22 18 27 31 27h54c14 0 31 -5 31 -27zM753 710c0 -5 -2 -11 -7 -18
l-432 -700c-9 -14 -19 -20 -37 -20h-100c-9 0 -18 4 -18 13c0 3 1 7 4 12l440 703c11 18 20 24 42 24h87c13 0 21 -5 21 -14zM355 412c0 -87 -82 -136 -166 -136c-50 0 -89 9 -121 25c-9 5 -20 11 -20 25c0 4 1 9 3 14l13 34c3 8 10 17 23 17c6 0 12 -2 16 -4
c23 -10 50 -16 80 -16c40 0 60 20 60 45c0 43 -51 47 -84 47h-6c-24 0 -28 18 -28 30v27c0 14 5 30 28 30h22c36 0 51 10 51 35c0 17 -13 31 -41 31c-23 0 -47 -6 -72 -19c-7 -4 -13 -5 -18 -5c-9 0 -16 5 -19 13l-15 37c-2 4 -3 9 -3 13c0 7 3 15 13 21c37 22 79 33 128 33
c70 0 139 -36 139 -114c0 -37 -18 -68 -46 -85c34 -17 63 -51 63 -98z" />
    <glyph glyph-name="grave" unicode="`" horiz-adv-x="360" 
d="M283 598c0 -4 -2 -8 -6 -13l-14 -19c-7 -10 -12 -14 -19 -14c-5 0 -13 3 -22 8l-133 76c-9 5 -13 9 -13 15c0 4 2 10 7 16l28 38c8 10 13 15 19 15s12 -4 21 -11l117 -91c11 -9 15 -15 15 -20z" />
    <glyph glyph-name="acute" unicode="&#xb4;" horiz-adv-x="360" 
d="M283 651c0 -6 -4 -10 -13 -15l-133 -76c-9 -5 -16 -8 -21 -8c-7 0 -13 4 -20 14l-14 19c-4 5 -6 9 -6 13c0 5 4 11 15 20l117 91c9 7 15 11 21 11s11 -5 19 -15l28 -38c5 -6 7 -12 7 -16z" />
    <glyph glyph-name="dieresis" unicode="&#xa8;" horiz-adv-x="360" 
d="M339 638c0 -38 -34 -61 -64 -61s-65 21 -65 60s32 62 65 62c32 0 64 -22 64 -61zM150 638c0 -38 -34 -61 -64 -61s-65 21 -65 60s32 62 65 62c32 0 64 -22 64 -61z" />
    <glyph glyph-name="circumflex" unicode="&#x2c6;" horiz-adv-x="360" 
d="M333 604c0 -5 -3 -11 -9 -16l-28 -23c-5 -4 -9 -6 -13 -6c-5 0 -10 3 -18 9l-83 63l-84 -62c-7 -5 -13 -8 -19 -8c-5 0 -10 3 -17 9l-23 20c-5 4 -8 8 -8 13s3 10 10 16l94 85c11 10 18 15 37 15h22c15 0 23 -1 34 -11l97 -89c5 -5 8 -10 8 -15z" />
    <glyph glyph-name="tilde" unicode="&#x2dc;" horiz-adv-x="360" 
d="M346 634c0 -6 -3 -10 -8 -14c-31 -23 -67 -46 -105 -46c-39 0 -68 35 -104 35c-12 0 -45 -11 -65 -22c-7 -4 -12 -6 -16 -6c-5 0 -9 3 -12 10l-22 44c-2 5 -4 9 -4 12c0 6 5 10 14 16c26 17 61 36 91 36c40 0 83 -36 111 -36c12 0 40 12 62 24c7 4 12 5 16 5
c5 0 9 -3 13 -9l25 -36c3 -5 4 -9 4 -13z" />
    <glyph glyph-name="macron" unicode="&#xaf;" horiz-adv-x="360" 
d="M331 660v-27c0 -21 -7 -31 -29 -31h-240c-20 0 -26 13 -26 31v27c0 19 5 29 26 29h240c20 0 29 -9 29 -29z" />
    <glyph glyph-name="macron" unicode="&#x2c9;" horiz-adv-x="360" 
d="M331 660v-27c0 -21 -7 -31 -29 -31h-240c-20 0 -26 13 -26 31v27c0 19 5 29 26 29h240c20 0 29 -9 29 -29z" />
    <glyph glyph-name="breve" unicode="&#x2d8;" horiz-adv-x="360" 
d="M321 689c0 -3 -1 -7 -2 -11c-15 -64 -64 -107 -138 -107c-70 0 -116 44 -131 106c-1 4 -2 9 -2 12c0 10 6 15 25 15h30c20 0 23 -8 31 -21c10 -17 26 -30 50 -30c22 0 39 14 49 33c6 12 12 18 27 18h40c15 0 21 -5 21 -15z" />
    <glyph glyph-name="dotaccent" unicode="&#x2d9;" horiz-adv-x="360" 
d="M243 638c0 -38 -34 -61 -64 -61s-65 21 -65 60s32 62 65 62c32 0 64 -22 64 -61z" />
    <glyph glyph-name="ring" unicode="&#x2da;" horiz-adv-x="360" 
d="M262 638c0 -44 -36 -80 -81 -80c-44 0 -81 36 -81 80s37 81 81 81c45 0 81 -37 81 -81zM206 638c0 14 -11 25 -25 25s-25 -11 -25 -25s11 -24 25 -24s25 10 25 24z" />
    <glyph glyph-name="cedilla" unicode="&#xb8;" horiz-adv-x="360" 
d="M314 -124c0 -56 -54 -88 -125 -88c-26 0 -56 7 -77 15c-10 4 -13 9 -13 15c0 2 0 4 1 6l8 28c2 7 4 9 9 9c3 0 9 -1 15 -3c16 -5 35 -9 48 -9c21 0 38 9 38 24c0 23 -15 30 -48 30h-26c-20 0 -25 9 -25 23c0 4 0 10 1 15l8 59h74l-3 -41h8c70 0 107 -32 107 -83z" />
    <glyph glyph-name="hungarumlaut" unicode="&#x2dd;" horiz-adv-x="360" 
d="M394 651c0 -6 -4 -10 -13 -15l-133 -76c-9 -5 -16 -8 -21 -8c-7 0 -13 4 -20 14l-14 19c-4 5 -6 9 -6 13c0 5 4 11 15 20l117 91c9 7 15 11 21 11s11 -5 19 -15l28 -38c5 -6 7 -12 7 -16zM178 651c0 -6 -4 -10 -13 -15l-133 -76c-9 -5 -16 -8 -21 -8c-7 0 -13 4 -20 14
l-14 19c-4 5 -6 9 -6 13c0 5 4 11 15 20l117 91c9 7 15 11 21 11s11 -5 19 -15l28 -38c5 -6 7 -12 7 -16z" />
    <glyph glyph-name="ogonek" unicode="&#x2db;" horiz-adv-x="360" 
d="M289 -182c0 -6 -3 -12 -13 -15c-21 -8 -56 -15 -82 -15c-67 0 -120 27 -120 83c0 28 12 53 35 76c19 19 45 36 77 53h74c-63 -47 -90 -80 -90 -113c0 -27 19 -37 43 -37c13 0 39 4 54 9c1 0 3 1 4 1c4 0 8 -3 9 -8l8 -28c1 -2 1 -4 1 -6z" />
    <glyph glyph-name="caron" unicode="&#x2c7;" horiz-adv-x="360" 
d="M31 678c0 5 3 11 9 16l28 23c5 4 9 6 13 6c5 0 10 -3 18 -9l83 -63l84 62c7 5 13 8 19 8c5 0 10 -3 17 -9l23 -20c5 -4 8 -8 8 -13s-3 -10 -10 -16l-94 -85c-11 -10 -18 -15 -37 -15h-22c-15 0 -23 1 -34 11l-97 89c-5 5 -8 10 -8 15z" />
    <glyph glyph-name="commaaccent" unicode="&#x326;" horiz-adv-x="297" 
d="M214 -117c0 -68 -41 -124 -94 -161c-6 -5 -11 -7 -16 -7s-9 3 -13 8l-11 12c-2 4 -4 7 -4 10s3 7 7 11c16 17 36 43 36 62c0 26 -36 48 -36 81c0 36 28 61 64 61c40 0 67 -40 67 -77z" />
    <glyph glyph-name="Agrave" unicode="&#xc0;" horiz-adv-x="671" 
d="M665 20c0 -12 -7 -20 -21 -20h-112c-24 0 -33 11 -39 28l-40 116h-247l-40 -120c-4 -13 -12 -24 -30 -24h-114c-11 0 -16 7 -16 16c0 4 0 8 2 12l238 641c6 15 15 25 34 25h103c20 0 31 -9 36 -22l243 -637c2 -6 3 -11 3 -15zM246 264h164l-63 197c-7 22 -13 41 -18 58
h-2c-5 -18 -11 -38 -18 -59zM439 798c0 -4 -2 -8 -6 -13l-14 -19c-7 -10 -12 -14 -19 -14c-5 0 -13 3 -22 8l-133 76c-9 5 -13 9 -13 15c0 4 2 10 7 16l28 38c8 10 13 15 19 15s12 -4 21 -11l117 -91c11 -9 15 -15 15 -20z" />
    <glyph glyph-name="Aacute" unicode="&#xc1;" horiz-adv-x="671" 
d="M665 20c0 -12 -7 -20 -21 -20h-112c-24 0 -33 11 -39 28l-40 116h-247l-40 -120c-4 -13 -12 -24 -30 -24h-114c-11 0 -16 7 -16 16c0 4 0 8 2 12l238 641c6 15 15 25 34 25h103c20 0 31 -9 36 -22l243 -637c2 -6 3 -11 3 -15zM246 264h164l-63 197c-7 22 -13 41 -18 58
h-2c-5 -18 -11 -38 -18 -59zM439 851c0 -6 -4 -10 -13 -15l-133 -76c-9 -5 -16 -8 -21 -8c-7 0 -13 4 -20 14l-14 19c-4 5 -6 9 -6 13c0 5 4 11 15 20l117 91c9 7 15 11 21 11s11 -5 19 -15l28 -38c5 -6 7 -12 7 -16z" />
    <glyph glyph-name="Acircumflex" unicode="&#xc2;" horiz-adv-x="671" 
d="M665 20c0 -12 -7 -20 -21 -20h-112c-24 0 -33 11 -39 28l-40 116h-247l-40 -120c-4 -13 -12 -24 -30 -24h-114c-11 0 -16 7 -16 16c0 4 0 8 2 12l238 641c6 15 15 25 34 25h103c20 0 31 -9 36 -22l243 -637c2 -6 3 -11 3 -15zM246 264h164l-63 197c-7 22 -13 41 -18 58
h-2c-5 -18 -11 -38 -18 -59zM486 804c0 -5 -3 -11 -9 -16l-28 -23c-5 -4 -9 -6 -13 -6c-5 0 -10 3 -18 9l-83 63l-84 -62c-7 -5 -13 -8 -19 -8c-5 0 -10 3 -17 9l-23 20c-5 4 -8 8 -8 13s3 10 10 16l94 85c11 10 18 15 37 15h22c15 0 23 -1 34 -11l97 -89c5 -5 8 -10 8 -15z
" />
    <glyph glyph-name="Atilde" unicode="&#xc3;" horiz-adv-x="671" 
d="M665 20c0 -12 -7 -20 -21 -20h-112c-24 0 -33 11 -39 28l-40 116h-247l-40 -120c-4 -13 -12 -24 -30 -24h-114c-11 0 -16 7 -16 16c0 4 0 8 2 12l238 641c6 15 15 25 34 25h103c20 0 31 -9 36 -22l243 -637c2 -6 3 -11 3 -15zM246 264h164l-63 197c-7 22 -13 41 -18 58
h-2c-5 -18 -11 -38 -18 -59zM500 834c0 -6 -3 -10 -8 -14c-31 -23 -67 -46 -105 -46c-39 0 -68 35 -104 35c-12 0 -45 -11 -65 -22c-7 -4 -12 -6 -16 -6c-5 0 -9 3 -12 10l-22 44c-2 5 -4 9 -4 12c0 6 5 10 14 16c26 17 61 36 91 36c40 0 83 -36 111 -36c12 0 40 12 62 24
c7 4 12 5 16 5c5 0 9 -3 13 -9l25 -36c3 -5 4 -9 4 -13z" />
    <glyph glyph-name="Adieresis" unicode="&#xc4;" horiz-adv-x="671" 
d="M665 20c0 -12 -7 -20 -21 -20h-112c-24 0 -33 11 -39 28l-40 116h-247l-40 -120c-4 -13 -12 -24 -30 -24h-114c-11 0 -16 7 -16 16c0 4 0 8 2 12l238 641c6 15 15 25 34 25h103c20 0 31 -9 36 -22l243 -637c2 -6 3 -11 3 -15zM246 264h164l-63 197c-7 22 -13 41 -18 58
h-2c-5 -18 -11 -38 -18 -59zM494 838c0 -38 -34 -61 -64 -61s-65 21 -65 60s32 62 65 62c32 0 64 -22 64 -61zM305 838c0 -38 -34 -61 -64 -61s-65 21 -65 60s32 62 65 62c32 0 64 -22 64 -61z" />
    <glyph glyph-name="Amacron" unicode="&#x100;" horiz-adv-x="671" 
d="M665 20c0 -12 -7 -20 -21 -20h-112c-24 0 -33 11 -39 28l-40 116h-247l-40 -120c-4 -13 -12 -24 -30 -24h-114c-11 0 -16 7 -16 16c0 4 0 8 2 12l238 641c6 15 15 25 34 25h103c20 0 31 -9 36 -22l243 -637c2 -6 3 -11 3 -15zM246 264h164l-63 197c-7 22 -13 41 -18 58
h-2c-5 -18 -11 -38 -18 -59zM483 860v-27c0 -21 -7 -31 -29 -31h-240c-20 0 -26 13 -26 31v27c0 19 5 29 26 29h240c20 0 29 -9 29 -29z" />
    <glyph glyph-name="Abreve" unicode="&#x102;" horiz-adv-x="671" 
d="M665 20c0 -12 -7 -20 -21 -20h-112c-24 0 -33 11 -39 28l-40 116h-247l-40 -120c-4 -13 -12 -24 -30 -24h-114c-11 0 -16 7 -16 16c0 4 0 8 2 12l238 641c6 15 15 25 34 25h103c20 0 31 -9 36 -22l243 -637c2 -6 3 -11 3 -15zM246 264h164l-63 197c-7 22 -13 41 -18 58
h-2c-5 -18 -11 -38 -18 -59zM472 889c0 -3 -1 -7 -2 -11c-15 -64 -64 -107 -138 -107c-70 0 -116 44 -131 106c-1 4 -2 9 -2 12c0 10 6 15 25 15h30c20 0 23 -8 31 -21c10 -17 26 -30 50 -30c22 0 39 14 49 33c6 12 12 18 27 18h40c15 0 21 -5 21 -15z" />
    <glyph glyph-name="Aring" unicode="&#xc5;" horiz-adv-x="671" 
d="M665 20c0 -12 -7 -20 -21 -20h-112c-24 0 -33 11 -39 28l-40 116h-247l-40 -120c-4 -13 -12 -24 -30 -24h-114c-11 0 -16 7 -16 16c0 4 0 8 2 12l238 641c6 15 15 25 34 25h103c20 0 31 -9 36 -22l243 -637c2 -6 3 -11 3 -15zM246 264h164l-63 197c-7 22 -13 41 -18 58
h-2c-5 -18 -11 -38 -18 -59zM416 838c0 -44 -36 -80 -81 -80c-44 0 -81 36 -81 80s37 81 81 81c45 0 81 -37 81 -81zM360 838c0 14 -11 25 -25 25s-25 -11 -25 -25s11 -24 25 -24s25 10 25 24z" />
    <glyph glyph-name="Aringacute" unicode="&#x1fa;" horiz-adv-x="671" 
d="M665 20c0 -12 -7 -20 -21 -20h-112c-24 0 -33 11 -39 28l-40 116h-247l-40 -120c-4 -13 -12 -24 -30 -24h-114c-11 0 -16 7 -16 16c0 4 0 8 2 12l238 641c6 15 15 25 34 25h103c20 0 31 -9 36 -22l243 -637c2 -6 3 -11 3 -15zM246 264h164l-63 197c-7 22 -13 41 -18 58
h-2c-5 -18 -11 -38 -18 -59zM416 812c0 -44 -36 -80 -81 -80c-44 0 -81 36 -81 80s37 81 81 81c45 0 81 -37 81 -81zM360 812c0 14 -11 25 -25 25s-25 -11 -25 -25s11 -24 25 -24s25 10 25 24zM439 1000c0 -6 -4 -10 -13 -15l-133 -76c-9 -5 -16 -8 -21 -8
c-7 0 -13 4 -20 14l-14 19c-4 5 -6 9 -6 13c0 5 4 11 15 20l117 91c9 7 15 11 21 11s11 -5 19 -15l28 -38c5 -6 7 -12 7 -16z" />
    <glyph glyph-name="Aogonek" unicode="&#x104;" horiz-adv-x="671" 
d="M594 -182c0 -6 -3 -12 -13 -15c-21 -8 -56 -15 -82 -15c-67 0 -120 27 -120 83c0 28 12 53 35 76c18 18 54 45 85 61l-46 136h-247l-40 -120c-4 -13 -12 -24 -30 -24h-114c-11 0 -16 7 -16 16c0 4 0 8 2 12l238 641c6 15 15 25 34 25h103c20 0 31 -9 36 -22l243 -637
c2 -6 3 -11 3 -15c0 -12 -7 -20 -21 -20c-66 0 -105 -20 -129 -41c-26 -23 -40 -51 -40 -72c0 -27 19 -37 43 -37c13 0 39 4 54 9c1 0 3 1 4 1c4 0 8 -3 9 -8l8 -28c1 -2 1 -4 1 -6zM246 264h164l-63 197c-7 22 -13 41 -18 58h-2c-5 -18 -11 -38 -18 -59z" />
    <glyph glyph-name="AE" unicode="&#xc6;" horiz-adv-x="960" 
d="M918 102v-74c0 -19 -9 -28 -28 -28h-388c-23 0 -33 6 -33 31v113h-221l-70 -120c-7 -12 -12 -24 -30 -24h-116c-11 0 -16 7 -16 16v3c0 3 0 6 2 9l383 641c8 14 15 25 34 25h458c16 0 25 -8 25 -18v-5l-9 -81c-2 -21 -15 -25 -39 -25h-242v-149h227c22 0 30 -11 30 -27
v-73c0 -20 -10 -29 -29 -29h-228v-158h261c18 0 29 -8 29 -27zM313 264h156v271z" />
    <glyph glyph-name="AEacute" unicode="&#x1fc;" horiz-adv-x="960" 
d="M918 102v-74c0 -19 -9 -28 -28 -28h-388c-23 0 -33 6 -33 31v113h-221l-70 -120c-7 -12 -12 -24 -30 -24h-116c-11 0 -16 7 -16 16v3c0 3 0 6 2 9l383 641c8 14 15 25 34 25h458c16 0 25 -8 25 -18v-5l-9 -81c-2 -21 -15 -25 -39 -25h-242v-149h227c22 0 30 -11 30 -27
v-73c0 -20 -10 -29 -29 -29h-228v-158h261c18 0 29 -8 29 -27zM313 264h156v271zM728 851c0 -6 -4 -10 -13 -15l-133 -76c-9 -5 -16 -8 -21 -8c-7 0 -13 4 -20 14l-14 19c-4 5 -6 9 -6 13c0 5 4 11 15 20l117 91c9 7 15 11 21 11s11 -5 19 -15l28 -38c5 -6 7 -12 7 -16z" />
    <glyph glyph-name="Cacute" unicode="&#x106;" horiz-adv-x="604" 
d="M582 649c0 -4 -1 -9 -3 -14l-29 -84c-4 -10 -8 -15 -15 -15c-4 0 -8 2 -13 4c-53 25 -94 34 -141 34c-104 0 -171 -80 -171 -226c0 -158 76 -226 174 -226c47 0 88 9 135 28c6 2 11 4 15 4c9 0 14 -4 18 -16l25 -74c2 -6 3 -11 3 -16c0 -10 -4 -17 -18 -22
c-69 -26 -126 -39 -203 -39c-212 0 -319 141 -319 356c0 216 131 366 332 366c72 0 133 -14 191 -40c14 -6 19 -13 19 -20zM504 851c0 -6 -4 -10 -13 -15l-133 -76c-9 -5 -16 -8 -21 -8c-7 0 -13 4 -20 14l-14 19c-4 5 -6 9 -6 13c0 5 4 11 15 20l117 91c9 7 15 11 21 11
s11 -5 19 -15l28 -38c5 -6 7 -12 7 -16z" />
    <glyph glyph-name="Ccedilla" unicode="&#xc7;" horiz-adv-x="604" 
d="M467 -124c0 -56 -54 -88 -125 -88c-26 0 -56 7 -77 15c-10 4 -13 9 -13 15c0 2 0 4 1 6l8 28c2 7 4 9 9 9c3 0 9 -1 15 -3c16 -5 35 -9 48 -9c21 0 38 9 38 24c0 23 -15 30 -48 30h-26c-20 0 -25 9 -25 23c0 4 0 10 1 15l7 54c-160 31 -240 161 -240 348
c0 216 131 366 332 366c72 0 133 -14 191 -40c14 -6 19 -13 19 -20c0 -4 -1 -9 -3 -14l-29 -84c-4 -10 -8 -15 -15 -15c-4 0 -8 2 -13 4c-53 25 -94 34 -141 34c-104 0 -171 -80 -171 -226c0 -158 76 -226 174 -226c47 0 88 9 135 28c6 2 11 4 15 4c9 0 14 -4 18 -16l25 -74
c2 -6 3 -11 3 -16c0 -10 -4 -17 -18 -22c-69 -26 -126 -39 -203 -39h-5l-2 -28h8c70 0 107 -32 107 -83z" />
    <glyph glyph-name="Ccircumflex" unicode="&#x108;" horiz-adv-x="604" 
d="M582 649c0 -4 -1 -9 -3 -14l-29 -84c-4 -10 -8 -15 -15 -15c-4 0 -8 2 -13 4c-53 25 -94 34 -141 34c-104 0 -171 -80 -171 -226c0 -158 76 -226 174 -226c47 0 88 9 135 28c6 2 11 4 15 4c9 0 14 -4 18 -16l25 -74c2 -6 3 -11 3 -16c0 -10 -4 -17 -18 -22
c-69 -26 -126 -39 -203 -39c-212 0 -319 141 -319 356c0 216 131 366 332 366c72 0 133 -14 191 -40c14 -6 19 -13 19 -20zM528 804c0 -5 -3 -11 -9 -16l-28 -23c-5 -4 -9 -6 -13 -6c-5 0 -10 3 -18 9l-83 63l-84 -62c-7 -5 -13 -8 -19 -8c-5 0 -10 3 -17 9l-23 20
c-5 4 -8 8 -8 13s3 10 10 16l94 85c11 10 18 15 37 15h22c15 0 23 -1 34 -11l97 -89c5 -5 8 -10 8 -15z" />
    <glyph glyph-name="Ccaron" unicode="&#x10c;" horiz-adv-x="604" 
d="M582 649c0 -4 -1 -9 -3 -14l-29 -84c-4 -10 -8 -15 -15 -15c-4 0 -8 2 -13 4c-53 25 -94 34 -141 34c-104 0 -171 -80 -171 -226c0 -158 76 -226 174 -226c47 0 88 9 135 28c6 2 11 4 15 4c9 0 14 -4 18 -16l25 -74c2 -6 3 -11 3 -16c0 -10 -4 -17 -18 -22
c-69 -26 -126 -39 -203 -39c-212 0 -319 141 -319 356c0 216 131 366 332 366c72 0 133 -14 191 -40c14 -6 19 -13 19 -20zM219 878c0 5 3 11 9 16l28 23c5 4 9 6 13 6c5 0 10 -3 18 -9l83 -63l84 62c7 5 13 8 19 8c5 0 10 -3 17 -9l23 -20c5 -4 8 -8 8 -13s-3 -10 -10 -16
l-94 -85c-11 -10 -18 -15 -37 -15h-22c-15 0 -23 1 -34 11l-97 89c-5 5 -8 10 -8 15z" />
    <glyph glyph-name="Cdotaccent" unicode="&#x10a;" horiz-adv-x="604" 
d="M582 649c0 -4 -1 -9 -3 -14l-29 -84c-4 -10 -8 -15 -15 -15c-4 0 -8 2 -13 4c-53 25 -94 34 -141 34c-104 0 -171 -80 -171 -226c0 -158 76 -226 174 -226c47 0 88 9 135 28c6 2 11 4 15 4c9 0 14 -4 18 -16l25 -74c2 -6 3 -11 3 -16c0 -10 -4 -17 -18 -22
c-69 -26 -126 -39 -203 -39c-212 0 -319 141 -319 356c0 216 131 366 332 366c72 0 133 -14 191 -40c14 -6 19 -13 19 -20zM442 838c0 -38 -34 -61 -64 -61s-65 21 -65 60s32 62 65 62c32 0 64 -22 64 -61z" />
    <glyph glyph-name="Dcaron" unicode="&#x10e;" horiz-adv-x="710" 
d="M670 345c0 -240 -161 -345 -364 -345h-204c-20 0 -32 5 -32 31v631c0 22 6 32 33 32h158c248 0 409 -83 409 -349zM500 346c0 149 -74 211 -215 211h-56v-422h71c100 0 200 43 200 211zM142 878c0 5 3 11 9 16l28 23c5 4 9 6 13 6c5 0 10 -3 18 -9l83 -63l84 62
c7 5 13 8 19 8c5 0 10 -3 17 -9l23 -20c5 -4 8 -8 8 -13s-3 -10 -10 -16l-94 -85c-11 -10 -18 -15 -37 -15h-22c-15 0 -23 1 -34 11l-97 89c-5 5 -8 10 -8 15z" />
    <glyph glyph-name="Dcroat" unicode="&#x110;" horiz-adv-x="728" 
d="M688 345c0 -240 -161 -345 -364 -345h-204c-20 0 -32 5 -32 31v296h-68c-17 0 -20 3 -20 19v25c0 19 3 20 21 20h67v271c0 22 6 32 33 32h158c248 0 409 -83 409 -349zM518 346c0 149 -74 211 -215 211h-56v-166h102c20 0 23 -4 23 -18v-27c0 -18 -5 -19 -23 -19h-102
v-192h71c100 0 200 43 200 211z" />
    <glyph glyph-name="Eth" unicode="&#xd0;" horiz-adv-x="728" 
d="M688 345c0 -240 -161 -345 -364 -345h-204c-20 0 -32 5 -32 31v296h-68c-17 0 -20 3 -20 19v25c0 19 3 20 21 20h67v271c0 22 6 32 33 32h158c248 0 409 -83 409 -349zM518 346c0 149 -74 211 -215 211h-56v-166h102c20 0 23 -4 23 -18v-27c0 -18 -5 -19 -23 -19h-102
v-192h71c100 0 200 43 200 211z" />
    <glyph glyph-name="Egrave" unicode="&#xc8;" horiz-adv-x="561" 
d="M96 694h398c20 0 26 -10 25 -23l-9 -81c-2 -21 -15 -25 -39 -25h-242v-149h227c22 0 30 -11 30 -27v-73c0 -20 -10 -29 -29 -29h-228v-158h261c18 0 29 -8 29 -27v-74c0 -19 -9 -28 -28 -28h-388c-23 0 -33 6 -33 31v635c0 17 9 28 26 28zM374 798c0 -4 -2 -8 -6 -13
l-14 -19c-7 -10 -12 -14 -19 -14c-5 0 -13 3 -22 8l-133 76c-9 5 -13 9 -13 15c0 4 2 10 7 16l28 38c8 10 13 15 19 15s12 -4 21 -11l117 -91c11 -9 15 -15 15 -20z" />
    <glyph glyph-name="Eacute" unicode="&#xc9;" horiz-adv-x="561" 
d="M96 694h398c20 0 26 -10 25 -23l-9 -81c-2 -21 -15 -25 -39 -25h-242v-149h227c22 0 30 -11 30 -27v-73c0 -20 -10 -29 -29 -29h-228v-158h261c18 0 29 -8 29 -27v-74c0 -19 -9 -28 -28 -28h-388c-23 0 -33 6 -33 31v635c0 17 9 28 26 28zM404 851c0 -6 -4 -10 -13 -15
l-133 -76c-9 -5 -16 -8 -21 -8c-7 0 -13 4 -20 14l-14 19c-4 5 -6 9 -6 13c0 5 4 11 15 20l117 91c9 7 15 11 21 11s11 -5 19 -15l28 -38c5 -6 7 -12 7 -16z" />
    <glyph glyph-name="Ecircumflex" unicode="&#xca;" horiz-adv-x="561" 
d="M96 694h398c20 0 26 -10 25 -23l-9 -81c-2 -21 -15 -25 -39 -25h-242v-149h227c22 0 30 -11 30 -27v-73c0 -20 -10 -29 -29 -29h-228v-158h261c18 0 29 -8 29 -27v-74c0 -19 -9 -28 -28 -28h-388c-23 0 -33 6 -33 31v635c0 17 9 28 26 28zM444 804c0 -5 -3 -11 -9 -16
l-28 -23c-5 -4 -9 -6 -13 -6c-5 0 -10 3 -18 9l-83 63l-84 -62c-7 -5 -13 -8 -19 -8c-5 0 -10 3 -17 9l-23 20c-5 4 -8 8 -8 13s3 10 10 16l94 85c11 10 18 15 37 15h22c15 0 23 -1 34 -11l97 -89c5 -5 8 -10 8 -15z" />
    <glyph glyph-name="Ecaron" unicode="&#x11a;" horiz-adv-x="561" 
d="M96 694h398c20 0 26 -10 25 -23l-9 -81c-2 -21 -15 -25 -39 -25h-242v-149h227c22 0 30 -11 30 -27v-73c0 -20 -10 -29 -29 -29h-228v-158h261c18 0 29 -8 29 -27v-74c0 -19 -9 -28 -28 -28h-388c-23 0 -33 6 -33 31v635c0 17 9 28 26 28zM141 878c0 5 3 11 9 16l28 23
c5 4 9 6 13 6c5 0 10 -3 18 -9l83 -63l84 62c7 5 13 8 19 8c5 0 10 -3 17 -9l23 -20c5 -4 8 -8 8 -13s-3 -10 -10 -16l-94 -85c-11 -10 -18 -15 -37 -15h-22c-15 0 -23 1 -34 11l-97 89c-5 5 -8 10 -8 15z" />
    <glyph glyph-name="Edieresis" unicode="&#xcb;" horiz-adv-x="561" 
d="M96 694h398c20 0 26 -10 25 -23l-9 -81c-2 -21 -15 -25 -39 -25h-242v-149h227c22 0 30 -11 30 -27v-73c0 -20 -10 -29 -29 -29h-228v-158h261c18 0 29 -8 29 -27v-74c0 -19 -9 -28 -28 -28h-388c-23 0 -33 6 -33 31v635c0 17 9 28 26 28zM449 838c0 -38 -34 -61 -64 -61
s-65 21 -65 60s32 62 65 62c32 0 64 -22 64 -61zM260 838c0 -38 -34 -61 -64 -61s-65 21 -65 60s32 62 65 62c32 0 64 -22 64 -61z" />
    <glyph glyph-name="Emacron" unicode="&#x112;" horiz-adv-x="561" 
d="M96 694h398c20 0 26 -10 25 -23l-9 -81c-2 -21 -15 -25 -39 -25h-242v-149h227c22 0 30 -11 30 -27v-73c0 -20 -10 -29 -29 -29h-228v-158h261c18 0 29 -8 29 -27v-74c0 -19 -9 -28 -28 -28h-388c-23 0 -33 6 -33 31v635c0 17 9 28 26 28zM448 860v-27
c0 -21 -7 -31 -29 -31h-240c-20 0 -26 13 -26 31v27c0 19 5 29 26 29h240c20 0 29 -9 29 -29z" />
    <glyph glyph-name="Ebreve" unicode="&#x114;" horiz-adv-x="561" 
d="M96 694h398c20 0 26 -10 25 -23l-9 -81c-2 -21 -15 -25 -39 -25h-242v-149h227c22 0 30 -11 30 -27v-73c0 -20 -10 -29 -29 -29h-228v-158h261c18 0 29 -8 29 -27v-74c0 -19 -9 -28 -28 -28h-388c-23 0 -33 6 -33 31v635c0 17 9 28 26 28zM427 889c0 -3 -1 -7 -2 -11
c-15 -64 -64 -107 -138 -107c-70 0 -116 44 -131 106c-1 4 -2 9 -2 12c0 10 6 15 25 15h30c20 0 23 -8 31 -21c10 -17 26 -30 50 -30c22 0 39 14 49 33c6 12 12 18 27 18h40c15 0 21 -5 21 -15z" />
    <glyph glyph-name="Edotaccent" unicode="&#x116;" horiz-adv-x="561" 
d="M96 694h398c20 0 26 -10 25 -23l-9 -81c-2 -21 -15 -25 -39 -25h-242v-149h227c22 0 30 -11 30 -27v-73c0 -20 -10 -29 -29 -29h-228v-158h261c18 0 29 -8 29 -27v-74c0 -19 -9 -28 -28 -28h-388c-23 0 -33 6 -33 31v635c0 17 9 28 26 28zM355 838c0 -38 -34 -61 -64 -61
s-65 21 -65 60s32 62 65 62c32 0 64 -22 64 -61z" />
    <glyph glyph-name="Eogonek" unicode="&#x118;" horiz-adv-x="561" 
d="M448 -182c0 -6 -3 -12 -13 -15c-21 -8 -56 -15 -82 -15c-67 0 -120 27 -120 83c0 28 12 53 35 76c19 19 45 36 77 53h-242c-23 0 -33 6 -33 31v635c0 17 9 28 26 28h398c20 0 26 -10 25 -23l-9 -81c-2 -21 -15 -25 -39 -25h-242v-149h227c22 0 30 -11 30 -27v-73
c0 -20 -10 -29 -29 -29h-228v-158h261c18 0 29 -8 29 -27v-74c0 -19 -9 -28 -28 -28h-72c-63 -47 -90 -80 -90 -113c0 -27 19 -37 43 -37c13 0 39 4 54 9c1 0 3 1 4 1c4 0 8 -3 9 -8l8 -28c1 -2 1 -4 1 -6z" />
    <glyph glyph-name="Gcircumflex" unicode="&#x11c;" horiz-adv-x="697" 
d="M639 389v-318c0 -20 -3 -28 -24 -38c-60 -29 -163 -46 -248 -46c-201 0 -329 142 -329 357c0 214 143 365 342 365c73 0 129 -12 197 -43c13 -6 15 -14 15 -21c0 -5 -2 -9 -3 -13l-30 -78c-4 -11 -10 -16 -17 -16c-5 0 -11 2 -17 5c-29 13 -85 30 -136 30
c-44 0 -93 -17 -124 -52c-34 -38 -57 -93 -57 -171c0 -159 78 -227 170 -227c39 0 81 4 102 10v154h-77c-14 0 -25 9 -25 26v78c0 18 10 25 27 25h206c19 0 28 -7 28 -27zM519 804c0 -5 -3 -11 -9 -16l-28 -23c-5 -4 -9 -6 -13 -6c-5 0 -10 3 -18 9l-83 63l-84 -62
c-7 -5 -13 -8 -19 -8c-5 0 -10 3 -17 9l-23 20c-5 4 -8 8 -8 13s3 10 10 16l94 85c11 10 18 15 37 15h22c15 0 23 -1 34 -11l97 -89c5 -5 8 -10 8 -15z" />
    <glyph glyph-name="Gbreve" unicode="&#x11e;" horiz-adv-x="697" 
d="M639 389v-318c0 -20 -3 -28 -24 -38c-60 -29 -163 -46 -248 -46c-201 0 -329 142 -329 357c0 214 143 365 342 365c73 0 129 -12 197 -43c13 -6 15 -14 15 -21c0 -5 -2 -9 -3 -13l-30 -78c-4 -11 -10 -16 -17 -16c-5 0 -11 2 -17 5c-29 13 -85 30 -136 30
c-44 0 -93 -17 -124 -52c-34 -38 -57 -93 -57 -171c0 -159 78 -227 170 -227c39 0 81 4 102 10v154h-77c-14 0 -25 9 -25 26v78c0 18 10 25 27 25h206c19 0 28 -7 28 -27zM505 889c0 -3 -1 -7 -2 -11c-15 -64 -64 -107 -138 -107c-70 0 -116 44 -131 106c-1 4 -2 9 -2 12
c0 10 6 15 25 15h30c20 0 23 -8 31 -21c10 -17 26 -30 50 -30c22 0 39 14 49 33c6 12 12 18 27 18h40c15 0 21 -5 21 -15z" />
    <glyph glyph-name="Gdotaccent" unicode="&#x120;" horiz-adv-x="697" 
d="M639 389v-318c0 -20 -3 -28 -24 -38c-60 -29 -163 -46 -248 -46c-201 0 -329 142 -329 357c0 214 143 365 342 365c73 0 129 -12 197 -43c13 -6 15 -14 15 -21c0 -5 -2 -9 -3 -13l-30 -78c-4 -11 -10 -16 -17 -16c-5 0 -11 2 -17 5c-29 13 -85 30 -136 30
c-44 0 -93 -17 -124 -52c-34 -38 -57 -93 -57 -171c0 -159 78 -227 170 -227c39 0 81 4 102 10v154h-77c-14 0 -25 9 -25 26v78c0 18 10 25 27 25h206c19 0 28 -7 28 -27zM433 838c0 -38 -34 -61 -64 -61s-65 21 -65 60s32 62 65 62c32 0 64 -22 64 -61z" />
    <glyph glyph-name="Gcommaaccent" unicode="&#x122;" horiz-adv-x="697" 
d="M639 389v-318c0 -20 -3 -28 -24 -38c-60 -29 -163 -46 -248 -46c-201 0 -329 142 -329 357c0 214 143 365 342 365c73 0 129 -12 197 -43c13 -6 15 -14 15 -21c0 -5 -2 -9 -3 -13l-30 -78c-4 -11 -10 -16 -17 -16c-5 0 -11 2 -17 5c-29 13 -85 30 -136 30
c-44 0 -93 -17 -124 -52c-34 -38 -57 -93 -57 -171c0 -159 78 -227 170 -227c39 0 81 4 102 10v154h-77c-14 0 -25 9 -25 26v78c0 18 10 25 27 25h206c19 0 28 -7 28 -27zM417 -117c0 -68 -41 -124 -94 -161c-6 -5 -11 -7 -16 -7s-9 3 -13 8l-11 12c-2 4 -4 7 -4 10
s3 7 7 11c16 17 36 43 36 62c0 26 -36 48 -36 81c0 36 28 61 64 61c40 0 67 -40 67 -77z" />
    <glyph glyph-name="Hcircumflex" unicode="&#x124;" horiz-adv-x="711" 
d="M636 668v-639c0 -21 -9 -29 -29 -29h-99c-21 0 -31 7 -31 29v258h-253v-258c0 -21 -9 -29 -29 -29h-99c-21 0 -31 7 -31 29v639c0 20 13 26 31 26h99c19 0 29 -5 29 -26v-252h253v252c0 20 13 26 31 26h99c19 0 29 -5 29 -26zM506 804c0 -5 -3 -11 -9 -16l-28 -23
c-5 -4 -9 -6 -13 -6c-5 0 -10 3 -18 9l-83 63l-84 -62c-7 -5 -13 -8 -19 -8c-5 0 -10 3 -17 9l-23 20c-5 4 -8 8 -8 13s3 10 10 16l94 85c11 10 18 15 37 15h22c15 0 23 -1 34 -11l97 -89c5 -5 8 -10 8 -15z" />
    <glyph glyph-name="Hbar" unicode="&#x126;" horiz-adv-x="711" 
d="M636 668v-65h33c20 0 23 -4 23 -18v-27c0 -18 -5 -19 -23 -19h-33v-510c0 -21 -9 -29 -29 -29h-99c-21 0 -31 7 -31 29v258h-253v-258c0 -21 -9 -29 -29 -29h-99c-21 0 -31 7 -31 29v510h-31c-17 0 -20 3 -20 19v25c0 19 3 20 21 20h30v65c0 20 13 26 31 26h99
c19 0 29 -5 29 -26v-65h253v65c0 20 13 26 31 26h99c19 0 29 -5 29 -26zM224 416h253v123h-253v-123z" />
    <glyph glyph-name="Igrave" unicode="&#xcc;" horiz-adv-x="427" 
d="M371 672v-54c0 -18 -10 -26 -25 -26h-54v-490h50c16 0 24 -12 24 -26v-53c0 -12 -8 -23 -22 -23h-257c-15 0 -25 11 -25 22v54c0 18 10 26 25 26h46v490h-53c-16 0 -24 12 -24 26v53c0 12 8 23 22 23h268c15 0 25 -11 25 -22zM317 798c0 -4 -2 -8 -6 -13l-14 -19
c-7 -10 -12 -14 -19 -14c-5 0 -13 3 -22 8l-133 76c-9 5 -13 9 -13 15c0 4 2 10 7 16l28 38c8 10 13 15 19 15s12 -4 21 -11l117 -91c11 -9 15 -15 15 -20z" />
    <glyph glyph-name="Iacute" unicode="&#xcd;" horiz-adv-x="427" 
d="M371 672v-54c0 -18 -10 -26 -25 -26h-54v-490h50c16 0 24 -12 24 -26v-53c0 -12 -8 -23 -22 -23h-257c-15 0 -25 11 -25 22v54c0 18 10 26 25 26h46v490h-53c-16 0 -24 12 -24 26v53c0 12 8 23 22 23h268c15 0 25 -11 25 -22zM317 851c0 -6 -4 -10 -13 -15l-133 -76
c-9 -5 -16 -8 -21 -8c-7 0 -13 4 -20 14l-14 19c-4 5 -6 9 -6 13c0 5 4 11 15 20l117 91c9 7 15 11 21 11s11 -5 19 -15l28 -38c5 -6 7 -12 7 -16z" />
    <glyph glyph-name="Icircumflex" unicode="&#xce;" horiz-adv-x="427" 
d="M371 672v-54c0 -18 -10 -26 -25 -26h-54v-490h50c16 0 24 -12 24 -26v-53c0 -12 -8 -23 -22 -23h-257c-15 0 -25 11 -25 22v54c0 18 10 26 25 26h46v490h-53c-16 0 -24 12 -24 26v53c0 12 8 23 22 23h268c15 0 25 -11 25 -22zM364 804c0 -5 -3 -11 -9 -16l-28 -23
c-5 -4 -9 -6 -13 -6c-5 0 -10 3 -18 9l-83 63l-84 -62c-7 -5 -13 -8 -19 -8c-5 0 -10 3 -17 9l-23 20c-5 4 -8 8 -8 13s3 10 10 16l94 85c11 10 18 15 37 15h22c15 0 23 -1 34 -11l97 -89c5 -5 8 -10 8 -15z" />
    <glyph glyph-name="Itilde" unicode="&#x128;" horiz-adv-x="427" 
d="M371 672v-54c0 -18 -10 -26 -25 -26h-54v-490h50c16 0 24 -12 24 -26v-53c0 -12 -8 -23 -22 -23h-257c-15 0 -25 11 -25 22v54c0 18 10 26 25 26h46v490h-53c-16 0 -24 12 -24 26v53c0 12 8 23 22 23h268c15 0 25 -11 25 -22zM381 834c0 -6 -3 -10 -8 -14
c-31 -23 -67 -46 -105 -46c-39 0 -68 35 -104 35c-12 0 -45 -11 -65 -22c-7 -4 -12 -6 -16 -6c-5 0 -9 3 -12 10l-22 44c-2 5 -4 9 -4 12c0 6 5 10 14 16c26 17 61 36 91 36c40 0 83 -36 111 -36c12 0 40 12 62 24c7 4 12 5 16 5c5 0 9 -3 13 -9l25 -36c3 -5 4 -9 4 -13z
" />
    <glyph glyph-name="Idieresis" unicode="&#xcf;" horiz-adv-x="427" 
d="M371 672v-54c0 -18 -10 -26 -25 -26h-54v-490h50c16 0 24 -12 24 -26v-53c0 -12 -8 -23 -22 -23h-257c-15 0 -25 11 -25 22v54c0 18 10 26 25 26h46v490h-53c-16 0 -24 12 -24 26v53c0 12 8 23 22 23h268c15 0 25 -11 25 -22zM372 838c0 -38 -34 -61 -64 -61
s-65 21 -65 60s32 62 65 62c32 0 64 -22 64 -61zM183 838c0 -38 -34 -61 -64 -61s-65 21 -65 60s32 62 65 62c32 0 64 -22 64 -61z" />
    <glyph glyph-name="Imacron" unicode="&#x12a;" horiz-adv-x="427" 
d="M371 672v-54c0 -18 -10 -26 -25 -26h-54v-490h50c16 0 24 -12 24 -26v-53c0 -12 -8 -23 -22 -23h-257c-15 0 -25 11 -25 22v54c0 18 10 26 25 26h46v490h-53c-16 0 -24 12 -24 26v53c0 12 8 23 22 23h268c15 0 25 -11 25 -22zM361 860v-27c0 -21 -7 -31 -29 -31h-240
c-20 0 -26 13 -26 31v27c0 19 5 29 26 29h240c20 0 29 -9 29 -29z" />
    <glyph glyph-name="Ibreve" unicode="&#x12c;" horiz-adv-x="427" 
d="M371 672v-54c0 -18 -10 -26 -25 -26h-54v-490h50c16 0 24 -12 24 -26v-53c0 -12 -8 -23 -22 -23h-257c-15 0 -25 11 -25 22v54c0 18 10 26 25 26h46v490h-53c-16 0 -24 12 -24 26v53c0 12 8 23 22 23h268c15 0 25 -11 25 -22zM350 889c0 -3 -1 -7 -2 -11
c-15 -64 -64 -107 -138 -107c-70 0 -116 44 -131 106c-1 4 -2 9 -2 12c0 10 6 15 25 15h30c20 0 23 -8 31 -21c10 -17 26 -30 50 -30c22 0 39 14 49 33c6 12 12 18 27 18h40c15 0 21 -5 21 -15z" />
    <glyph glyph-name="Idotaccent" unicode="&#x130;" horiz-adv-x="427" 
d="M371 672v-54c0 -18 -10 -26 -25 -26h-54v-490h50c16 0 24 -12 24 -26v-53c0 -12 -8 -23 -22 -23h-257c-15 0 -25 11 -25 22v54c0 18 10 26 25 26h46v490h-53c-16 0 -24 12 -24 26v53c0 12 8 23 22 23h268c15 0 25 -11 25 -22zM278 838c0 -38 -34 -61 -64 -61
s-65 21 -65 60s32 62 65 62c32 0 64 -22 64 -61z" />
    <glyph glyph-name="Iogonek" unicode="&#x12e;" horiz-adv-x="427" 
d="M311 -182c0 -6 -3 -12 -13 -15c-21 -8 -56 -15 -82 -15c-67 0 -120 27 -120 83c0 28 12 53 35 76c19 19 45 36 77 53h-121c-15 0 -25 11 -25 22v54c0 18 10 26 25 26h46v490h-53c-16 0 -24 12 -24 26v53c0 12 8 23 22 23h268c15 0 25 -11 25 -22v-54
c0 -18 -10 -26 -25 -26h-54v-490h50c16 0 24 -12 24 -26v-53c0 -12 -8 -23 -22 -23h-62c-63 -47 -90 -80 -90 -113c0 -27 19 -37 43 -37c13 0 39 4 54 9c1 0 3 1 4 1c4 0 8 -3 9 -8l8 -28c1 -2 1 -4 1 -6z" />
    <glyph glyph-name="IJ" unicode="&#x132;" horiz-adv-x="873" 
d="M371 672v-54c0 -18 -10 -26 -25 -26h-54v-490h50c16 0 24 -12 24 -26v-53c0 -12 -8 -23 -22 -23h-257c-15 0 -25 11 -25 22v54c0 18 10 26 25 26h46v490h-53c-16 0 -24 12 -24 26v53c0 12 8 23 22 23h268c15 0 25 -11 25 -22zM803 668v-439c0 -93 -27 -160 -80 -199
c-37 -27 -89 -41 -158 -41c-21 0 -53 3 -80 8c-15 3 -20 9 -20 18c0 4 1 8 2 13l12 69c3 14 8 20 23 18c20 -3 44 -6 61 -6c21 0 45 6 59 21s22 41 22 78v384h-115c-16 0 -23 14 -23 26v51c0 16 9 25 23 25h246c18 0 28 -11 28 -26z" />
    <glyph glyph-name="Jcircumflex" unicode="&#x134;" horiz-adv-x="446" 
d="M376 668v-439c0 -93 -27 -160 -80 -199c-37 -27 -89 -41 -158 -41c-21 0 -53 3 -80 8c-15 3 -20 9 -20 18c0 4 1 8 2 13l12 69c3 14 8 20 23 18c20 -3 44 -6 61 -6c21 0 45 6 59 21s22 41 22 78v384h-115c-16 0 -23 14 -23 26v51c0 16 9 25 23 25h246c18 0 28 -11 28 -26
zM374 804c0 -5 -3 -11 -9 -16l-28 -23c-5 -4 -9 -6 -13 -6c-5 0 -10 3 -18 9l-83 63l-84 -62c-7 -5 -13 -8 -19 -8c-5 0 -10 3 -17 9l-23 20c-5 4 -8 8 -8 13s3 10 10 16l94 85c11 10 18 15 37 15h22c15 0 23 -1 34 -11l97 -89c5 -5 8 -10 8 -15z" />
    <glyph glyph-name="Kcommaaccent" unicode="&#x136;" horiz-adv-x="635" 
d="M620 17c0 -10 -8 -17 -18 -17h-126c-28 0 -42 9 -56 29l-188 259h-3v-259c0 -21 -9 -29 -29 -29h-99c-21 0 -31 7 -31 29v639c0 20 13 26 31 26h99c19 0 29 -5 29 -26v-278h3l178 283c10 15 23 21 43 21h101c13 0 19 -7 19 -15c0 -5 -3 -10 -6 -15l-208 -306l252 -321
c5 -7 9 -14 9 -20zM386 -117c0 -68 -41 -124 -94 -161c-6 -5 -11 -7 -16 -7s-9 3 -13 8l-11 12c-2 4 -4 7 -4 10s3 7 7 11c16 17 36 43 36 62c0 26 -36 48 -36 81c0 36 28 61 64 61c40 0 67 -40 67 -77z" />
    <glyph glyph-name="Lacute" unicode="&#x139;" horiz-adv-x="524" 
d="M512 105v-76c0 -22 -13 -29 -30 -29h-380c-21 0 -32 5 -32 32v634c0 18 9 28 28 28h101c22 0 30 -7 30 -30v-530h255c19 0 28 -11 28 -29zM249 851c0 -6 -4 -10 -13 -15l-133 -76c-9 -5 -16 -8 -21 -8c-7 0 -13 4 -20 14l-14 19c-4 5 -6 9 -6 13c0 5 4 11 15 20l117 91
c9 7 15 11 21 11s11 -5 19 -15l28 -38c5 -6 7 -12 7 -16z" />
    <glyph glyph-name="Lcaron" unicode="&#x13d;" horiz-adv-x="524" 
d="M512 105v-76c0 -22 -13 -29 -30 -29h-380c-21 0 -32 5 -32 32v634c0 18 9 28 28 28h101c22 0 30 -7 30 -30v-530h255c19 0 28 -11 28 -29zM471 627c0 -68 -41 -124 -94 -161c-6 -5 -11 -7 -16 -7s-9 3 -13 8l-11 12c-2 4 -4 7 -4 10s3 7 7 11c16 17 36 43 36 62
c0 26 -36 48 -36 81c0 36 28 61 64 61c40 0 67 -40 67 -77z" />
    <glyph glyph-name="Lcommaaccent" unicode="&#x13b;" horiz-adv-x="524" 
d="M512 105v-76c0 -22 -13 -29 -30 -29h-380c-21 0 -32 5 -32 32v634c0 18 9 28 28 28h101c22 0 30 -7 30 -30v-530h255c19 0 28 -11 28 -29zM384 -117c0 -68 -41 -124 -94 -161c-6 -5 -11 -7 -16 -7s-9 3 -13 8l-11 12c-2 4 -4 7 -4 10s3 7 7 11c16 17 36 43 36 62
c0 26 -36 48 -36 81c0 36 28 61 64 61c40 0 67 -40 67 -77z" />
    <glyph glyph-name="Lslash" unicode="&#x141;" horiz-adv-x="524" 
d="M512 105v-76c0 -22 -13 -29 -30 -29h-380c-21 0 -32 5 -32 32v227l-77 -65c-13 -11 -25 -5 -25 11v25c0 19 8 20 21 31l81 68v337c0 18 9 28 28 28h101c22 0 30 -7 30 -30v-200l83 70c15 13 28 10 28 -4v-27c0 -18 -10 -25 -23 -36l-88 -74v-259h255c19 0 28 -11 28 -29z
" />
    <glyph glyph-name="Ldot" unicode="&#x13f;" horiz-adv-x="524" 
d="M512 105v-76c0 -22 -13 -29 -30 -29h-380c-21 0 -32 5 -32 32v634c0 18 9 28 28 28h101c22 0 30 -7 30 -30v-530h255c19 0 28 -11 28 -29zM455 381c0 -38 -34 -61 -64 -61s-65 21 -65 60s32 62 65 62c32 0 64 -22 64 -61z" />
    <glyph glyph-name="Nacute" unicode="&#x143;" horiz-adv-x="754" 
d="M684 663v-632c0 -26 -11 -31 -29 -31h-85c-18 0 -33 7 -44 22l-298 397h-2v-389c0 -22 -10 -30 -30 -30h-93c-23 0 -33 5 -33 29v634c0 26 12 31 33 31h84c20 0 30 -6 41 -21l298 -400h2v392c0 22 11 29 31 29h97c26 0 28 -14 28 -31zM480 851c0 -6 -4 -10 -13 -15
l-133 -76c-9 -5 -16 -8 -21 -8c-7 0 -13 4 -20 14l-14 19c-4 5 -6 9 -6 13c0 5 4 11 15 20l117 91c9 7 15 11 21 11s11 -5 19 -15l28 -38c5 -6 7 -12 7 -16z" />
    <glyph glyph-name="Ncaron" unicode="&#x147;" horiz-adv-x="754" 
d="M684 663v-632c0 -26 -11 -31 -29 -31h-85c-18 0 -33 7 -44 22l-298 397h-2v-389c0 -22 -10 -30 -30 -30h-93c-23 0 -33 5 -33 29v634c0 26 12 31 33 31h84c20 0 30 -6 41 -21l298 -400h2v392c0 22 11 29 31 29h97c26 0 28 -14 28 -31zM227 878c0 5 3 11 9 16l28 23
c5 4 9 6 13 6c5 0 10 -3 18 -9l83 -63l84 62c7 5 13 8 19 8c5 0 10 -3 17 -9l23 -20c5 -4 8 -8 8 -13s-3 -10 -10 -16l-94 -85c-11 -10 -18 -15 -37 -15h-22c-15 0 -23 1 -34 11l-97 89c-5 5 -8 10 -8 15z" />
    <glyph glyph-name="Ntilde" unicode="&#xd1;" horiz-adv-x="754" 
d="M684 663v-632c0 -26 -11 -31 -29 -31h-85c-18 0 -33 7 -44 22l-298 397h-2v-389c0 -22 -10 -30 -30 -30h-93c-23 0 -33 5 -33 29v634c0 26 12 31 33 31h84c20 0 30 -6 41 -21l298 -400h2v392c0 22 11 29 31 29h97c26 0 28 -14 28 -31zM542 834c0 -6 -3 -10 -8 -14
c-31 -23 -67 -46 -105 -46c-39 0 -68 35 -104 35c-12 0 -45 -11 -65 -22c-7 -4 -12 -6 -16 -6c-5 0 -9 3 -12 10l-22 44c-2 5 -4 9 -4 12c0 6 5 10 14 16c26 17 61 36 91 36c40 0 83 -36 111 -36c12 0 40 12 62 24c7 4 12 5 16 5c5 0 9 -3 13 -9l25 -36c3 -5 4 -9 4 -13z
" />
    <glyph glyph-name="Ncommaaccent" unicode="&#x145;" horiz-adv-x="754" 
d="M684 663v-632c0 -26 -11 -31 -29 -31h-85c-18 0 -33 7 -44 22l-298 397h-2v-389c0 -22 -10 -30 -30 -30h-93c-23 0 -33 5 -33 29v634c0 26 12 31 33 31h84c20 0 30 -6 41 -21l298 -400h2v392c0 22 11 29 31 29h97c26 0 28 -14 28 -31zM435 -117c0 -68 -41 -124 -94 -161
c-6 -5 -11 -7 -16 -7s-9 3 -13 8l-11 12c-2 4 -4 7 -4 10s3 7 7 11c16 17 36 43 36 62c0 26 -36 48 -36 81c0 36 28 61 64 61c40 0 67 -40 67 -77z" />
    <glyph glyph-name="Eng" unicode="&#x14a;" horiz-adv-x="754" 
d="M684 663v-647c0 -83 -25 -143 -74 -178c-34 -24 -82 -37 -146 -37c-20 0 -49 3 -74 8c-17 4 -20 14 -17 31l10 69c2 14 7 21 20 18c17 -4 38 -6 52 -6c18 0 39 4 51 16c12 11 19 30 19 58v27l-297 397h-2v-389c0 -22 -10 -30 -30 -30h-93c-23 0 -33 5 -33 29v634
c0 26 12 31 33 31h84c20 0 30 -6 41 -21l298 -400h2v392c0 22 11 29 31 29h97c26 0 28 -14 28 -31z" />
    <glyph glyph-name="Ograve" unicode="&#xd2;" horiz-adv-x="710" 
d="M672 351c0 -225 -132 -364 -320 -364c-201 0 -314 143 -314 358c0 214 121 364 320 364c209 0 314 -155 314 -358zM502 348c0 161 -53 226 -148 226c-87 0 -146 -77 -146 -225c0 -158 54 -227 149 -227c88 0 145 71 145 226zM458 798c0 -4 -2 -8 -6 -13l-14 -19
c-7 -10 -12 -14 -19 -14c-5 0 -13 3 -22 8l-133 76c-9 5 -13 9 -13 15c0 4 2 10 7 16l28 38c8 10 13 15 19 15s12 -4 21 -11l117 -91c11 -9 15 -15 15 -20z" />
    <glyph glyph-name="Oacute" unicode="&#xd3;" horiz-adv-x="710" 
d="M672 351c0 -225 -132 -364 -320 -364c-201 0 -314 143 -314 358c0 214 121 364 320 364c209 0 314 -155 314 -358zM502 348c0 161 -53 226 -148 226c-87 0 -146 -77 -146 -225c0 -158 54 -227 149 -227c88 0 145 71 145 226zM458 851c0 -6 -4 -10 -13 -15l-133 -76
c-9 -5 -16 -8 -21 -8c-7 0 -13 4 -20 14l-14 19c-4 5 -6 9 -6 13c0 5 4 11 15 20l117 91c9 7 15 11 21 11s11 -5 19 -15l28 -38c5 -6 7 -12 7 -16z" />
    <glyph glyph-name="Ocircumflex" unicode="&#xd4;" horiz-adv-x="710" 
d="M672 351c0 -225 -132 -364 -320 -364c-201 0 -314 143 -314 358c0 214 121 364 320 364c209 0 314 -155 314 -358zM502 348c0 161 -53 226 -148 226c-87 0 -146 -77 -146 -225c0 -158 54 -227 149 -227c88 0 145 71 145 226zM506 804c0 -5 -3 -11 -9 -16l-28 -23
c-5 -4 -9 -6 -13 -6c-5 0 -10 3 -18 9l-83 63l-84 -62c-7 -5 -13 -8 -19 -8c-5 0 -10 3 -17 9l-23 20c-5 4 -8 8 -8 13s3 10 10 16l94 85c11 10 18 15 37 15h22c15 0 23 -1 34 -11l97 -89c5 -5 8 -10 8 -15z" />
    <glyph glyph-name="Otilde" unicode="&#xd5;" horiz-adv-x="710" 
d="M672 351c0 -225 -132 -364 -320 -364c-201 0 -314 143 -314 358c0 214 121 364 320 364c209 0 314 -155 314 -358zM502 348c0 161 -53 226 -148 226c-87 0 -146 -77 -146 -225c0 -158 54 -227 149 -227c88 0 145 71 145 226zM520 834c0 -6 -3 -10 -8 -14
c-31 -23 -67 -46 -105 -46c-39 0 -68 35 -104 35c-12 0 -45 -11 -65 -22c-7 -4 -12 -6 -16 -6c-5 0 -9 3 -12 10l-22 44c-2 5 -4 9 -4 12c0 6 5 10 14 16c26 17 61 36 91 36c40 0 83 -36 111 -36c12 0 40 12 62 24c7 4 12 5 16 5c5 0 9 -3 13 -9l25 -36c3 -5 4 -9 4 -13z
" />
    <glyph glyph-name="Odieresis" unicode="&#xd6;" horiz-adv-x="710" 
d="M672 351c0 -225 -132 -364 -320 -364c-201 0 -314 143 -314 358c0 214 121 364 320 364c209 0 314 -155 314 -358zM502 348c0 161 -53 226 -148 226c-87 0 -146 -77 -146 -225c0 -158 54 -227 149 -227c88 0 145 71 145 226zM514 838c0 -38 -34 -61 -64 -61
s-65 21 -65 60s32 62 65 62c32 0 64 -22 64 -61zM325 838c0 -38 -34 -61 -64 -61s-65 21 -65 60s32 62 65 62c32 0 64 -22 64 -61z" />
    <glyph glyph-name="Omacron" unicode="&#x14c;" horiz-adv-x="710" 
d="M672 351c0 -225 -132 -364 -320 -364c-201 0 -314 143 -314 358c0 214 121 364 320 364c209 0 314 -155 314 -358zM502 348c0 161 -53 226 -148 226c-87 0 -146 -77 -146 -225c0 -158 54 -227 149 -227c88 0 145 71 145 226zM502 860v-27c0 -21 -7 -31 -29 -31h-240
c-20 0 -26 13 -26 31v27c0 19 5 29 26 29h240c20 0 29 -9 29 -29z" />
    <glyph glyph-name="Obreve" unicode="&#x14e;" horiz-adv-x="710" 
d="M672 351c0 -225 -132 -364 -320 -364c-201 0 -314 143 -314 358c0 214 121 364 320 364c209 0 314 -155 314 -358zM502 348c0 161 -53 226 -148 226c-87 0 -146 -77 -146 -225c0 -158 54 -227 149 -227c88 0 145 71 145 226zM491 889c0 -3 -1 -7 -2 -11
c-15 -64 -64 -107 -138 -107c-70 0 -116 44 -131 106c-1 4 -2 9 -2 12c0 10 6 15 25 15h30c20 0 23 -8 31 -21c10 -17 26 -30 50 -30c22 0 39 14 49 33c6 12 12 18 27 18h40c15 0 21 -5 21 -15z" />
    <glyph glyph-name="Ohungarumlaut" unicode="&#x150;" horiz-adv-x="710" 
d="M672 351c0 -225 -132 -364 -320 -364c-201 0 -314 143 -314 358c0 214 121 364 320 364c209 0 314 -155 314 -358zM502 348c0 161 -53 226 -148 226c-87 0 -146 -77 -146 -225c0 -158 54 -227 149 -227c88 0 145 71 145 226zM616 851c0 -6 -4 -10 -13 -15l-133 -76
c-9 -5 -16 -8 -21 -8c-7 0 -13 4 -20 14l-14 19c-4 5 -6 9 -6 13c0 5 4 11 15 20l117 91c9 7 15 11 21 11s11 -5 19 -15l28 -38c5 -6 7 -12 7 -16zM400 851c0 -6 -4 -10 -13 -15l-133 -76c-9 -5 -16 -8 -21 -8c-7 0 -13 4 -20 14l-14 19c-4 5 -6 9 -6 13c0 5 4 11 15 20
l117 91c9 7 15 11 21 11s11 -5 19 -15l28 -38c5 -6 7 -12 7 -16z" />
    <glyph glyph-name="Oslash" unicode="&#xd8;" horiz-adv-x="716" 
d="M681 351c0 -225 -132 -364 -320 -364c-73 0 -134 19 -183 53l-51 -67c-9 -12 -15 -18 -22 -18c-6 0 -12 4 -23 12l-33 25c-9 7 -14 13 -14 20c0 6 4 13 11 22l61 81c-39 60 -60 138 -60 230c0 214 121 364 320 364c62 0 115 -14 159 -39l55 73c5 7 10 10 15 10
c4 0 8 -1 13 -5l45 -34c10 -7 14 -13 14 -19c0 -5 -2 -10 -8 -17l-56 -74c51 -64 77 -153 77 -253zM223 269l216 285c-21 13 -47 20 -76 20c-87 0 -146 -77 -146 -225c0 -30 2 -56 6 -80zM511 348c0 46 -4 85 -13 116l-229 -304c24 -26 57 -38 97 -38c88 0 145 71 145 226z
" />
    <glyph glyph-name="Oslashacute" unicode="&#x1fe;" horiz-adv-x="716" 
d="M681 351c0 -225 -132 -364 -320 -364c-73 0 -134 19 -183 53l-51 -67c-9 -12 -15 -18 -22 -18c-6 0 -12 4 -23 12l-33 25c-9 7 -14 13 -14 20c0 6 4 13 11 22l61 81c-39 60 -60 138 -60 230c0 214 121 364 320 364c62 0 115 -14 159 -39l55 73c5 7 10 10 15 10
c4 0 8 -1 13 -5l45 -34c10 -7 14 -13 14 -19c0 -5 -2 -10 -8 -17l-56 -74c51 -64 77 -153 77 -253zM223 269l216 285c-21 13 -47 20 -76 20c-87 0 -146 -77 -146 -225c0 -30 2 -56 6 -80zM511 348c0 46 -4 85 -13 116l-229 -304c24 -26 57 -38 97 -38c88 0 145 71 145 226z
M475 863c0 -6 -4 -10 -13 -15l-133 -76c-9 -5 -16 -8 -21 -8c-7 0 -13 4 -20 14l-14 19c-4 5 -6 9 -6 13c0 5 4 11 15 20l117 91c9 7 15 11 21 11s11 -5 19 -15l28 -38c5 -6 7 -12 7 -16z" />
    <glyph glyph-name="OE" unicode="&#x152;" horiz-adv-x="996" 
d="M954 102v-74c0 -19 -9 -28 -28 -28h-388c-21 0 -32 10 -33 31c-32 -23 -98 -44 -156 -44c-201 0 -309 143 -309 358c0 214 121 364 320 364c58 0 107 -16 146 -38c3 12 11 23 25 23h398c16 0 25 -8 25 -18v-5l-9 -81c-2 -21 -15 -25 -39 -25h-242v-149h227
c22 0 30 -11 30 -27v-73c0 -20 -10 -29 -29 -29h-228v-158h261c18 0 29 -8 29 -27zM504 155v390c-32 16 -81 29 -136 29c-91 0 -158 -73 -158 -225c0 -158 56 -228 151 -228c49 0 107 14 143 34z" />
    <glyph glyph-name="Thorn" unicode="&#xde;" horiz-adv-x="571" 
d="M541 366c0 -130 -88 -236 -212 -236c-56 0 -89 9 -119 24v-123c0 -23 -11 -31 -31 -31h-91c-18 0 -28 10 -28 30v628c0 18 5 28 24 31l106 14c14 0 20 -8 20 -22v-130c26 19 71 34 121 34c122 0 210 -92 210 -219zM385 358c0 54 -28 105 -87 105c-43 0 -71 -12 -88 -21
v-173c18 -9 56 -18 85 -18c65 0 90 50 90 107z" />
    <glyph glyph-name="Racute" unicode="&#x154;" horiz-adv-x="623" 
d="M475 0c-20 0 -34 5 -45 22l-139 213h-62v-207c0 -16 -7 -28 -27 -28h-104c-20 0 -28 9 -28 29v631c0 27 6 34 33 34h152c85 0 187 -7 248 -75c36 -40 54 -95 54 -149c0 -89 -38 -163 -119 -204v-2l164 -234c4 -6 6 -12 6 -17c0 -9 -8 -13 -16 -13h-117zM397 467
c0 79 -54 107 -129 107h-39v-220h50c73 0 118 39 118 113zM415 851c0 -6 -4 -10 -13 -15l-133 -76c-9 -5 -16 -8 -21 -8c-7 0 -13 4 -20 14l-14 19c-4 5 -6 9 -6 13c0 5 4 11 15 20l117 91c9 7 15 11 21 11s11 -5 19 -15l28 -38c5 -6 7 -12 7 -16z" />
    <glyph glyph-name="Rcaron" unicode="&#x158;" horiz-adv-x="623" 
d="M475 0c-20 0 -34 5 -45 22l-139 213h-62v-207c0 -16 -7 -28 -27 -28h-104c-20 0 -28 9 -28 29v631c0 27 6 34 33 34h152c85 0 187 -7 248 -75c36 -40 54 -95 54 -149c0 -89 -38 -163 -119 -204v-2l164 -234c4 -6 6 -12 6 -17c0 -9 -8 -13 -16 -13h-117zM397 467
c0 79 -54 107 -129 107h-39v-220h50c73 0 118 39 118 113zM119 878c0 5 3 11 9 16l28 23c5 4 9 6 13 6c5 0 10 -3 18 -9l83 -63l84 62c7 5 13 8 19 8c5 0 10 -3 17 -9l23 -20c5 -4 8 -8 8 -13s-3 -10 -10 -16l-94 -85c-11 -10 -18 -15 -37 -15h-22c-15 0 -23 1 -34 11
l-97 89c-5 5 -8 10 -8 15z" />
    <glyph glyph-name="Rcommaaccent" unicode="&#x156;" horiz-adv-x="623" 
d="M475 0c-20 0 -34 5 -45 22l-139 213h-62v-207c0 -16 -7 -28 -27 -28h-104c-20 0 -28 9 -28 29v631c0 27 6 34 33 34h152c85 0 187 -7 248 -75c36 -40 54 -95 54 -149c0 -89 -38 -163 -119 -204v-2l164 -234c4 -6 6 -12 6 -17c0 -9 -8 -13 -16 -13h-117zM397 467
c0 79 -54 107 -129 107h-39v-220h50c73 0 118 39 118 113zM390 -117c0 -68 -41 -124 -94 -161c-6 -5 -11 -7 -16 -7s-9 3 -13 8l-11 12c-2 4 -4 7 -4 10s3 7 7 11c16 17 36 43 36 62c0 26 -36 48 -36 81c0 36 28 61 64 61c40 0 67 -40 67 -77z" />
    <glyph glyph-name="Sacute" unicode="&#x15a;" horiz-adv-x="567" 
d="M527 214c0 -144 -115 -228 -252 -228c-65 0 -144 13 -209 36c-16 5 -21 12 -21 21c0 5 2 11 4 17l27 81c3 10 8 19 21 19c5 0 10 -1 17 -4c49 -19 105 -31 156 -31c42 0 95 22 95 71c0 38 -30 57 -61 71l-134 62c-74 34 -123 96 -123 180c0 128 128 200 245 200
c72 0 134 -13 197 -40c16 -7 22 -14 22 -23c0 -4 -2 -9 -4 -15l-31 -78c-5 -13 -11 -18 -20 -18c-5 0 -11 2 -18 5c-41 18 -95 32 -136 32c-40 0 -85 -15 -85 -62c0 -32 40 -52 65 -63l115 -52c79 -36 130 -90 130 -181zM387 851c0 -6 -4 -10 -13 -15l-133 -76
c-9 -5 -16 -8 -21 -8c-7 0 -13 4 -20 14l-14 19c-4 5 -6 9 -6 13c0 5 4 11 15 20l117 91c9 7 15 11 21 11s11 -5 19 -15l28 -38c5 -6 7 -12 7 -16z" />
    <glyph glyph-name="Scircumflex" unicode="&#x15c;" horiz-adv-x="567" 
d="M527 214c0 -144 -115 -228 -252 -228c-65 0 -144 13 -209 36c-16 5 -21 12 -21 21c0 5 2 11 4 17l27 81c3 10 8 19 21 19c5 0 10 -1 17 -4c49 -19 105 -31 156 -31c42 0 95 22 95 71c0 38 -30 57 -61 71l-134 62c-74 34 -123 96 -123 180c0 128 128 200 245 200
c72 0 134 -13 197 -40c16 -7 22 -14 22 -23c0 -4 -2 -9 -4 -15l-31 -78c-5 -13 -11 -18 -20 -18c-5 0 -11 2 -18 5c-41 18 -95 32 -136 32c-40 0 -85 -15 -85 -62c0 -32 40 -52 65 -63l115 -52c79 -36 130 -90 130 -181zM434 804c0 -5 -3 -11 -9 -16l-28 -23
c-5 -4 -9 -6 -13 -6c-5 0 -10 3 -18 9l-83 63l-84 -62c-7 -5 -13 -8 -19 -8c-5 0 -10 3 -17 9l-23 20c-5 4 -8 8 -8 13s3 10 10 16l94 85c11 10 18 15 37 15h22c15 0 23 -1 34 -11l97 -89c5 -5 8 -10 8 -15z" />
    <glyph glyph-name="Scaron" unicode="&#x160;" horiz-adv-x="567" 
d="M527 214c0 -144 -115 -228 -252 -228c-65 0 -144 13 -209 36c-16 5 -21 12 -21 21c0 5 2 11 4 17l27 81c3 10 8 19 21 19c5 0 10 -1 17 -4c49 -19 105 -31 156 -31c42 0 95 22 95 71c0 38 -30 57 -61 71l-134 62c-74 34 -123 96 -123 180c0 128 128 200 245 200
c72 0 134 -13 197 -40c16 -7 22 -14 22 -23c0 -4 -2 -9 -4 -15l-31 -78c-5 -13 -11 -18 -20 -18c-5 0 -11 2 -18 5c-41 18 -95 32 -136 32c-40 0 -85 -15 -85 -62c0 -32 40 -52 65 -63l115 -52c79 -36 130 -90 130 -181zM134 878c0 5 3 11 9 16l28 23c5 4 9 6 13 6
c5 0 10 -3 18 -9l83 -63l84 62c7 5 13 8 19 8c5 0 10 -3 17 -9l23 -20c5 -4 8 -8 8 -13s-3 -10 -10 -16l-94 -85c-11 -10 -18 -15 -37 -15h-22c-15 0 -23 1 -34 11l-97 89c-5 5 -8 10 -8 15z" />
    <glyph glyph-name="Scedilla" unicode="&#x15e;" horiz-adv-x="567" 
d="M391 -124c0 -56 -54 -88 -125 -88c-26 0 -56 7 -77 15c-10 4 -13 9 -13 15c0 2 0 4 1 6l8 28c2 7 4 9 9 9c3 0 9 -1 15 -3c16 -5 35 -9 48 -9c21 0 38 9 38 24c0 23 -15 30 -48 30h-26c-20 0 -25 9 -25 23c0 4 0 10 1 15l6 50c-46 5 -95 16 -137 31c-16 5 -21 12 -21 21
c0 5 2 11 4 17l27 81c3 10 8 19 21 19c5 0 10 -1 17 -4c49 -19 105 -31 156 -31c42 0 95 22 95 71c0 38 -30 57 -61 71l-134 62c-74 34 -123 96 -123 180c0 128 128 200 245 200c72 0 134 -13 197 -40c16 -7 22 -14 22 -23c0 -4 -2 -9 -4 -15l-31 -78
c-5 -13 -11 -18 -20 -18c-5 0 -11 2 -18 5c-41 18 -95 32 -136 32c-40 0 -85 -15 -85 -62c0 -32 40 -52 65 -63l115 -52c79 -36 130 -90 130 -181c0 -143 -114 -227 -249 -228l-2 -27h8c70 0 107 -32 107 -83z" />
    <glyph glyph-name="Scommaaccent" unicode="&#x218;" horiz-adv-x="567" 
d="M527 214c0 -144 -115 -228 -252 -228c-65 0 -144 13 -209 36c-16 5 -21 12 -21 21c0 5 2 11 4 17l27 81c3 10 8 19 21 19c5 0 10 -1 17 -4c49 -19 105 -31 156 -31c42 0 95 22 95 71c0 38 -30 57 -61 71l-134 62c-74 34 -123 96 -123 180c0 128 128 200 245 200
c72 0 134 -13 197 -40c16 -7 22 -14 22 -23c0 -4 -2 -9 -4 -15l-31 -78c-5 -13 -11 -18 -20 -18c-5 0 -11 2 -18 5c-41 18 -95 32 -136 32c-40 0 -85 -15 -85 -62c0 -32 40 -52 65 -63l115 -52c79 -36 130 -90 130 -181zM321 -117c0 -68 -41 -124 -94 -161
c-6 -5 -11 -7 -16 -7s-9 3 -13 8l-11 12c-2 4 -4 7 -4 10s3 7 7 11c16 17 36 43 36 62c0 26 -36 48 -36 81c0 36 28 61 64 61c40 0 67 -40 67 -77z" />
    <glyph glyph-name="Tcaron" unicode="&#x164;" horiz-adv-x="596" 
d="M575 694c20 0 27 -10 25 -25l-8 -79c-2 -20 -15 -25 -36 -25h-176v-539c0 -22 -3 -26 -23 -26h-113c-21 0 -23 3 -23 24v541h-183c-20 0 -28 10 -28 30v74c0 17 9 25 27 25h538zM148 878c0 5 3 11 9 16l28 23c5 4 9 6 13 6c5 0 10 -3 18 -9l83 -63l84 62c7 5 13 8 19 8
c5 0 10 -3 17 -9l23 -20c5 -4 8 -8 8 -13s-3 -10 -10 -16l-94 -85c-11 -10 -18 -15 -37 -15h-22c-15 0 -23 1 -34 11l-97 89c-5 5 -8 10 -8 15z" />
    <glyph glyph-name="Tcommaaccent" unicode="&#x162;" horiz-adv-x="596" 
d="M575 694c20 0 27 -10 25 -25l-8 -79c-2 -20 -15 -25 -36 -25h-176v-539c0 -22 -3 -26 -23 -26h-113c-21 0 -23 3 -23 24v541h-183c-20 0 -28 10 -28 30v74c0 17 9 25 27 25h538zM366 -117c0 -68 -41 -124 -94 -161c-6 -5 -11 -7 -16 -7s-9 3 -13 8l-11 12
c-2 4 -4 7 -4 10s3 7 7 11c16 17 36 43 36 62c0 26 -36 48 -36 81c0 36 28 61 64 61c40 0 67 -40 67 -77z" />
    <glyph glyph-name="uni021A" unicode="&#x21a;" horiz-adv-x="596" 
d="M575 694c20 0 27 -10 25 -25l-8 -79c-2 -20 -15 -25 -36 -25h-176v-539c0 -22 -3 -26 -23 -26h-113c-21 0 -23 3 -23 24v541h-183c-20 0 -28 10 -28 30v74c0 17 9 25 27 25h538zM366 -117c0 -68 -41 -124 -94 -161c-6 -5 -11 -7 -16 -7s-9 3 -13 8l-11 12
c-2 4 -4 7 -4 10s3 7 7 11c16 17 36 43 36 62c0 26 -36 48 -36 81c0 36 28 61 64 61c40 0 67 -40 67 -77z" />
    <glyph glyph-name="Tbar" unicode="&#x166;" horiz-adv-x="596" 
d="M575 694c20 0 27 -10 25 -25l-8 -79c-2 -20 -15 -25 -36 -25h-176v-211h86c20 0 23 -4 23 -18v-27c0 -18 -5 -19 -23 -19h-86v-264c0 -22 -3 -26 -23 -26h-113c-21 0 -23 3 -23 24v266h-84c-17 0 -20 3 -20 19v25c0 19 3 20 21 20h83v211h-183c-20 0 -28 10 -28 30v74
c0 17 9 25 27 25h538z" />
    <glyph glyph-name="Ugrave" unicode="&#xd9;" horiz-adv-x="738" 
d="M672 668v-356c0 -225 -115 -325 -307 -325c-206 0 -299 112 -299 324v357c0 20 13 26 31 26h99c19 0 29 -5 29 -26v-345c0 -158 54 -202 147 -202c88 0 142 46 142 201v346c0 20 12 26 30 26h99c19 0 29 -5 29 -26zM472 798c0 -4 -2 -8 -6 -13l-14 -19
c-7 -10 -12 -14 -19 -14c-5 0 -13 3 -22 8l-133 76c-9 5 -13 9 -13 15c0 4 2 10 7 16l28 38c8 10 13 15 19 15s12 -4 21 -11l117 -91c11 -9 15 -15 15 -20z" />
    <glyph glyph-name="Uacute" unicode="&#xda;" horiz-adv-x="738" 
d="M672 668v-356c0 -225 -115 -325 -307 -325c-206 0 -299 112 -299 324v357c0 20 13 26 31 26h99c19 0 29 -5 29 -26v-345c0 -158 54 -202 147 -202c88 0 142 46 142 201v346c0 20 12 26 30 26h99c19 0 29 -5 29 -26zM472 851c0 -6 -4 -10 -13 -15l-133 -76
c-9 -5 -16 -8 -21 -8c-7 0 -13 4 -20 14l-14 19c-4 5 -6 9 -6 13c0 5 4 11 15 20l117 91c9 7 15 11 21 11s11 -5 19 -15l28 -38c5 -6 7 -12 7 -16z" />
    <glyph glyph-name="Ucircumflex" unicode="&#xdb;" horiz-adv-x="738" 
d="M672 668v-356c0 -225 -115 -325 -307 -325c-206 0 -299 112 -299 324v357c0 20 13 26 31 26h99c19 0 29 -5 29 -26v-345c0 -158 54 -202 147 -202c88 0 142 46 142 201v346c0 20 12 26 30 26h99c19 0 29 -5 29 -26zM520 804c0 -5 -3 -11 -9 -16l-28 -23
c-5 -4 -9 -6 -13 -6c-5 0 -10 3 -18 9l-83 63l-84 -62c-7 -5 -13 -8 -19 -8c-5 0 -10 3 -17 9l-23 20c-5 4 -8 8 -8 13s3 10 10 16l94 85c11 10 18 15 37 15h22c15 0 23 -1 34 -11l97 -89c5 -5 8 -10 8 -15z" />
    <glyph glyph-name="Utilde" unicode="&#x168;" horiz-adv-x="738" 
d="M672 668v-356c0 -225 -115 -325 -307 -325c-206 0 -299 112 -299 324v357c0 20 13 26 31 26h99c19 0 29 -5 29 -26v-345c0 -158 54 -202 147 -202c88 0 142 46 142 201v346c0 20 12 26 30 26h99c19 0 29 -5 29 -26zM537 834c0 -6 -3 -10 -8 -14c-31 -23 -67 -46 -105 -46
c-39 0 -68 35 -104 35c-12 0 -45 -11 -65 -22c-7 -4 -12 -6 -16 -6c-5 0 -9 3 -12 10l-22 44c-2 5 -4 9 -4 12c0 6 5 10 14 16c26 17 61 36 91 36c40 0 83 -36 111 -36c12 0 40 12 62 24c7 4 12 5 16 5c5 0 9 -3 13 -9l25 -36c3 -5 4 -9 4 -13z" />
    <glyph glyph-name="Udieresis" unicode="&#xdc;" horiz-adv-x="738" 
d="M672 668v-356c0 -225 -115 -325 -307 -325c-206 0 -299 112 -299 324v357c0 20 13 26 31 26h99c19 0 29 -5 29 -26v-345c0 -158 54 -202 147 -202c88 0 142 46 142 201v346c0 20 12 26 30 26h99c19 0 29 -5 29 -26zM528 838c0 -38 -34 -61 -64 -61s-65 21 -65 60
s32 62 65 62c32 0 64 -22 64 -61zM339 838c0 -38 -34 -61 -64 -61s-65 21 -65 60s32 62 65 62c32 0 64 -22 64 -61z" />
    <glyph glyph-name="Umacron" unicode="&#x16a;" horiz-adv-x="738" 
d="M672 668v-356c0 -225 -115 -325 -307 -325c-206 0 -299 112 -299 324v357c0 20 13 26 31 26h99c19 0 29 -5 29 -26v-345c0 -158 54 -202 147 -202c88 0 142 46 142 201v346c0 20 12 26 30 26h99c19 0 29 -5 29 -26zM516 860v-27c0 -21 -7 -31 -29 -31h-240
c-20 0 -26 13 -26 31v27c0 19 5 29 26 29h240c20 0 29 -9 29 -29z" />
    <glyph glyph-name="Ubreve" unicode="&#x16c;" horiz-adv-x="738" 
d="M672 668v-356c0 -225 -115 -325 -307 -325c-206 0 -299 112 -299 324v357c0 20 13 26 31 26h99c19 0 29 -5 29 -26v-345c0 -158 54 -202 147 -202c88 0 142 46 142 201v346c0 20 12 26 30 26h99c19 0 29 -5 29 -26zM505 889c0 -3 -1 -7 -2 -11
c-15 -64 -64 -107 -138 -107c-70 0 -116 44 -131 106c-1 4 -2 9 -2 12c0 10 6 15 25 15h30c20 0 23 -8 31 -21c10 -17 26 -30 50 -30c22 0 39 14 49 33c6 12 12 18 27 18h40c15 0 21 -5 21 -15z" />
    <glyph glyph-name="Uring" unicode="&#x16e;" horiz-adv-x="738" 
d="M672 668v-356c0 -225 -115 -325 -307 -325c-206 0 -299 112 -299 324v357c0 20 13 26 31 26h99c19 0 29 -5 29 -26v-345c0 -158 54 -202 147 -202c88 0 142 46 142 201v346c0 20 12 26 30 26h99c19 0 29 -5 29 -26zM450 838c0 -44 -36 -80 -81 -80c-44 0 -81 36 -81 80
s37 81 81 81c45 0 81 -37 81 -81zM394 838c0 14 -11 25 -25 25s-25 -11 -25 -25s11 -24 25 -24s25 10 25 24z" />
    <glyph glyph-name="Uhungarumlaut" unicode="&#x170;" horiz-adv-x="738" 
d="M672 668v-356c0 -225 -115 -325 -307 -325c-206 0 -299 112 -299 324v357c0 20 13 26 31 26h99c19 0 29 -5 29 -26v-345c0 -158 54 -202 147 -202c88 0 142 46 142 201v346c0 20 12 26 30 26h99c19 0 29 -5 29 -26zM627 851c0 -6 -4 -10 -13 -15l-133 -76
c-9 -5 -16 -8 -21 -8c-7 0 -13 4 -20 14l-14 19c-4 5 -6 9 -6 13c0 5 4 11 15 20l117 91c9 7 15 11 21 11s11 -5 19 -15l28 -38c5 -6 7 -12 7 -16zM411 851c0 -6 -4 -10 -13 -15l-133 -76c-9 -5 -16 -8 -21 -8c-7 0 -13 4 -20 14l-14 19c-4 5 -6 9 -6 13c0 5 4 11 15 20
l117 91c9 7 15 11 21 11s11 -5 19 -15l28 -38c5 -6 7 -12 7 -16z" />
    <glyph glyph-name="Uogonek" unicode="&#x172;" horiz-adv-x="738" 
d="M476 -182c0 -6 -3 -12 -13 -15c-21 -8 -56 -15 -82 -15c-67 0 -120 27 -120 83c0 28 12 53 35 76c14 14 32 28 53 40c-195 6 -283 117 -283 324v357c0 20 13 26 31 26h99c19 0 29 -5 29 -26v-345c0 -158 54 -202 147 -202c88 0 142 46 142 201v346c0 20 12 26 30 26h99
c19 0 29 -5 29 -26v-356c0 -196 -87 -297 -236 -320c-55 -42 -79 -74 -79 -105c0 -27 19 -37 43 -37c13 0 39 4 54 9c1 0 3 1 4 1c4 0 8 -3 9 -8l8 -28c1 -2 1 -4 1 -6z" />
    <glyph glyph-name="Wgrave" unicode="&#x1e80;" horiz-adv-x="977" 
d="M832 694h113c15 0 19 -16 15 -28l-184 -635c-6 -20 -19 -31 -38 -31h-82c-18 0 -31 11 -37 30l-125 408h-2l-124 -403c-9 -28 -19 -35 -41 -35h-78c-19 0 -30 7 -39 36l-192 626c-5 15 -3 32 18 32h124c23 0 33 -12 37 -28l107 -407h1l120 411c5 16 18 24 33 24h85
c18 0 28 -9 32 -23l119 -412h2l103 410c5 18 19 25 33 25zM610 812c0 -4 -2 -8 -6 -13l-14 -19c-7 -10 -12 -14 -19 -14c-5 0 -13 3 -22 8l-133 76c-9 5 -13 9 -13 15c0 4 2 10 7 16l28 38c8 10 13 15 19 15s12 -4 21 -11l117 -91c11 -9 15 -15 15 -20z" />
    <glyph glyph-name="Wacute" unicode="&#x1e82;" horiz-adv-x="977" 
d="M832 694h113c15 0 19 -16 15 -28l-184 -635c-6 -20 -19 -31 -38 -31h-82c-18 0 -31 11 -37 30l-125 408h-2l-124 -403c-9 -28 -19 -35 -41 -35h-78c-19 0 -30 7 -39 36l-192 626c-5 15 -3 32 18 32h124c23 0 33 -12 37 -28l107 -407h1l120 411c5 16 18 24 33 24h85
c18 0 28 -9 32 -23l119 -412h2l103 410c5 18 19 25 33 25zM595 860c0 -6 -4 -10 -13 -15l-133 -76c-9 -5 -16 -8 -21 -8c-7 0 -13 4 -20 14l-14 19c-4 5 -6 9 -6 13c0 5 4 11 15 20l117 91c9 7 15 11 21 11s11 -5 19 -15l28 -38c5 -6 7 -12 7 -16z" />
    <glyph glyph-name="Wcircumflex" unicode="&#x174;" horiz-adv-x="977" 
d="M832 694h113c15 0 19 -16 15 -28l-184 -635c-6 -20 -19 -31 -38 -31h-82c-18 0 -31 11 -37 30l-125 408h-2l-124 -403c-9 -28 -19 -35 -41 -35h-78c-19 0 -30 7 -39 36l-192 626c-5 15 -3 32 18 32h124c23 0 33 -12 37 -28l107 -407h1l120 411c5 16 18 24 33 24h85
c18 0 28 -9 32 -23l119 -412h2l103 410c5 18 19 25 33 25zM639 804c0 -5 -3 -11 -9 -16l-28 -23c-5 -4 -9 -6 -13 -6c-5 0 -10 3 -18 9l-83 63l-84 -62c-7 -5 -13 -8 -19 -8c-5 0 -10 3 -17 9l-23 20c-5 4 -8 8 -8 13s3 10 10 16l94 85c11 10 18 15 37 15h22
c15 0 23 -1 34 -11l97 -89c5 -5 8 -10 8 -15z" />
    <glyph glyph-name="Wdieresis" unicode="&#x1e84;" horiz-adv-x="977" 
d="M832 694h113c15 0 19 -16 15 -28l-184 -635c-6 -20 -19 -31 -38 -31h-82c-18 0 -31 11 -37 30l-125 408h-2l-124 -403c-9 -28 -19 -35 -41 -35h-78c-19 0 -30 7 -39 36l-192 626c-5 15 -3 32 18 32h124c23 0 33 -12 37 -28l107 -407h1l120 411c5 16 18 24 33 24h85
c18 0 28 -9 32 -23l119 -412h2l103 410c5 18 19 25 33 25zM651 807c0 -38 -34 -61 -64 -61s-65 21 -65 60s32 62 65 62c32 0 64 -22 64 -61zM462 807c0 -38 -34 -61 -64 -61s-65 21 -65 60s32 62 65 62c32 0 64 -22 64 -61z" />
    <glyph glyph-name="Ygrave" unicode="&#x1ef2;" horiz-adv-x="627" 
d="M611 680c0 -3 -1 -7 -4 -12l-210 -371v-270c0 -17 -9 -27 -27 -27h-105c-17 0 -27 10 -27 29v261l-219 377c-2 3 -3 7 -3 10c0 10 8 17 19 17h121c19 0 32 -7 39 -21l129 -249h2l129 249c8 15 18 21 38 21h97c12 0 21 -4 21 -14zM420 778c0 -4 -2 -8 -6 -13l-14 -19
c-7 -10 -12 -14 -19 -14c-5 0 -13 3 -22 8l-133 76c-9 5 -13 9 -13 15c0 4 2 10 7 16l28 38c8 10 13 15 19 15s12 -4 21 -11l117 -91c11 -9 15 -15 15 -20z" />
    <glyph glyph-name="Yacute" unicode="&#xdd;" horiz-adv-x="627" 
d="M611 680c0 -3 -1 -7 -4 -12l-210 -371v-270c0 -17 -9 -27 -27 -27h-105c-17 0 -27 10 -27 29v261l-219 377c-2 3 -3 7 -3 10c0 10 8 17 19 17h121c19 0 32 -7 39 -21l129 -249h2l129 249c8 15 18 21 38 21h97c12 0 21 -4 21 -14zM417 851c0 -6 -4 -10 -13 -15l-133 -76
c-9 -5 -16 -8 -21 -8c-7 0 -13 4 -20 14l-14 19c-4 5 -6 9 -6 13c0 5 4 11 15 20l117 91c9 7 15 11 21 11s11 -5 19 -15l28 -38c5 -6 7 -12 7 -16z" />
    <glyph glyph-name="Ycircumflex" unicode="&#x176;" horiz-adv-x="627" 
d="M611 680c0 -3 -1 -7 -4 -12l-210 -371v-270c0 -17 -9 -27 -27 -27h-105c-17 0 -27 10 -27 29v261l-219 377c-2 3 -3 7 -3 10c0 10 8 17 19 17h121c19 0 32 -7 39 -21l129 -249h2l129 249c8 15 18 21 38 21h97c12 0 21 -4 21 -14zM464 804c0 -5 -3 -11 -9 -16l-28 -23
c-5 -4 -9 -6 -13 -6c-5 0 -10 3 -18 9l-83 63l-84 -62c-7 -5 -13 -8 -19 -8c-5 0 -10 3 -17 9l-23 20c-5 4 -8 8 -8 13s3 10 10 16l94 85c11 10 18 15 37 15h22c15 0 23 -1 34 -11l97 -89c5 -5 8 -10 8 -15z" />
    <glyph glyph-name="Ydieresis" unicode="&#x178;" horiz-adv-x="627" 
d="M611 680c0 -3 -1 -7 -4 -12l-210 -371v-270c0 -17 -9 -27 -27 -27h-105c-17 0 -27 10 -27 29v261l-219 377c-2 3 -3 7 -3 10c0 10 8 17 19 17h121c19 0 32 -7 39 -21l129 -249h2l129 249c8 15 18 21 38 21h97c12 0 21 -4 21 -14zM472 838c0 -38 -34 -61 -64 -61
s-65 21 -65 60s32 62 65 62c32 0 64 -22 64 -61zM283 838c0 -38 -34 -61 -64 -61s-65 21 -65 60s32 62 65 62c32 0 64 -22 64 -61z" />
    <glyph glyph-name="Zacute" unicode="&#x179;" horiz-adv-x="621" 
d="M589 100v-71c0 -17 -9 -29 -26 -29h-508c-15 0 -23 12 -23 26v38c0 14 2 24 11 37l312 463l-1 1h-278c-18 0 -29 8 -29 29v76c0 15 9 24 24 24h472c21 0 28 -12 28 -27v-30c0 -18 -2 -35 -14 -52l-308 -455l1 -1h312c17 0 27 -9 27 -29zM424 851c0 -6 -4 -10 -13 -15
l-133 -76c-9 -5 -16 -8 -21 -8c-7 0 -13 4 -20 14l-14 19c-4 5 -6 9 -6 13c0 5 4 11 15 20l117 91c9 7 15 11 21 11s11 -5 19 -15l28 -38c5 -6 7 -12 7 -16z" />
    <glyph glyph-name="Zcaron" unicode="&#x17d;" horiz-adv-x="621" 
d="M589 100v-71c0 -17 -9 -29 -26 -29h-508c-15 0 -23 12 -23 26v38c0 14 2 24 11 37l312 463l-1 1h-278c-18 0 -29 8 -29 29v76c0 15 9 24 24 24h472c21 0 28 -12 28 -27v-30c0 -18 -2 -35 -14 -52l-308 -455l1 -1h312c17 0 27 -9 27 -29zM161 878c0 5 3 11 9 16l28 23
c5 4 9 6 13 6c5 0 10 -3 18 -9l83 -63l84 62c7 5 13 8 19 8c5 0 10 -3 17 -9l23 -20c5 -4 8 -8 8 -13s-3 -10 -10 -16l-94 -85c-11 -10 -18 -15 -37 -15h-22c-15 0 -23 1 -34 11l-97 89c-5 5 -8 10 -8 15z" />
    <glyph glyph-name="Zdotaccent" unicode="&#x17b;" horiz-adv-x="621" 
d="M589 100v-71c0 -17 -9 -29 -26 -29h-508c-15 0 -23 12 -23 26v38c0 14 2 24 11 37l312 463l-1 1h-278c-18 0 -29 8 -29 29v76c0 15 9 24 24 24h472c21 0 28 -12 28 -27v-30c0 -18 -2 -35 -14 -52l-308 -455l1 -1h312c17 0 27 -9 27 -29zM375 838c0 -38 -34 -61 -64 -61
s-65 21 -65 60s32 62 65 62c32 0 64 -22 64 -61z" />
    <glyph glyph-name="agrave" unicode="&#xe0;" horiz-adv-x="574" 
d="M554 81v-58c0 -15 -10 -23 -24 -23h-53c-59 0 -83 17 -96 46h-2c-27 -31 -91 -59 -140 -59c-144 0 -211 114 -211 247c0 177 110 267 220 267c56 0 101 -26 122 -56l3 22c1 11 10 20 23 20h90c14 0 24 -8 24 -24v-345c0 -10 4 -17 15 -17h8c14 0 21 -5 21 -20zM360 150
v193c-18 16 -51 34 -81 34c-49 0 -95 -40 -95 -133c0 -62 16 -136 92 -136c36 0 72 27 84 42zM380 598c0 -4 -2 -8 -6 -13l-14 -19c-7 -10 -12 -14 -19 -14c-5 0 -13 3 -22 8l-133 76c-9 5 -13 9 -13 15c0 4 2 10 7 16l28 38c8 10 13 15 19 15s12 -4 21 -11l117 -91
c11 -9 15 -15 15 -20z" />
    <glyph glyph-name="aacute" unicode="&#xe1;" horiz-adv-x="574" 
d="M554 81v-58c0 -15 -10 -23 -24 -23h-53c-59 0 -83 17 -96 46h-2c-27 -31 -91 -59 -140 -59c-144 0 -211 114 -211 247c0 177 110 267 220 267c56 0 101 -26 122 -56l3 22c1 11 10 20 23 20h90c14 0 24 -8 24 -24v-345c0 -10 4 -17 15 -17h8c14 0 21 -5 21 -20zM360 150
v193c-18 16 -51 34 -81 34c-49 0 -95 -40 -95 -133c0 -62 16 -136 92 -136c36 0 72 27 84 42zM410 651c0 -6 -4 -10 -13 -15l-133 -76c-9 -5 -16 -8 -21 -8c-7 0 -13 4 -20 14l-14 19c-4 5 -6 9 -6 13c0 5 4 11 15 20l117 91c9 7 15 11 21 11s11 -5 19 -15l28 -38
c5 -6 7 -12 7 -16z" />
    <glyph glyph-name="acircumflex" unicode="&#xe2;" horiz-adv-x="574" 
d="M554 81v-58c0 -15 -10 -23 -24 -23h-53c-59 0 -83 17 -96 46h-2c-27 -31 -91 -59 -140 -59c-144 0 -211 114 -211 247c0 177 110 267 220 267c56 0 101 -26 122 -56l3 22c1 11 10 20 23 20h90c14 0 24 -8 24 -24v-345c0 -10 4 -17 15 -17h8c14 0 21 -5 21 -20zM360 150
v193c-18 16 -51 34 -81 34c-49 0 -95 -40 -95 -133c0 -62 16 -136 92 -136c36 0 72 27 84 42zM448 604c0 -5 -3 -11 -9 -16l-28 -23c-5 -4 -9 -6 -13 -6c-5 0 -10 3 -18 9l-83 63l-84 -62c-7 -5 -13 -8 -19 -8c-5 0 -10 3 -17 9l-23 20c-5 4 -8 8 -8 13s3 10 10 16l94 85
c11 10 18 15 37 15h22c15 0 23 -1 34 -11l97 -89c5 -5 8 -10 8 -15z" />
    <glyph glyph-name="atilde" unicode="&#xe3;" horiz-adv-x="574" 
d="M554 81v-58c0 -15 -10 -23 -24 -23h-53c-59 0 -83 17 -96 46h-2c-27 -31 -91 -59 -140 -59c-144 0 -211 114 -211 247c0 177 110 267 220 267c56 0 101 -26 122 -56l3 22c1 11 10 20 23 20h90c14 0 24 -8 24 -24v-345c0 -10 4 -17 15 -17h8c14 0 21 -5 21 -20zM360 150
v193c-18 16 -51 34 -81 34c-49 0 -95 -40 -95 -133c0 -62 16 -136 92 -136c36 0 72 27 84 42zM462 634c0 -6 -3 -10 -8 -14c-31 -23 -67 -46 -105 -46c-39 0 -68 35 -104 35c-12 0 -45 -11 -65 -22c-7 -4 -12 -6 -16 -6c-5 0 -9 3 -12 10l-22 44c-2 5 -4 9 -4 12
c0 6 5 10 14 16c26 17 61 36 91 36c40 0 83 -36 111 -36c12 0 40 12 62 24c7 4 12 5 16 5c5 0 9 -3 13 -9l25 -36c3 -5 4 -9 4 -13z" />
    <glyph glyph-name="adieresis" unicode="&#xe4;" horiz-adv-x="574" 
d="M554 81v-58c0 -15 -10 -23 -24 -23h-53c-59 0 -83 17 -96 46h-2c-27 -31 -91 -59 -140 -59c-144 0 -211 114 -211 247c0 177 110 267 220 267c56 0 101 -26 122 -56l3 22c1 11 10 20 23 20h90c14 0 24 -8 24 -24v-345c0 -10 4 -17 15 -17h8c14 0 21 -5 21 -20zM360 150
v193c-18 16 -51 34 -81 34c-49 0 -95 -40 -95 -133c0 -62 16 -136 92 -136c36 0 72 27 84 42zM456 638c0 -38 -34 -61 -64 -61s-65 21 -65 60s32 62 65 62c32 0 64 -22 64 -61zM267 638c0 -38 -34 -61 -64 -61s-65 21 -65 60s32 62 65 62c32 0 64 -22 64 -61z" />
    <glyph glyph-name="amacron" unicode="&#x101;" horiz-adv-x="574" 
d="M554 81v-58c0 -15 -10 -23 -24 -23h-53c-59 0 -83 17 -96 46h-2c-27 -31 -91 -59 -140 -59c-144 0 -211 114 -211 247c0 177 110 267 220 267c56 0 101 -26 122 -56l3 22c1 11 10 20 23 20h90c14 0 24 -8 24 -24v-345c0 -10 4 -17 15 -17h8c14 0 21 -5 21 -20zM360 150
v193c-18 16 -51 34 -81 34c-49 0 -95 -40 -95 -133c0 -62 16 -136 92 -136c36 0 72 27 84 42zM454 660v-27c0 -21 -7 -31 -29 -31h-240c-20 0 -26 13 -26 31v27c0 19 5 29 26 29h240c20 0 29 -9 29 -29z" />
    <glyph glyph-name="abreve" unicode="&#x103;" horiz-adv-x="574" 
d="M554 81v-58c0 -15 -10 -23 -24 -23h-53c-59 0 -83 17 -96 46h-2c-27 -31 -91 -59 -140 -59c-144 0 -211 114 -211 247c0 177 110 267 220 267c56 0 101 -26 122 -56l3 22c1 11 10 20 23 20h90c14 0 24 -8 24 -24v-345c0 -10 4 -17 15 -17h8c14 0 21 -5 21 -20zM360 150
v193c-18 16 -51 34 -81 34c-49 0 -95 -40 -95 -133c0 -62 16 -136 92 -136c36 0 72 27 84 42zM433 689c0 -3 -1 -7 -2 -11c-15 -64 -64 -107 -138 -107c-70 0 -116 44 -131 106c-1 4 -2 9 -2 12c0 10 6 15 25 15h30c20 0 23 -8 31 -21c10 -17 26 -30 50 -30
c22 0 39 14 49 33c6 12 12 18 27 18h40c15 0 21 -5 21 -15z" />
    <glyph glyph-name="aring" unicode="&#xe5;" horiz-adv-x="574" 
d="M554 81v-58c0 -15 -10 -23 -24 -23h-53c-59 0 -83 17 -96 46h-2c-27 -31 -91 -59 -140 -59c-144 0 -211 114 -211 247c0 177 110 267 220 267c56 0 101 -26 122 -56l3 22c1 11 10 20 23 20h90c14 0 24 -8 24 -24v-345c0 -10 4 -17 15 -17h8c14 0 21 -5 21 -20zM360 150
v193c-18 16 -51 34 -81 34c-49 0 -95 -40 -95 -133c0 -62 16 -136 92 -136c36 0 72 27 84 42zM375 638c0 -44 -36 -80 -81 -80c-44 0 -81 36 -81 80s37 81 81 81c45 0 81 -37 81 -81zM319 638c0 14 -11 25 -25 25s-25 -11 -25 -25s11 -24 25 -24s25 10 25 24z" />
    <glyph glyph-name="aringacute" unicode="&#x1fb;" horiz-adv-x="574" 
d="M554 81v-58c0 -15 -10 -23 -24 -23h-53c-59 0 -83 17 -96 46h-2c-27 -31 -91 -59 -140 -59c-144 0 -211 114 -211 247c0 177 110 267 220 267c56 0 101 -26 122 -56l3 22c1 11 10 20 23 20h90c14 0 24 -8 24 -24v-345c0 -10 4 -17 15 -17h8c14 0 21 -5 21 -20zM360 150
v193c-18 16 -51 34 -81 34c-49 0 -95 -40 -95 -133c0 -62 16 -136 92 -136c36 0 72 27 84 42zM378 611c0 -44 -36 -80 -81 -80c-44 0 -81 36 -81 80s37 81 81 81c45 0 81 -37 81 -81zM400 809c0 -6 -4 -10 -13 -15l-133 -76c-9 -5 -16 -8 -21 -8c-7 0 -13 4 -20 14l-14 19
c-4 5 -6 9 -6 13c0 5 4 11 15 20l117 91c9 7 15 11 21 11s11 -5 19 -15l28 -38c5 -6 7 -12 7 -16zM322 611c0 14 -11 25 -25 25s-25 -11 -25 -25s11 -24 25 -24s25 10 25 24z" />
    <glyph glyph-name="aogonek" unicode="&#x105;" horiz-adv-x="574" 
d="M560 -182c0 -6 -3 -12 -13 -15c-21 -8 -56 -15 -82 -15c-67 0 -120 27 -120 83c0 28 12 53 35 76c19 19 45 36 77 53v3c-41 2 -64 16 -76 43h-2c-27 -31 -91 -59 -140 -59c-144 0 -211 114 -211 247c0 177 110 267 220 267c56 0 101 -26 122 -56l3 22c1 11 10 20 23 20
h90c14 0 24 -8 24 -24v-345c0 -10 4 -17 15 -17h8c14 0 21 -5 21 -20v-58c0 -13 -2 -19 -6 -23c-5 -4 -14 -6 -26 -11c-21 -11 -52 -38 -64 -56c-12 -16 -17 -31 -17 -46c0 -27 19 -37 43 -37c13 0 39 4 54 9c1 0 3 1 4 1c4 0 8 -3 9 -8l8 -28c1 -2 1 -4 1 -6zM360 150v193
c-18 16 -51 34 -81 34c-49 0 -95 -40 -95 -133c0 -62 16 -136 92 -136c36 0 72 27 84 42z" />
    <glyph glyph-name="ae" unicode="&#xe6;" horiz-adv-x="791" 
d="M767 254c0 -43 -12 -50 -36 -50h-280c12 -63 68 -98 129 -98c44 0 86 10 126 26c4 2 8 3 12 3c9 0 14 -6 16 -14c4 -17 19 -63 19 -78c0 -13 -9 -17 -19 -22c-53 -24 -123 -34 -181 -34c-76 0 -135 23 -176 64c-56 -40 -120 -64 -198 -64c-90 0 -159 57 -159 150
c0 69 40 113 89 139c57 29 133 37 196 37v18c0 13 -7 32 -17 40c-14 10 -35 16 -56 16c-41 0 -80 -6 -131 -31c-4 -2 -8 -3 -11 -3c-7 0 -13 5 -16 14l-19 60c-1 4 -2 7 -2 10c0 8 5 15 20 23c61 31 127 41 177 41c63 0 120 -22 144 -60h2c32 36 92 61 156 61
c100 0 163 -56 194 -132c14 -34 21 -84 21 -116zM453 299h167c0 42 -23 87 -77 87c-50 0 -83 -40 -90 -87zM321 134c-8 16 -15 48 -15 66v12c-38 0 -74 -5 -98 -14c-21 -8 -37 -26 -37 -49c0 -26 20 -45 54 -45c26 0 78 16 96 30z" />
    <glyph glyph-name="aeacute" unicode="&#x1fd;" horiz-adv-x="791" 
d="M767 254c0 -43 -12 -50 -36 -50h-280c12 -63 68 -98 129 -98c44 0 86 10 126 26c4 2 8 3 12 3c9 0 14 -6 16 -14c4 -17 19 -63 19 -78c0 -13 -9 -17 -19 -22c-53 -24 -123 -34 -181 -34c-76 0 -135 23 -176 64c-56 -40 -120 -64 -198 -64c-90 0 -159 57 -159 150
c0 69 40 113 89 139c57 29 133 37 196 37v18c0 13 -7 32 -17 40c-14 10 -35 16 -56 16c-41 0 -80 -6 -131 -31c-4 -2 -8 -3 -11 -3c-7 0 -13 5 -16 14l-19 60c-1 4 -2 7 -2 10c0 8 5 15 20 23c61 31 127 41 177 41c63 0 120 -22 144 -60h2c32 36 92 61 156 61
c100 0 163 -56 194 -132c14 -34 21 -84 21 -116zM453 299h167c0 42 -23 87 -77 87c-50 0 -83 -40 -90 -87zM321 134c-8 16 -15 48 -15 66v12c-38 0 -74 -5 -98 -14c-21 -8 -37 -26 -37 -49c0 -26 20 -45 54 -45c26 0 78 16 96 30zM544 651c0 -6 -4 -10 -13 -15l-133 -76
c-9 -5 -16 -8 -21 -8c-7 0 -13 4 -20 14l-14 19c-4 5 -6 9 -6 13c0 5 4 11 15 20l117 91c9 7 15 11 21 11s11 -5 19 -15l28 -38c5 -6 7 -12 7 -16z" />
    <glyph glyph-name="cacute" unicode="&#x107;" horiz-adv-x="458" 
d="M437 35c0 -11 -8 -14 -16 -18c-53 -24 -94 -30 -153 -30c-152 0 -245 91 -245 249c0 162 97 265 256 265c47 0 92 -7 139 -27c14 -6 14 -15 11 -29l-16 -72c-2 -10 -7 -14 -13 -14c-4 0 -9 2 -14 4c-28 11 -57 19 -88 19c-78 0 -120 -52 -120 -138
c0 -91 44 -140 113 -140c43 0 62 6 100 21c4 1 7 3 11 3c8 0 12 -6 14 -13c5 -18 21 -64 21 -80zM405 651c0 -6 -4 -10 -13 -15l-133 -76c-9 -5 -16 -8 -21 -8c-7 0 -13 4 -20 14l-14 19c-4 5 -6 9 -6 13c0 5 4 11 15 20l117 91c9 7 15 11 21 11s11 -5 19 -15l28 -38
c5 -6 7 -12 7 -16z" />
    <glyph glyph-name="ccedilla" unicode="&#xe7;" horiz-adv-x="458" 
d="M371 -124c0 -56 -54 -88 -125 -88c-26 0 -56 7 -77 15c-10 4 -13 9 -13 15c0 2 0 4 1 6l8 28c2 7 4 9 9 9c3 0 9 -1 15 -3c16 -5 35 -9 48 -9c21 0 38 9 38 24c0 23 -15 30 -48 30h-26c-20 0 -25 9 -25 23c0 4 0 10 1 15l7 57c-102 27 -161 111 -161 238
c0 162 97 265 256 265c47 0 92 -7 139 -27c14 -6 14 -15 11 -29l-16 -72c-2 -10 -7 -14 -13 -14c-4 0 -9 2 -14 4c-28 11 -57 19 -88 19c-78 0 -120 -52 -120 -138c0 -91 44 -140 113 -140c43 0 62 6 100 21c4 1 7 3 11 3c8 0 12 -6 14 -13c5 -18 21 -64 21 -80
c0 -11 -8 -14 -16 -18c-53 -24 -94 -30 -153 -30h-10l-2 -28h8c70 0 107 -32 107 -83z" />
    <glyph glyph-name="ccircumflex" unicode="&#x109;" horiz-adv-x="458" 
d="M437 35c0 -11 -8 -14 -16 -18c-53 -24 -94 -30 -153 -30c-152 0 -245 91 -245 249c0 162 97 265 256 265c47 0 92 -7 139 -27c14 -6 14 -15 11 -29l-16 -72c-2 -10 -7 -14 -13 -14c-4 0 -9 2 -14 4c-28 11 -57 19 -88 19c-78 0 -120 -52 -120 -138
c0 -91 44 -140 113 -140c43 0 62 6 100 21c4 1 7 3 11 3c8 0 12 -6 14 -13c5 -18 21 -64 21 -80zM424 604c0 -5 -3 -11 -9 -16l-28 -23c-5 -4 -9 -6 -13 -6c-5 0 -10 3 -18 9l-83 63l-84 -62c-7 -5 -13 -8 -19 -8c-5 0 -10 3 -17 9l-23 20c-5 4 -8 8 -8 13s3 10 10 16l94 85
c11 10 18 15 37 15h22c15 0 23 -1 34 -11l97 -89c5 -5 8 -10 8 -15z" />
    <glyph glyph-name="ccaron" unicode="&#x10d;" horiz-adv-x="458" 
d="M437 35c0 -11 -8 -14 -16 -18c-53 -24 -94 -30 -153 -30c-152 0 -245 91 -245 249c0 162 97 265 256 265c47 0 92 -7 139 -27c14 -6 14 -15 11 -29l-16 -72c-2 -10 -7 -14 -13 -14c-4 0 -9 2 -14 4c-28 11 -57 19 -88 19c-78 0 -120 -52 -120 -138
c0 -91 44 -140 113 -140c43 0 62 6 100 21c4 1 7 3 11 3c8 0 12 -6 14 -13c5 -18 21 -64 21 -80zM119 678c0 5 3 11 9 16l28 23c5 4 9 6 13 6c5 0 10 -3 18 -9l83 -63l84 62c7 5 13 8 19 8c5 0 10 -3 17 -9l23 -20c5 -4 8 -8 8 -13s-3 -10 -10 -16l-94 -85
c-11 -10 -18 -15 -37 -15h-22c-15 0 -23 1 -34 11l-97 89c-5 5 -8 10 -8 15z" />
    <glyph glyph-name="cdotaccent" unicode="&#x10b;" horiz-adv-x="458" 
d="M437 35c0 -11 -8 -14 -16 -18c-53 -24 -94 -30 -153 -30c-152 0 -245 91 -245 249c0 162 97 265 256 265c47 0 92 -7 139 -27c14 -6 14 -15 11 -29l-16 -72c-2 -10 -7 -14 -13 -14c-4 0 -9 2 -14 4c-28 11 -57 19 -88 19c-78 0 -120 -52 -120 -138
c0 -91 44 -140 113 -140c43 0 62 6 100 21c4 1 7 3 11 3c8 0 12 -6 14 -13c5 -18 21 -64 21 -80zM339 638c0 -38 -34 -61 -64 -61s-65 21 -65 60s32 62 65 62c32 0 64 -22 64 -61z" />
    <glyph glyph-name="dcaron" unicode="&#x10f;" horiz-adv-x="571" 
d="M511 696v-668c0 -20 -12 -28 -27 -28h-84c-17 0 -25 9 -26 20l-2 21c-25 -27 -79 -54 -127 -54c-145 0 -215 112 -215 248c0 133 71 267 219 267c44 0 85 -15 112 -40v211c0 18 5 28 24 31l106 14c14 0 20 -8 20 -22zM361 145v204c-18 17 -50 32 -79 32
c-73 0 -96 -77 -96 -137c0 -62 17 -135 93 -135c29 0 66 19 82 36zM702 640c0 -68 -41 -124 -94 -161c-6 -5 -11 -7 -16 -7s-9 3 -13 8l-11 12c-2 4 -4 7 -4 10s3 7 7 11c16 17 36 43 36 62c0 26 -36 48 -36 81c0 36 28 61 64 61c40 0 67 -40 67 -77z" />
    <glyph glyph-name="dcroat" unicode="&#x111;" horiz-adv-x="571" 
d="M511 696v-49h25c24 0 29 -5 29 -22v-35c0 -17 -5 -24 -29 -24h-25v-538c0 -20 -12 -28 -27 -28h-84c-17 0 -25 9 -26 20l-2 21c-25 -27 -79 -54 -127 -54c-145 0 -215 112 -215 248c0 133 71 267 219 267c44 0 85 -15 112 -40v106h-71c-21 0 -26 8 -26 24v34
c0 15 4 22 26 22h71v25c0 18 5 28 24 31l98 13c2 0 6 1 8 1c14 0 20 -8 20 -22zM361 145v204c-18 17 -50 32 -79 32c-73 0 -96 -77 -96 -137c0 -62 17 -135 93 -135c29 0 66 19 82 36z" />
    <glyph glyph-name="eth" unicode="&#xf0;" horiz-adv-x="558" 
d="M528 290c0 -177 -83 -303 -250 -303c-169 0 -248 109 -248 258c0 147 93 256 255 256c26 0 21 -3 43 -8c-13 45 -47 78 -88 102l-32 -64c-5 -9 -7 -13 -12 -13c-3 0 -7 2 -14 5l-27 13c-9 4 -13 8 -13 13c0 3 2 7 5 13l31 60c-24 8 -48 14 -72 18c-12 2 -18 7 -18 16
c0 2 0 5 1 8l15 49c4 14 9 20 23 20c3 0 6 -1 9 -1c32 -3 62 -9 90 -16l32 63c5 9 8 13 12 13c3 0 7 -2 13 -5l27 -14c9 -5 13 -7 13 -12c0 -3 -2 -7 -5 -13l-27 -54c162 -69 237 -255 237 -404zM378 244c0 74 -21 139 -95 139s-98 -64 -98 -137c0 -74 21 -141 95 -141
s98 66 98 139z" />
    <glyph glyph-name="egrave" unicode="&#xe8;" horiz-adv-x="528" 
d="M504 246v-13c0 -24 -11 -29 -36 -29h-280c12 -63 68 -98 129 -98c44 0 86 10 126 26c4 2 8 3 12 3c9 0 14 -6 16 -14c4 -17 19 -63 19 -78c0 -13 -9 -17 -19 -22c-53 -24 -123 -34 -181 -34c-159 0 -260 98 -260 258c0 155 105 257 259 257c64 0 118 -24 155 -64
c50 -53 60 -122 60 -192zM190 299h167c0 43 -25 87 -77 87c-50 0 -83 -40 -90 -87zM367 598c0 -4 -2 -8 -6 -13l-14 -19c-7 -10 -12 -14 -19 -14c-5 0 -13 3 -22 8l-133 76c-9 5 -13 9 -13 15c0 4 2 10 7 16l28 38c8 10 13 15 19 15s12 -4 21 -11l117 -91
c11 -9 15 -15 15 -20z" />
    <glyph glyph-name="eacute" unicode="&#xe9;" horiz-adv-x="528" 
d="M504 246v-13c0 -24 -11 -29 -36 -29h-280c12 -63 68 -98 129 -98c44 0 86 10 126 26c4 2 8 3 12 3c9 0 14 -6 16 -14c4 -17 19 -63 19 -78c0 -13 -9 -17 -19 -22c-53 -24 -123 -34 -181 -34c-159 0 -260 98 -260 258c0 155 105 257 259 257c64 0 118 -24 155 -64
c50 -53 60 -122 60 -192zM190 299h167c0 43 -25 87 -77 87c-50 0 -83 -40 -90 -87zM397 651c0 -6 -4 -10 -13 -15l-133 -76c-9 -5 -16 -8 -21 -8c-7 0 -13 4 -20 14l-14 19c-4 5 -6 9 -6 13c0 5 4 11 15 20l117 91c9 7 15 11 21 11s11 -5 19 -15l28 -38c5 -6 7 -12 7 -16z
" />
    <glyph glyph-name="ecircumflex" unicode="&#xea;" horiz-adv-x="528" 
d="M504 246v-13c0 -24 -11 -29 -36 -29h-280c12 -63 68 -98 129 -98c44 0 86 10 126 26c4 2 8 3 12 3c9 0 14 -6 16 -14c4 -17 19 -63 19 -78c0 -13 -9 -17 -19 -22c-53 -24 -123 -34 -181 -34c-159 0 -260 98 -260 258c0 155 105 257 259 257c64 0 118 -24 155 -64
c50 -53 60 -122 60 -192zM190 299h167c0 43 -25 87 -77 87c-50 0 -83 -40 -90 -87zM425 604c0 -5 -3 -11 -9 -16l-28 -23c-5 -4 -9 -6 -13 -6c-5 0 -10 3 -18 9l-83 63l-84 -62c-7 -5 -13 -8 -19 -8c-5 0 -10 3 -17 9l-23 20c-5 4 -8 8 -8 13s3 10 10 16l94 85
c11 10 18 15 37 15h22c15 0 23 -1 34 -11l97 -89c5 -5 8 -10 8 -15z" />
    <glyph glyph-name="ecaron" unicode="&#x11b;" horiz-adv-x="528" 
d="M504 246v-13c0 -24 -11 -29 -36 -29h-280c12 -63 68 -98 129 -98c44 0 86 10 126 26c4 2 8 3 12 3c9 0 14 -6 16 -14c4 -17 19 -63 19 -78c0 -13 -9 -17 -19 -22c-53 -24 -123 -34 -181 -34c-159 0 -260 98 -260 258c0 155 105 257 259 257c64 0 118 -24 155 -64
c50 -53 60 -122 60 -192zM190 299h167c0 43 -25 87 -77 87c-50 0 -83 -40 -90 -87zM130 678c0 5 3 11 9 16l28 23c5 4 9 6 13 6c5 0 10 -3 18 -9l83 -63l84 62c7 5 13 8 19 8c5 0 10 -3 17 -9l23 -20c5 -4 8 -8 8 -13s-3 -10 -10 -16l-94 -85c-11 -10 -18 -15 -37 -15h-22
c-15 0 -23 1 -34 11l-97 89c-5 5 -8 10 -8 15z" />
    <glyph glyph-name="edieresis" unicode="&#xeb;" horiz-adv-x="528" 
d="M504 246v-13c0 -24 -11 -29 -36 -29h-280c12 -63 68 -98 129 -98c44 0 86 10 126 26c4 2 8 3 12 3c9 0 14 -6 16 -14c4 -17 19 -63 19 -78c0 -13 -9 -17 -19 -22c-53 -24 -123 -34 -181 -34c-159 0 -260 98 -260 258c0 155 105 257 259 257c64 0 118 -24 155 -64
c50 -53 60 -122 60 -192zM190 299h167c0 43 -25 87 -77 87c-50 0 -83 -40 -90 -87zM439 638c0 -38 -34 -61 -64 -61s-65 21 -65 60s32 62 65 62c32 0 64 -22 64 -61zM250 638c0 -38 -34 -61 -64 -61s-65 21 -65 60s32 62 65 62c32 0 64 -22 64 -61z" />
    <glyph glyph-name="emacron" unicode="&#x113;" horiz-adv-x="528" 
d="M504 246v-13c0 -24 -11 -29 -36 -29h-280c12 -63 68 -98 129 -98c44 0 86 10 126 26c4 2 8 3 12 3c9 0 14 -6 16 -14c4 -17 19 -63 19 -78c0 -13 -9 -17 -19 -22c-53 -24 -123 -34 -181 -34c-159 0 -260 98 -260 258c0 155 105 257 259 257c64 0 118 -24 155 -64
c50 -53 60 -122 60 -192zM190 299h167c0 43 -25 87 -77 87c-50 0 -83 -40 -90 -87zM427 660v-27c0 -21 -7 -31 -29 -31h-240c-20 0 -26 13 -26 31v27c0 19 5 29 26 29h240c20 0 29 -9 29 -29z" />
    <glyph glyph-name="ebreve" unicode="&#x115;" horiz-adv-x="528" 
d="M504 246v-13c0 -24 -11 -29 -36 -29h-280c12 -63 68 -98 129 -98c44 0 86 10 126 26c4 2 8 3 12 3c9 0 14 -6 16 -14c4 -17 19 -63 19 -78c0 -13 -9 -17 -19 -22c-53 -24 -123 -34 -181 -34c-159 0 -260 98 -260 258c0 155 105 257 259 257c64 0 118 -24 155 -64
c50 -53 60 -122 60 -192zM190 299h167c0 43 -25 87 -77 87c-50 0 -83 -40 -90 -87zM411 689c0 -3 -1 -7 -2 -11c-15 -64 -64 -107 -138 -107c-70 0 -116 44 -131 106c-1 4 -2 9 -2 12c0 10 6 15 25 15h30c20 0 23 -8 31 -21c10 -17 26 -30 50 -30c22 0 39 14 49 33
c6 12 12 18 27 18h40c15 0 21 -5 21 -15z" />
    <glyph glyph-name="edotaccent" unicode="&#x117;" horiz-adv-x="528" 
d="M504 246v-13c0 -24 -11 -29 -36 -29h-280c12 -63 68 -98 129 -98c44 0 86 10 126 26c4 2 8 3 12 3c9 0 14 -6 16 -14c4 -17 19 -63 19 -78c0 -13 -9 -17 -19 -22c-53 -24 -123 -34 -181 -34c-159 0 -260 98 -260 258c0 155 105 257 259 257c64 0 118 -24 155 -64
c50 -53 60 -122 60 -192zM190 299h167c0 43 -25 87 -77 87c-50 0 -83 -40 -90 -87zM346 638c0 -38 -34 -61 -64 -61s-65 21 -65 60s32 62 65 62c32 0 64 -22 64 -61z" />
    <glyph glyph-name="eogonek" unicode="&#x119;" horiz-adv-x="528" 
d="M396 -182c0 -6 -3 -12 -13 -15c-21 -8 -56 -15 -82 -15c-67 0 -120 27 -120 83c0 28 12 53 35 76c14 14 32 28 54 41v3c-146 6 -240 102 -240 254c0 155 105 257 259 257c64 0 118 -24 155 -64c50 -53 60 -122 60 -192v-13c0 -24 -11 -29 -36 -29h-280
c12 -63 68 -98 129 -98c44 0 86 10 126 26c4 2 8 3 12 3c9 0 14 -6 16 -14c4 -17 19 -63 19 -78c0 -13 -9 -17 -19 -22c-16 -8 -34 -13 -53 -18c-52 -13 -85 -21 -119 -59c-16 -18 -22 -40 -22 -57c0 -27 19 -37 43 -37c13 0 39 4 54 9c1 0 3 1 4 1c4 0 8 -3 9 -8l8 -28
c1 -2 1 -4 1 -6zM190 299h167c0 43 -25 87 -77 87c-50 0 -83 -40 -90 -87z" />
    <glyph glyph-name="gcircumflex" unicode="&#x11d;" horiz-adv-x="572" 
d="M512 459v-420c0 -168 -73 -258 -246 -258c-52 0 -101 9 -154 30c-22 8 -20 21 -15 39l17 56c7 22 16 23 34 16c37 -15 76 -23 110 -23c91 0 104 47 104 108v36c-28 -23 -80 -45 -120 -45c-60 0 -111 19 -148 56c-43 42 -64 107 -64 180c0 135 78 265 225 265
c24 0 46 -5 68 -15c16 -7 37 -23 48 -39l2 22c1 13 9 20 26 20h85c21 0 28 -8 28 -28zM362 156v190c-19 18 -49 32 -78 32c-26 0 -48 -11 -63 -26c-27 -27 -35 -73 -35 -109s8 -76 34 -101c16 -16 40 -22 60 -22c31 0 66 19 82 36zM437 604c0 -5 -3 -11 -9 -16l-28 -23
c-5 -4 -9 -6 -13 -6c-5 0 -10 3 -18 9l-83 63l-84 -62c-7 -5 -13 -8 -19 -8c-5 0 -10 3 -17 9l-23 20c-5 4 -8 8 -8 13s3 10 10 16l94 85c11 10 18 15 37 15h22c15 0 23 -1 34 -11l97 -89c5 -5 8 -10 8 -15z" />
    <glyph glyph-name="gbreve" unicode="&#x11f;" horiz-adv-x="572" 
d="M512 459v-420c0 -168 -73 -258 -246 -258c-52 0 -101 9 -154 30c-22 8 -20 21 -15 39l17 56c7 22 16 23 34 16c37 -15 76 -23 110 -23c91 0 104 47 104 108v36c-28 -23 -80 -45 -120 -45c-60 0 -111 19 -148 56c-43 42 -64 107 -64 180c0 135 78 265 225 265
c24 0 46 -5 68 -15c16 -7 37 -23 48 -39l2 22c1 13 9 20 26 20h85c21 0 28 -8 28 -28zM362 156v190c-19 18 -49 32 -78 32c-26 0 -48 -11 -63 -26c-27 -27 -35 -73 -35 -109s8 -76 34 -101c16 -16 40 -22 60 -22c31 0 66 19 82 36zM422 689c0 -3 -1 -7 -2 -11
c-15 -64 -64 -107 -138 -107c-70 0 -116 44 -131 106c-1 4 -2 9 -2 12c0 10 6 15 25 15h30c20 0 23 -8 31 -21c10 -17 26 -30 50 -30c22 0 39 14 49 33c6 12 12 18 27 18h40c15 0 21 -5 21 -15z" />
    <glyph glyph-name="gdotaccent" unicode="&#x121;" horiz-adv-x="572" 
d="M512 459v-420c0 -168 -73 -258 -246 -258c-52 0 -101 9 -154 30c-22 8 -20 21 -15 39l17 56c7 22 16 23 34 16c37 -15 76 -23 110 -23c91 0 104 47 104 108v36c-28 -23 -80 -45 -120 -45c-60 0 -111 19 -148 56c-43 42 -64 107 -64 180c0 135 78 265 225 265
c24 0 46 -5 68 -15c16 -7 37 -23 48 -39l2 22c1 13 9 20 26 20h85c21 0 28 -8 28 -28zM362 156v190c-19 18 -49 32 -78 32c-26 0 -48 -11 -63 -26c-27 -27 -35 -73 -35 -109s8 -76 34 -101c16 -16 40 -22 60 -22c31 0 66 19 82 36zM350 638c0 -38 -34 -61 -64 -61
s-65 21 -65 60s32 62 65 62c32 0 64 -22 64 -61z" />
    <glyph glyph-name="gcommaaccent" unicode="&#x123;" horiz-adv-x="572" 
d="M512 459v-420c0 -168 -73 -258 -246 -258c-52 0 -101 9 -154 30c-22 8 -20 21 -15 39l17 56c7 22 16 23 34 16c37 -15 76 -23 110 -23c91 0 104 47 104 108v36c-28 -23 -80 -45 -120 -45c-60 0 -111 19 -148 56c-43 42 -64 107 -64 180c0 135 78 265 225 265
c24 0 46 -5 68 -15c16 -7 37 -23 48 -39l2 22c1 13 9 20 26 20h85c21 0 28 -8 28 -28zM362 156v190c-19 18 -49 32 -78 32c-26 0 -48 -11 -63 -26c-27 -27 -35 -73 -35 -109s8 -76 34 -101c16 -16 40 -22 60 -22c31 0 66 19 82 36zM215 617c0 68 41 124 94 161
c6 5 11 7 16 7s9 -3 13 -8l11 -12c2 -4 4 -7 4 -10s-3 -7 -7 -11c-16 -17 -36 -43 -36 -62c0 -26 36 -48 36 -81c0 -36 -28 -61 -64 -61c-40 0 -67 40 -67 77z" />
    <glyph glyph-name="hcircumflex" unicode="&#x125;" horiz-adv-x="582" 
d="M522 323v-303c0 -17 -2 -20 -16 -20h-117c-15 0 -18 2 -18 20v276c0 42 -12 70 -57 70c-33 0 -76 -15 -104 -39v-307c0 -17 -3 -20 -20 -20h-114c-13 0 -16 4 -16 18v657c0 21 9 27 25 29l107 13c12 0 18 -6 18 -21v-245c39 33 103 50 153 50c109 0 159 -70 159 -178z
M294 782c0 -5 -3 -11 -9 -16l-28 -23c-5 -4 -9 -6 -13 -6c-5 0 -10 3 -18 9l-83 63l-84 -62c-7 -5 -13 -8 -19 -8c-5 0 -10 3 -17 9l-23 20c-5 4 -8 8 -8 13s3 10 10 16l94 85c11 10 18 15 37 15h22c15 0 23 -1 34 -11l97 -89c5 -5 8 -10 8 -15z" />
    <glyph glyph-name="hbar" unicode="&#x127;" horiz-adv-x="582" 
d="M522 323v-303c0 -17 -2 -20 -16 -20h-117c-15 0 -18 2 -18 20v276c0 42 -12 70 -57 70c-33 0 -76 -15 -104 -39v-307c0 -17 -3 -20 -20 -20h-114c-13 0 -16 4 -16 18v561h-28c-17 0 -20 3 -20 19v25c0 19 3 20 21 20h27v32c0 21 9 27 25 29l107 13c12 0 18 -6 18 -21v-53
h151c20 0 23 -4 23 -18v-27c0 -18 -5 -19 -23 -19h-151v-128c39 33 103 50 153 50c109 0 159 -70 159 -178z" />
    <glyph glyph-name="dotlessi" unicode="&#x131;" horiz-adv-x="281" 
d="M217 461v-432c0 -20 -9 -29 -29 -29h-90c-21 0 -31 7 -31 29v432c0 20 13 26 31 26h90c19 0 29 -5 29 -26z" />
    <glyph glyph-name="igrave" unicode="&#xec;" horiz-adv-x="281" 
d="M217 461v-432c0 -20 -9 -29 -29 -29h-90c-21 0 -31 7 -31 29v432c0 20 13 26 31 26h90c19 0 29 -5 29 -26zM244 598c0 -4 -2 -8 -6 -13l-14 -19c-7 -10 -12 -14 -19 -14c-5 0 -13 3 -22 8l-133 76c-9 5 -13 9 -13 15c0 4 2 10 7 16l28 38c8 10 13 15 19 15s12 -4 21 -11
l117 -91c11 -9 15 -15 15 -20z" />
    <glyph glyph-name="iacute" unicode="&#xed;" horiz-adv-x="281" 
d="M217 461v-432c0 -20 -9 -29 -29 -29h-90c-21 0 -31 7 -31 29v432c0 20 13 26 31 26h90c19 0 29 -5 29 -26zM244 651c0 -6 -4 -10 -13 -15l-133 -76c-9 -5 -16 -8 -21 -8c-7 0 -13 4 -20 14l-14 19c-4 5 -6 9 -6 13c0 5 4 11 15 20l117 91c9 7 15 11 21 11s11 -5 19 -15
l28 -38c5 -6 7 -12 7 -16z" />
    <glyph glyph-name="icircumflex" unicode="&#xee;" horiz-adv-x="287" 
d="M220 461v-432c0 -20 -9 -29 -29 -29h-90c-21 0 -31 7 -31 29v432c0 20 13 26 31 26h90c19 0 29 -5 29 -26zM295 604c0 -5 -3 -11 -9 -16l-28 -23c-5 -4 -9 -6 -13 -6c-5 0 -10 3 -18 9l-83 63l-84 -62c-7 -5 -13 -8 -19 -8c-5 0 -10 3 -17 9l-23 20c-5 4 -8 8 -8 13
s3 10 10 16l94 85c11 10 18 15 37 15h22c15 0 23 -1 34 -11l97 -89c5 -5 8 -10 8 -15z" />
    <glyph glyph-name="itilde" unicode="&#x129;" horiz-adv-x="297" 
d="M225 461v-432c0 -20 -9 -29 -29 -29h-90c-21 0 -31 7 -31 29v432c0 20 13 26 31 26h90c19 0 29 -5 29 -26zM317 634c0 -6 -3 -10 -8 -14c-31 -23 -67 -46 -105 -46c-39 0 -68 35 -104 35c-12 0 -45 -11 -65 -22c-7 -4 -12 -6 -16 -6c-5 0 -9 3 -12 10l-22 44
c-2 5 -4 9 -4 12c0 6 5 10 14 16c26 17 61 36 91 36c40 0 83 -36 111 -36c12 0 40 12 62 24c7 4 12 5 16 5c5 0 9 -3 13 -9l25 -36c3 -5 4 -9 4 -13z" />
    <glyph glyph-name="idieresis" unicode="&#xef;" horiz-adv-x="291" 
d="M222 461v-432c0 -20 -9 -29 -29 -29h-90c-21 0 -31 7 -31 29v432c0 20 13 26 31 26h90c19 0 29 -5 29 -26zM305 638c0 -38 -34 -61 -64 -61s-65 21 -65 60s32 62 65 62c32 0 64 -22 64 -61zM116 638c0 -38 -34 -61 -64 -61s-65 21 -65 60s32 62 65 62c32 0 64 -22 64 -61
z" />
    <glyph glyph-name="imacron" unicode="&#x12b;" horiz-adv-x="285" 
d="M219 461v-432c0 -20 -9 -29 -29 -29h-90c-21 0 -31 7 -31 29v432c0 20 13 26 31 26h90c19 0 29 -5 29 -26zM290 660v-27c0 -21 -7 -31 -29 -31h-240c-20 0 -26 13 -26 31v27c0 19 5 29 26 29h240c20 0 29 -9 29 -29z" />
    <glyph glyph-name="ibreve" unicode="&#x12d;" horiz-adv-x="279" 
d="M216 461v-432c0 -20 -9 -29 -29 -29h-90c-21 0 -31 7 -31 29v432c0 20 13 26 31 26h90c19 0 29 -5 29 -26zM276 689c0 -3 -1 -7 -2 -11c-15 -64 -64 -107 -138 -107c-70 0 -116 44 -131 106c-1 4 -2 9 -2 12c0 10 6 15 25 15h30c20 0 23 -8 31 -21c10 -17 26 -30 50 -30
c22 0 39 14 49 33c6 12 12 18 27 18h40c15 0 21 -5 21 -15z" />
    <glyph glyph-name="iogonek" unicode="&#x12f;" horiz-adv-x="281" 
d="M201 -182c0 -6 -3 -12 -13 -15c-21 -8 -56 -15 -82 -15c-67 0 -120 28 -120 90c0 60 38 100 81 129v454c0 20 13 26 31 26h90c19 0 29 -5 29 -26v-432c0 -20 -9 -27 -29 -29c-46 -5 -81 -30 -94 -47c-17 -22 -20 -39 -20 -58c0 -35 27 -45 51 -45c13 0 39 4 54 9
c1 0 3 1 4 1c4 0 8 -3 9 -8l8 -28c1 -2 1 -4 1 -6zM221 621c0 -48 -42 -76 -80 -76s-81 27 -81 75c0 49 40 77 81 77c40 0 80 -28 80 -76z" />
    <glyph glyph-name="ij" unicode="&#x133;" horiz-adv-x="583" 
d="M221 621c0 -48 -42 -76 -80 -76s-81 27 -81 75c0 49 40 77 81 77c40 0 80 -28 80 -76zM217 461v-432c0 -20 -9 -29 -29 -29h-90c-21 0 -31 7 -31 29v432c0 20 13 26 31 26h90c19 0 29 -5 29 -26zM523 620c0 -48 -42 -76 -80 -76s-81 26 -81 75c0 50 40 78 81 78
c40 0 80 -28 80 -77zM516 462v-440c0 -93 -23 -160 -76 -199c-37 -27 -89 -41 -158 -41c-20 0 -50 4 -76 8c-15 3 -21 9 -21 18c0 4 0 8 1 13l14 71c2 12 6 17 16 17c3 0 6 -1 10 -2c19 -4 38 -5 54 -5c21 0 50 6 64 21s22 41 22 78v461c0 17 12 25 28 25h95
c17 0 27 -7 27 -25z" />
    <glyph glyph-name="jcircumflex" unicode="&#x135;" horiz-adv-x="302" 
d="M235 462v-440c0 -93 -23 -160 -76 -199c-37 -27 -89 -41 -158 -41c-20 0 -50 4 -76 8c-15 3 -21 9 -21 18c0 4 0 8 1 13l14 71c2 12 6 17 16 17c3 0 6 -1 10 -2c19 -4 38 -5 54 -5c21 0 50 6 64 21s22 41 22 78v461c0 17 12 25 28 25h95c17 0 27 -7 27 -25zM302 604
c0 -5 -3 -11 -9 -16l-28 -23c-5 -4 -9 -6 -13 -6c-5 0 -10 3 -18 9l-83 63l-84 -62c-7 -5 -13 -8 -19 -8c-5 0 -10 3 -17 9l-23 20c-5 4 -8 8 -8 13s3 10 10 16l94 85c11 10 18 15 37 15h22c15 0 23 -1 34 -11l97 -89c5 -5 8 -10 8 -15z" />
    <glyph glyph-name="kcommaaccent" unicode="&#x137;" horiz-adv-x="517" 
d="M502 13c0 -11 -13 -13 -21 -13h-112c-21 0 -35 5 -46 24l-111 199h-2v-195c0 -17 -8 -28 -26 -28h-97c-17 0 -27 10 -27 27v649c0 17 7 26 24 28l106 14c13 0 20 -6 20 -26v-400h2l111 179c9 14 16 16 33 16h108c11 0 17 -5 17 -13c0 -4 -1 -9 -5 -14l-130 -180l148 -245
c4 -7 8 -14 8 -22zM337 -117c0 -68 -41 -124 -94 -161c-6 -5 -11 -7 -16 -7s-9 3 -13 8l-11 12c-2 4 -4 7 -4 10s3 7 7 11c16 17 36 43 36 62c0 26 -36 48 -36 81c0 36 28 61 64 61c40 0 67 -40 67 -77z" />
    <glyph glyph-name="kgreenlandic" unicode="&#x138;" horiz-adv-x="534" 
d="M349 267l165 -232c11 -15 14 -35 -13 -35h-112c-21 0 -34 7 -46 24l-131 191h-2v-187c0 -17 -8 -28 -26 -28h-97c-17 0 -27 10 -27 27v434c0 20 13 26 31 26h90c19 0 29 -5 29 -26v-177h2l131 187c9 12 16 16 33 16h108c15 0 23 -13 12 -27z" />
    <glyph glyph-name="lacute" unicode="&#x13a;" horiz-adv-x="270" 
d="M210 692v-664c0 -19 -10 -28 -26 -28h-97c-15 0 -27 8 -27 27v649c0 20 9 26 24 28l105 13c14 0 21 -9 21 -25zM239 851c0 -6 -4 -10 -13 -15l-133 -76c-9 -5 -16 -8 -21 -8c-7 0 -13 4 -20 14l-14 19c-4 5 -6 9 -6 13c0 5 4 11 15 20l117 91c9 7 15 11 21 11
s11 -5 19 -15l28 -38c5 -6 7 -12 7 -16z" />
    <glyph glyph-name="lcaron" unicode="&#x13e;" horiz-adv-x="384" 
d="M210 692v-664c0 -19 -10 -28 -26 -28h-97c-15 0 -27 8 -27 27v649c0 20 9 26 24 28l105 13c14 0 21 -9 21 -25zM404 637c0 -68 -41 -124 -94 -161c-6 -5 -11 -7 -16 -7s-9 3 -13 8l-11 12c-2 4 -4 7 -4 10s3 7 7 11c16 17 36 43 36 62c0 26 -36 48 -36 81
c0 36 28 61 64 61c40 0 67 -40 67 -77z" />
    <glyph glyph-name="lcommaaccent" unicode="&#x13c;" horiz-adv-x="270" 
d="M210 692v-664c0 -19 -10 -28 -26 -28h-97c-15 0 -27 8 -27 27v649c0 20 9 26 24 28l105 13c14 0 21 -9 21 -25zM194 -117c0 -68 -41 -124 -94 -161c-6 -5 -11 -7 -16 -7s-9 3 -13 8l-11 12c-2 4 -4 7 -4 10s3 7 7 11c16 17 36 43 36 62c0 26 -36 48 -36 81
c0 36 28 61 64 61c40 0 67 -40 67 -77z" />
    <glyph glyph-name="lslash" unicode="&#x142;" horiz-adv-x="372" 
d="M372 530v-27c0 -18 -10 -25 -23 -36l-107 -90v-349c0 -19 -10 -28 -26 -28h-97c-15 0 -27 8 -27 27v223l-67 -56c-13 -11 -25 -5 -25 11v25c0 19 8 20 21 31l71 60v355c0 20 9 26 24 28l95 13h10c14 0 21 -9 21 -25v-244l102 86c15 13 28 10 28 -4z" />
    <glyph glyph-name="longs" unicode="&#x17f;" horiz-adv-x="334" 
d="M244 531v-499c0 -21 -6 -32 -29 -32h-93c-20 0 -28 11 -28 30v355h-50c-24 0 -28 6 -28 33v43c0 14 8 26 23 26h55v33c0 128 48 214 187 214c35 0 85 -9 118 -24c15 -7 17 -16 12 -46l-8 -51c-3 -19 -14 -21 -30 -16c-22 7 -43 12 -67 12c-54 0 -62 -37 -62 -78z" />
    <glyph glyph-name="ldot" unicode="&#x140;" horiz-adv-x="379" 
d="M210 692v-664c0 -19 -10 -28 -26 -28h-97c-15 0 -27 8 -27 27v649c0 20 9 26 24 28l105 13c14 0 21 -9 21 -25zM390 354c0 -38 -34 -61 -64 -61s-65 21 -65 60s32 62 65 62c32 0 64 -22 64 -61z" />
    <glyph glyph-name="nacute" unicode="&#x144;" horiz-adv-x="579" 
d="M519 323v-293c0 -20 -7 -30 -29 -30h-92c-21 0 -29 11 -29 30v266c0 42 -11 70 -57 70c-33 0 -74 -15 -102 -39v-298c0 -19 -8 -29 -28 -29h-94c-17 0 -28 9 -28 27v431c0 19 7 29 29 29h82c15 0 26 -4 28 -21l2 -21c46 36 101 56 160 56c110 0 158 -69 158 -178z
M393 651c0 -6 -4 -10 -13 -15l-133 -76c-9 -5 -16 -8 -21 -8c-7 0 -13 4 -20 14l-14 19c-4 5 -6 9 -6 13c0 5 4 11 15 20l117 91c9 7 15 11 21 11s11 -5 19 -15l28 -38c5 -6 7 -12 7 -16z" />
    <glyph glyph-name="ncaron" unicode="&#x148;" horiz-adv-x="579" 
d="M519 323v-293c0 -20 -7 -30 -29 -30h-92c-21 0 -29 11 -29 30v266c0 42 -11 70 -57 70c-33 0 -74 -15 -102 -39v-298c0 -19 -8 -29 -28 -29h-94c-17 0 -28 9 -28 27v431c0 19 7 29 29 29h82c15 0 26 -4 28 -21l2 -21c46 36 101 56 160 56c110 0 158 -69 158 -178z
M140 678c0 5 3 11 9 16l28 23c5 4 9 6 13 6c5 0 10 -3 18 -9l83 -63l84 62c7 5 13 8 19 8c5 0 10 -3 17 -9l23 -20c5 -4 8 -8 8 -13s-3 -10 -10 -16l-94 -85c-11 -10 -18 -15 -37 -15h-22c-15 0 -23 1 -34 11l-97 89c-5 5 -8 10 -8 15z" />
    <glyph glyph-name="ntilde" unicode="&#xf1;" horiz-adv-x="579" 
d="M519 323v-293c0 -20 -7 -30 -29 -30h-92c-21 0 -29 11 -29 30v266c0 42 -11 70 -57 70c-33 0 -74 -15 -102 -39v-298c0 -19 -8 -29 -28 -29h-94c-17 0 -28 9 -28 27v431c0 19 7 29 29 29h82c15 0 26 -4 28 -21l2 -21c46 36 101 56 160 56c110 0 158 -69 158 -178z
M464 634c0 -6 -3 -10 -8 -14c-31 -23 -67 -46 -105 -46c-39 0 -68 35 -104 35c-12 0 -45 -11 -65 -22c-7 -4 -12 -6 -16 -6c-5 0 -9 3 -12 10l-22 44c-2 5 -4 9 -4 12c0 6 5 10 14 16c26 17 61 36 91 36c40 0 83 -36 111 -36c12 0 40 12 62 24c7 4 12 5 16 5c5 0 9 -3 13 -9
l25 -36c3 -5 4 -9 4 -13z" />
    <glyph glyph-name="ncommaaccent" unicode="&#x146;" horiz-adv-x="579" 
d="M519 323v-293c0 -20 -7 -30 -29 -30h-92c-21 0 -29 11 -29 30v266c0 42 -11 70 -57 70c-33 0 -74 -15 -102 -39v-298c0 -19 -8 -29 -28 -29h-94c-17 0 -28 9 -28 27v431c0 19 7 29 29 29h82c15 0 26 -4 28 -21l2 -21c46 36 101 56 160 56c110 0 158 -69 158 -178z
M358 -117c0 -68 -41 -124 -94 -161c-6 -5 -11 -7 -16 -7s-9 3 -13 8l-11 12c-2 4 -4 7 -4 10s3 7 7 11c16 17 36 43 36 62c0 26 -36 48 -36 81c0 36 28 61 64 61c40 0 67 -40 67 -77z" />
    <glyph glyph-name="napostrophe" unicode="&#x149;" horiz-adv-x="620" 
d="M560 323v-293c0 -20 -7 -30 -29 -30h-92c-21 0 -29 11 -29 30v266c0 42 -11 70 -57 70c-33 0 -74 -15 -102 -39v-298c0 -19 -8 -29 -28 -29h-94c-17 0 -28 9 -28 27v431c0 19 7 29 29 29h82c15 0 26 -4 28 -21l2 -21c46 36 101 56 160 56c110 0 158 -69 158 -178z
M106 659c0 -68 -41 -124 -94 -161c-6 -5 -11 -7 -16 -7s-9 3 -13 8l-11 12c-2 4 -4 7 -4 10s3 7 7 11c16 17 36 43 36 62c0 26 -36 48 -36 81c0 36 28 61 64 61c40 0 67 -40 67 -77z" />
    <glyph glyph-name="eng" unicode="&#x14b;" horiz-adv-x="579" 
d="M369 296c0 42 -11 70 -57 70c-33 0 -74 -15 -102 -39v-298c0 -19 -8 -29 -28 -29h-94c-17 0 -28 9 -28 27v431c0 19 7 29 29 29h82c15 0 26 -4 28 -21l2 -21c46 36 101 56 160 56c110 0 158 -69 158 -178v-274c0 -88 -19 -152 -64 -189c-31 -26 -75 -39 -133 -39
c-17 0 -43 4 -64 8c-15 4 -21 13 -17 31l10 71c2 12 12 17 22 14c14 -4 24 -4 35 -4c14 0 35 5 45 19c11 13 16 37 16 70v266z" />
    <glyph glyph-name="ograve" unicode="&#xf2;" horiz-adv-x="563" 
d="M533 243c0 -147 -93 -256 -255 -256c-169 0 -248 109 -248 258c0 147 93 256 255 256c169 0 248 -109 248 -258zM378 244c0 74 -21 139 -95 139s-98 -64 -98 -137c0 -74 21 -141 95 -141s98 66 98 139zM385 598c0 -4 -2 -8 -6 -13l-14 -19c-7 -10 -12 -14 -19 -14
c-5 0 -13 3 -22 8l-133 76c-9 5 -13 9 -13 15c0 4 2 10 7 16l28 38c8 10 13 15 19 15s12 -4 21 -11l117 -91c11 -9 15 -15 15 -20z" />
    <glyph glyph-name="oacute" unicode="&#xf3;" horiz-adv-x="563" 
d="M533 243c0 -147 -93 -256 -255 -256c-169 0 -248 109 -248 258c0 147 93 256 255 256c169 0 248 -109 248 -258zM378 244c0 74 -21 139 -95 139s-98 -64 -98 -137c0 -74 21 -141 95 -141s98 66 98 139zM385 651c0 -6 -4 -10 -13 -15l-133 -76c-9 -5 -16 -8 -21 -8
c-7 0 -13 4 -20 14l-14 19c-4 5 -6 9 -6 13c0 5 4 11 15 20l117 91c9 7 15 11 21 11s11 -5 19 -15l28 -38c5 -6 7 -12 7 -16z" />
    <glyph glyph-name="ocircumflex" unicode="&#xf4;" horiz-adv-x="563" 
d="M533 243c0 -147 -93 -256 -255 -256c-169 0 -248 109 -248 258c0 147 93 256 255 256c169 0 248 -109 248 -258zM378 244c0 74 -21 139 -95 139s-98 -64 -98 -137c0 -74 21 -141 95 -141s98 66 98 139zM432 604c0 -5 -3 -11 -9 -16l-28 -23c-5 -4 -9 -6 -13 -6
c-5 0 -10 3 -18 9l-83 63l-84 -62c-7 -5 -13 -8 -19 -8c-5 0 -10 3 -17 9l-23 20c-5 4 -8 8 -8 13s3 10 10 16l94 85c11 10 18 15 37 15h22c15 0 23 -1 34 -11l97 -89c5 -5 8 -10 8 -15z" />
    <glyph glyph-name="otilde" unicode="&#xf5;" horiz-adv-x="563" 
d="M533 243c0 -147 -93 -256 -255 -256c-169 0 -248 109 -248 258c0 147 93 256 255 256c169 0 248 -109 248 -258zM378 244c0 74 -21 139 -95 139s-98 -64 -98 -137c0 -74 21 -141 95 -141s98 66 98 139zM446 634c0 -6 -3 -10 -8 -14c-31 -23 -67 -46 -105 -46
c-39 0 -68 35 -104 35c-12 0 -45 -11 -65 -22c-7 -4 -12 -6 -16 -6c-5 0 -9 3 -12 10l-22 44c-2 5 -4 9 -4 12c0 6 5 10 14 16c26 17 61 36 91 36c40 0 83 -36 111 -36c12 0 40 12 62 24c7 4 12 5 16 5c5 0 9 -3 13 -9l25 -36c3 -5 4 -9 4 -13z" />
    <glyph glyph-name="odieresis" unicode="&#xf6;" horiz-adv-x="563" 
d="M533 243c0 -147 -93 -256 -255 -256c-169 0 -248 109 -248 258c0 147 93 256 255 256c169 0 248 -109 248 -258zM378 244c0 74 -21 139 -95 139s-98 -64 -98 -137c0 -74 21 -141 95 -141s98 66 98 139zM440 638c0 -38 -34 -61 -64 -61s-65 21 -65 60s32 62 65 62
c32 0 64 -22 64 -61zM251 638c0 -38 -34 -61 -64 -61s-65 21 -65 60s32 62 65 62c32 0 64 -22 64 -61z" />
    <glyph glyph-name="omacron" unicode="&#x14d;" horiz-adv-x="563" 
d="M533 243c0 -147 -93 -256 -255 -256c-169 0 -248 109 -248 258c0 147 93 256 255 256c169 0 248 -109 248 -258zM378 244c0 74 -21 139 -95 139s-98 -64 -98 -137c0 -74 21 -141 95 -141s98 66 98 139zM429 660v-27c0 -21 -7 -31 -29 -31h-240c-20 0 -26 13 -26 31v27
c0 19 5 29 26 29h240c20 0 29 -9 29 -29z" />
    <glyph glyph-name="obreve" unicode="&#x14f;" horiz-adv-x="563" 
d="M533 243c0 -147 -93 -256 -255 -256c-169 0 -248 109 -248 258c0 147 93 256 255 256c169 0 248 -109 248 -258zM378 244c0 74 -21 139 -95 139s-98 -64 -98 -137c0 -74 21 -141 95 -141s98 66 98 139zM418 689c0 -3 -1 -7 -2 -11c-15 -64 -64 -107 -138 -107
c-70 0 -116 44 -131 106c-1 4 -2 9 -2 12c0 10 6 15 25 15h30c20 0 23 -8 31 -21c10 -17 26 -30 50 -30c22 0 39 14 49 33c6 12 12 18 27 18h40c15 0 21 -5 21 -15z" />
    <glyph glyph-name="ohungarumlaut" unicode="&#x151;" horiz-adv-x="563" 
d="M533 243c0 -147 -93 -256 -255 -256c-169 0 -248 109 -248 258c0 147 93 256 255 256c169 0 248 -109 248 -258zM378 244c0 74 -21 139 -95 139s-98 -64 -98 -137c0 -74 21 -141 95 -141s98 66 98 139zM543 651c0 -6 -4 -10 -13 -15l-133 -76c-9 -5 -16 -8 -21 -8
c-7 0 -13 4 -20 14l-14 19c-4 5 -6 9 -6 13c0 5 4 11 15 20l117 91c9 7 15 11 21 11s11 -5 19 -15l28 -38c5 -6 7 -12 7 -16zM327 651c0 -6 -4 -10 -13 -15l-133 -76c-9 -5 -16 -8 -21 -8c-7 0 -13 4 -20 14l-14 19c-4 5 -6 9 -6 13c0 5 4 11 15 20l117 91c9 7 15 11 21 11
s11 -5 19 -15l28 -38c5 -6 7 -12 7 -16z" />
    <glyph glyph-name="oslash" unicode="&#xf8;" horiz-adv-x="574" 
d="M541 243c0 -147 -93 -256 -255 -256c-56 0 -102 12 -139 34l-27 -31c-14 -16 -22 -16 -41 0l-26 22c-14 12 -17 19 0 39l28 32c-29 43 -43 99 -43 162c0 147 93 256 255 256c53 0 97 -11 132 -30l26 30c11 13 21 14 37 -1l27 -23c19 -16 15 -23 3 -37l-25 -28
c32 -44 48 -103 48 -169zM191 207l148 168c-13 8 -29 13 -48 13c-74 0 -103 -69 -103 -142c0 -13 1 -26 3 -39zM391 244c0 16 -1 33 -4 48l-154 -174c14 -11 32 -18 55 -18c74 0 103 71 103 144z" />
    <glyph glyph-name="oslashacute" unicode="&#x1ff;" horiz-adv-x="574" 
d="M541 243c0 -147 -93 -256 -255 -256c-56 0 -102 12 -139 34l-27 -31c-14 -16 -22 -16 -41 0l-26 22c-14 12 -17 19 0 39l28 32c-29 43 -43 99 -43 162c0 147 93 256 255 256c53 0 97 -11 132 -30l26 30c11 13 21 14 37 -1l27 -23c19 -16 15 -23 3 -37l-25 -28
c32 -44 48 -103 48 -169zM191 207l148 168c-13 8 -29 13 -48 13c-74 0 -103 -69 -103 -142c0 -13 1 -26 3 -39zM391 244c0 16 -1 33 -4 48l-154 -174c14 -11 32 -18 55 -18c74 0 103 71 103 144zM406 651c0 -6 -4 -10 -13 -15l-133 -76c-9 -5 -16 -8 -21 -8
c-7 0 -13 4 -20 14l-14 19c-4 5 -6 9 -6 13c0 5 4 11 15 20l117 91c9 7 15 11 21 11s11 -5 19 -15l28 -38c5 -6 7 -12 7 -16z" />
    <glyph glyph-name="oe" unicode="&#x153;" horiz-adv-x="859" 
d="M835 246v-13c0 -24 -11 -29 -36 -29h-279c12 -63 68 -98 129 -98c44 0 85 10 125 26c4 2 9 3 13 3c9 0 14 -6 16 -14c4 -17 18 -63 18 -78c0 -13 -9 -17 -19 -22c-53 -24 -123 -34 -181 -34c-76 0 -133 26 -173 67c-38 -40 -95 -67 -170 -67c-169 0 -248 109 -248 258
c0 147 93 256 255 256c77 0 131 -26 167 -64c40 39 96 65 168 65c64 0 119 -24 156 -64c50 -53 59 -122 59 -192zM521 299h167c0 43 -25 87 -77 87c-50 0 -83 -40 -90 -87zM378 244c0 74 -21 139 -95 139s-98 -64 -98 -137c0 -74 21 -141 95 -141s98 66 98 139z" />
    <glyph glyph-name="thorn" unicode="&#xfe;" horiz-adv-x="571" 
d="M541 252c0 -78 -22 -148 -64 -197c-37 -44 -90 -70 -155 -70c-44 0 -85 15 -112 40v-211c0 -23 -11 -31 -31 -31h-91c-18 0 -28 10 -28 30v860c0 18 5 28 24 31l98 13c2 0 6 1 8 1c14 0 20 -8 20 -22v-239c28 24 76 43 121 43c69 0 114 -27 146 -61
c44 -46 64 -118 64 -187zM385 243c0 45 -9 78 -23 99c-17 26 -43 36 -70 36c-29 0 -66 -19 -82 -36v-204c18 -17 50 -32 79 -32s54 15 67 33c20 27 29 58 29 104z" />
    <glyph glyph-name="racute" unicode="&#x155;" horiz-adv-x="370" 
d="M302 366c-33 0 -67 -14 -92 -39v-299c0 -18 -8 -28 -28 -28h-94c-18 0 -28 9 -28 28v430c0 24 12 29 29 29h81c19 0 28 -5 29 -20l2 -30c36 43 66 64 125 64c8 0 19 -2 28 -4c13 -3 13 -13 11 -24l-15 -94c-2 -11 -7 -16 -16 -16c-10 0 -15 3 -32 3zM318 651
c0 -6 -4 -10 -13 -15l-133 -76c-9 -5 -16 -8 -21 -8c-7 0 -13 4 -20 14l-14 19c-4 5 -6 9 -6 13c0 5 4 11 15 20l117 91c9 7 15 11 21 11s11 -5 19 -15l28 -38c5 -6 7 -12 7 -16z" />
    <glyph glyph-name="rcaron" unicode="&#x159;" horiz-adv-x="370" 
d="M302 366c-33 0 -67 -14 -92 -39v-299c0 -18 -8 -28 -28 -28h-94c-18 0 -28 9 -28 28v430c0 24 12 29 29 29h81c19 0 28 -5 29 -20l2 -30c36 43 66 64 125 64c8 0 19 -2 28 -4c13 -3 13 -13 11 -24l-15 -94c-2 -11 -7 -16 -16 -16c-10 0 -15 3 -32 3zM53 678
c0 5 3 11 9 16l28 23c5 4 9 6 13 6c5 0 10 -3 18 -9l83 -63l84 62c7 5 13 8 19 8c5 0 10 -3 17 -9l23 -20c5 -4 8 -8 8 -13s-3 -10 -10 -16l-94 -85c-11 -10 -18 -15 -37 -15h-22c-15 0 -23 1 -34 11l-97 89c-5 5 -8 10 -8 15z" />
    <glyph glyph-name="rcommaaccent" unicode="&#x157;" horiz-adv-x="370" 
d="M302 366c-33 0 -67 -14 -92 -39v-299c0 -18 -8 -28 -28 -28h-94c-18 0 -28 9 -28 28v430c0 24 12 29 29 29h81c19 0 28 -5 29 -20l2 -30c36 43 66 64 125 64c8 0 19 -2 28 -4c13 -3 13 -13 11 -24l-15 -94c-2 -11 -7 -16 -16 -16c-10 0 -15 3 -32 3zM203 -117
c0 -68 -41 -124 -94 -161c-6 -5 -11 -7 -16 -7s-9 3 -13 8l-11 12c-2 4 -4 7 -4 10s3 7 7 11c16 17 36 43 36 62c0 26 -36 48 -36 81c0 36 28 61 64 61c40 0 67 -40 67 -77z" />
    <glyph glyph-name="sacute" unicode="&#x15b;" horiz-adv-x="427" 
d="M405 146c0 -115 -102 -159 -201 -159c-53 0 -112 14 -167 37c-11 4 -14 11 -14 18c0 4 1 8 2 12l20 63c4 13 8 18 15 18c4 0 9 -1 16 -4c49 -20 96 -31 132 -31c32 0 54 13 54 35c0 19 -10 29 -47 43l-89 33c-54 20 -102 68 -102 140c0 107 102 150 191 150
c52 0 104 -8 157 -32c9 -4 14 -9 14 -17c0 -3 -1 -7 -2 -11l-21 -70c-2 -8 -9 -12 -17 -12c-3 0 -7 1 -11 2c-38 14 -79 24 -111 24c-33 0 -48 -18 -48 -32c0 -12 4 -25 38 -38l101 -40c51 -20 90 -62 90 -129zM317 651c0 -6 -4 -10 -13 -15l-133 -76c-9 -5 -16 -8 -21 -8
c-7 0 -13 4 -20 14l-14 19c-4 5 -6 9 -6 13c0 5 4 11 15 20l117 91c9 7 15 11 21 11s11 -5 19 -15l28 -38c5 -6 7 -12 7 -16z" />
    <glyph glyph-name="scircumflex" unicode="&#x15d;" horiz-adv-x="427" 
d="M405 146c0 -115 -102 -159 -201 -159c-53 0 -112 14 -167 37c-11 4 -14 11 -14 18c0 4 1 8 2 12l20 63c4 13 8 18 15 18c4 0 9 -1 16 -4c49 -20 96 -31 132 -31c32 0 54 13 54 35c0 19 -10 29 -47 43l-89 33c-54 20 -102 68 -102 140c0 107 102 150 191 150
c52 0 104 -8 157 -32c9 -4 14 -9 14 -17c0 -3 -1 -7 -2 -11l-21 -70c-2 -8 -9 -12 -17 -12c-3 0 -7 1 -11 2c-38 14 -79 24 -111 24c-33 0 -48 -18 -48 -32c0 -12 4 -25 38 -38l101 -40c51 -20 90 -62 90 -129zM364 604c0 -5 -3 -11 -9 -16l-28 -23c-5 -4 -9 -6 -13 -6
c-5 0 -10 3 -18 9l-83 63l-84 -62c-7 -5 -13 -8 -19 -8c-5 0 -10 3 -17 9l-23 20c-5 4 -8 8 -8 13s3 10 10 16l94 85c11 10 18 15 37 15h22c15 0 23 -1 34 -11l97 -89c5 -5 8 -10 8 -15z" />
    <glyph glyph-name="scaron" unicode="&#x161;" horiz-adv-x="427" 
d="M405 146c0 -115 -102 -159 -201 -159c-53 0 -112 14 -167 37c-11 4 -14 11 -14 18c0 4 1 8 2 12l20 63c4 13 8 18 15 18c4 0 9 -1 16 -4c49 -20 96 -31 132 -31c32 0 54 13 54 35c0 19 -10 29 -47 43l-89 33c-54 20 -102 68 -102 140c0 107 102 150 191 150
c52 0 104 -8 157 -32c9 -4 14 -9 14 -17c0 -3 -1 -7 -2 -11l-21 -70c-2 -8 -9 -12 -17 -12c-3 0 -7 1 -11 2c-38 14 -79 24 -111 24c-33 0 -48 -18 -48 -32c0 -12 4 -25 38 -38l101 -40c51 -20 90 -62 90 -129zM64 678c0 5 3 11 9 16l28 23c5 4 9 6 13 6c5 0 10 -3 18 -9
l83 -63l84 62c7 5 13 8 19 8c5 0 10 -3 17 -9l23 -20c5 -4 8 -8 8 -13s-3 -10 -10 -16l-94 -85c-11 -10 -18 -15 -37 -15h-22c-15 0 -23 1 -34 11l-97 89c-5 5 -8 10 -8 15z" />
    <glyph glyph-name="scedilla" unicode="&#x15f;" horiz-adv-x="427" 
d="M321 -124c0 -56 -54 -88 -125 -88c-26 0 -56 7 -77 15c-10 4 -13 9 -13 15c0 2 0 4 1 6l8 28c2 7 4 9 9 9c3 0 9 -1 15 -3c16 -5 35 -9 48 -9c21 0 38 9 38 24c0 23 -15 30 -48 30h-26c-20 0 -25 9 -25 23c0 4 0 10 1 15l7 53c-33 6 -66 17 -97 30c-11 4 -14 11 -14 18
c0 4 1 8 2 12l20 63c4 13 8 18 15 18c4 0 9 -1 16 -4c49 -20 96 -31 132 -31c32 0 54 13 54 35c0 19 -10 29 -47 43l-89 33c-54 20 -102 68 -102 140c0 107 102 150 191 150c52 0 104 -8 157 -32c9 -4 14 -9 14 -17c0 -3 -1 -7 -2 -11l-21 -70c-2 -8 -9 -12 -17 -12
c-3 0 -7 1 -11 2c-38 14 -79 24 -111 24c-33 0 -48 -18 -48 -32c0 -12 4 -25 38 -38l101 -40c51 -20 90 -62 90 -129c0 -114 -100 -158 -197 -159l-2 -28h8c70 0 107 -32 107 -83z" />
    <glyph glyph-name="scommaaccent" unicode="&#x219;" horiz-adv-x="427" 
d="M405 146c0 -115 -102 -159 -201 -159c-53 0 -112 14 -167 37c-11 4 -14 11 -14 18c0 4 1 8 2 12l20 63c4 13 8 18 15 18c4 0 9 -1 16 -4c49 -20 96 -31 132 -31c32 0 54 13 54 35c0 19 -10 29 -47 43l-89 33c-54 20 -102 68 -102 140c0 107 102 150 191 150
c52 0 104 -8 157 -32c9 -4 14 -9 14 -17c0 -3 -1 -7 -2 -11l-21 -70c-2 -8 -9 -12 -17 -12c-3 0 -7 1 -11 2c-38 14 -79 24 -111 24c-33 0 -48 -18 -48 -32c0 -12 4 -25 38 -38l101 -40c51 -20 90 -62 90 -129zM269 -117c0 -68 -41 -124 -94 -161c-6 -5 -11 -7 -16 -7
s-9 3 -13 8l-11 12c-2 4 -4 7 -4 10s3 7 7 11c16 17 36 43 36 62c0 26 -36 48 -36 81c0 36 28 61 64 61c40 0 67 -40 67 -77z" />
    <glyph glyph-name="germandbls" unicode="&#xdf;" horiz-adv-x="628" 
d="M598 213c0 -166 -124 -219 -268 -219h-7c-14 0 -22 0 -30 1c-20 2 -26 7 -26 35v57c0 22 5 28 19 28h2c12 -1 24 -1 36 -1c75 0 124 36 124 100c0 77 -53 105 -135 105h-25c-19 0 -21 2 -21 16v75c0 14 3 18 16 18h12c75 0 99 36 99 99c0 50 -30 88 -91 88
c-44 0 -85 -23 -85 -99v-577c0 -21 -6 -32 -29 -32h-93c-20 0 -28 11 -28 30v571c0 159 90 226 238 226c115 0 238 -40 238 -187c0 -68 -36 -139 -108 -157v-1c93 -11 162 -74 162 -176z" />
    <glyph glyph-name="tcaron" unicode="&#x165;" horiz-adv-x="405" 
d="M390 34c0 -11 -5 -16 -16 -21c-38 -17 -82 -26 -128 -26c-56 0 -101 13 -128 45c-32 38 -34 79 -34 161v192h-40c-24 0 -28 6 -28 33v43c0 14 8 26 23 26h46v105c0 20 13 24 31 26l96 12c15 0 22 -8 22 -26v-117h109c14 0 24 -6 24 -21v-58c0 -15 -10 -23 -24 -23h-109
v-195c0 -52 7 -84 51 -84c25 0 44 6 64 12c6 2 10 3 14 3c8 0 12 -5 14 -14l12 -64c1 -3 1 -6 1 -9zM424 675c0 -68 -41 -124 -94 -161c-6 -5 -11 -7 -16 -7s-9 3 -13 8l-11 12c-2 4 -4 7 -4 10s3 7 7 11c16 17 36 43 36 62c0 26 -36 48 -36 81c0 36 28 61 64 61
c40 0 67 -40 67 -77z" />
    <glyph glyph-name="tcommaaccent" unicode="&#x163;" horiz-adv-x="405" 
d="M390 34c0 -11 -5 -16 -16 -21c-38 -17 -82 -26 -128 -26c-56 0 -101 13 -128 45c-32 38 -34 79 -34 161v192h-40c-24 0 -28 6 -28 33v43c0 14 8 26 23 26h46v105c0 20 13 24 31 26l96 12c15 0 22 -8 22 -26v-117h109c14 0 24 -6 24 -21v-58c0 -15 -10 -23 -24 -23h-109
v-195c0 -52 7 -84 51 -84c25 0 44 6 64 12c6 2 10 3 14 3c8 0 12 -5 14 -14l12 -64c1 -3 1 -6 1 -9zM307 -117c0 -68 -41 -124 -94 -161c-6 -5 -11 -7 -16 -7s-9 3 -13 8l-11 12c-2 4 -4 7 -4 10s3 7 7 11c16 17 36 43 36 62c0 26 -36 48 -36 81c0 36 28 61 64 61
c40 0 67 -40 67 -77z" />
    <glyph glyph-name="uni021B" unicode="&#x21b;" horiz-adv-x="405" 
d="M390 34c0 -11 -5 -16 -16 -21c-38 -17 -82 -26 -128 -26c-56 0 -101 13 -128 45c-32 38 -34 79 -34 161v192h-40c-24 0 -28 6 -28 33v43c0 14 8 26 23 26h46v105c0 20 13 24 31 26l96 12c15 0 22 -8 22 -26v-117h109c14 0 24 -6 24 -21v-58c0 -15 -10 -23 -24 -23h-109
v-195c0 -52 7 -84 51 -84c25 0 44 6 64 12c6 2 10 3 14 3c8 0 12 -5 14 -14l12 -64c1 -3 1 -6 1 -9zM307 -117c0 -68 -41 -124 -94 -161c-6 -5 -11 -7 -16 -7s-9 3 -13 8l-11 12c-2 4 -4 7 -4 10s3 7 7 11c16 17 36 43 36 62c0 26 -36 48 -36 81c0 36 28 61 64 61
c40 0 67 -40 67 -77z" />
    <glyph glyph-name="tbar" unicode="&#x167;" horiz-adv-x="405" 
d="M390 34c0 -11 -5 -16 -16 -21c-38 -17 -82 -26 -128 -26c-56 0 -101 13 -128 45c-32 38 -34 79 -34 161v30h-47c-17 0 -20 3 -20 19v25c0 19 3 20 21 20h46v98h-40c-24 0 -28 6 -28 33v43c0 14 8 26 23 26h46v105c0 20 13 24 31 26l96 12c15 0 22 -8 22 -26v-117h109
c14 0 24 -6 24 -21v-58c0 -15 -10 -23 -24 -23h-109v-98h110c20 0 23 -4 23 -18v-27c0 -18 -5 -19 -23 -19h-110v-33c0 -52 7 -84 51 -84c25 0 44 6 64 12c6 2 10 3 14 3c8 0 12 -5 14 -14l12 -64c1 -3 1 -6 1 -9z" />
    <glyph glyph-name="ugrave" unicode="&#xf9;" horiz-adv-x="577" 
d="M517 461v-428c0 -25 -7 -33 -31 -33h-81c-14 0 -26 6 -27 20l-2 21c-46 -36 -101 -55 -160 -55c-109 0 -158 70 -158 178v297c0 20 13 26 31 26h90c19 0 29 -5 29 -26v-270c0 -41 12 -70 57 -70c33 0 74 15 102 39v301c0 20 13 26 31 26h90c19 0 29 -5 29 -26zM392 598
c0 -4 -2 -8 -6 -13l-14 -19c-7 -10 -12 -14 -19 -14c-5 0 -13 3 -22 8l-133 76c-9 5 -13 9 -13 15c0 4 2 10 7 16l28 38c8 10 13 15 19 15s12 -4 21 -11l117 -91c11 -9 15 -15 15 -20z" />
    <glyph glyph-name="uacute" unicode="&#xfa;" horiz-adv-x="577" 
d="M517 461v-428c0 -25 -7 -33 -31 -33h-81c-14 0 -26 6 -27 20l-2 21c-46 -36 -101 -55 -160 -55c-109 0 -158 70 -158 178v297c0 20 13 26 31 26h90c19 0 29 -5 29 -26v-270c0 -41 12 -70 57 -70c33 0 74 15 102 39v301c0 20 13 26 31 26h90c19 0 29 -5 29 -26zM392 651
c0 -6 -4 -10 -13 -15l-133 -76c-9 -5 -16 -8 -21 -8c-7 0 -13 4 -20 14l-14 19c-4 5 -6 9 -6 13c0 5 4 11 15 20l117 91c9 7 15 11 21 11s11 -5 19 -15l28 -38c5 -6 7 -12 7 -16z" />
    <glyph glyph-name="ucircumflex" unicode="&#xfb;" horiz-adv-x="577" 
d="M517 461v-428c0 -25 -7 -33 -31 -33h-81c-14 0 -26 6 -27 20l-2 21c-46 -36 -101 -55 -160 -55c-109 0 -158 70 -158 178v297c0 20 13 26 31 26h90c19 0 29 -5 29 -26v-270c0 -41 12 -70 57 -70c33 0 74 15 102 39v301c0 20 13 26 31 26h90c19 0 29 -5 29 -26zM439 604
c0 -5 -3 -11 -9 -16l-28 -23c-5 -4 -9 -6 -13 -6c-5 0 -10 3 -18 9l-83 63l-84 -62c-7 -5 -13 -8 -19 -8c-5 0 -10 3 -17 9l-23 20c-5 4 -8 8 -8 13s3 10 10 16l94 85c11 10 18 15 37 15h22c15 0 23 -1 34 -11l97 -89c5 -5 8 -10 8 -15z" />
    <glyph glyph-name="utilde" unicode="&#x169;" horiz-adv-x="577" 
d="M517 461v-428c0 -25 -7 -33 -31 -33h-81c-14 0 -26 6 -27 20l-2 21c-46 -36 -101 -55 -160 -55c-109 0 -158 70 -158 178v297c0 20 13 26 31 26h90c19 0 29 -5 29 -26v-270c0 -41 12 -70 57 -70c33 0 74 15 102 39v301c0 20 13 26 31 26h90c19 0 29 -5 29 -26zM456 634
c0 -6 -3 -10 -8 -14c-31 -23 -67 -46 -105 -46c-39 0 -68 35 -104 35c-12 0 -45 -11 -65 -22c-7 -4 -12 -6 -16 -6c-5 0 -9 3 -12 10l-22 44c-2 5 -4 9 -4 12c0 6 5 10 14 16c26 17 61 36 91 36c40 0 83 -36 111 -36c12 0 40 12 62 24c7 4 12 5 16 5c5 0 9 -3 13 -9l25 -36
c3 -5 4 -9 4 -13z" />
    <glyph glyph-name="udieresis" unicode="&#xfc;" horiz-adv-x="577" 
d="M517 461v-428c0 -25 -7 -33 -31 -33h-81c-14 0 -26 6 -27 20l-2 21c-46 -36 -101 -55 -160 -55c-109 0 -158 70 -158 178v297c0 20 13 26 31 26h90c19 0 29 -5 29 -26v-270c0 -41 12 -70 57 -70c33 0 74 15 102 39v301c0 20 13 26 31 26h90c19 0 29 -5 29 -26zM447 638
c0 -38 -34 -61 -64 -61s-65 21 -65 60s32 62 65 62c32 0 64 -22 64 -61zM258 638c0 -38 -34 -61 -64 -61s-65 21 -65 60s32 62 65 62c32 0 64 -22 64 -61z" />
    <glyph glyph-name="umacron" unicode="&#x16b;" horiz-adv-x="577" 
d="M517 461v-428c0 -25 -7 -33 -31 -33h-81c-14 0 -26 6 -27 20l-2 21c-46 -36 -101 -55 -160 -55c-109 0 -158 70 -158 178v297c0 20 13 26 31 26h90c19 0 29 -5 29 -26v-270c0 -41 12 -70 57 -70c33 0 74 15 102 39v301c0 20 13 26 31 26h90c19 0 29 -5 29 -26zM436 660
v-27c0 -21 -7 -31 -29 -31h-240c-20 0 -26 13 -26 31v27c0 19 5 29 26 29h240c20 0 29 -9 29 -29z" />
    <glyph glyph-name="ubreve" unicode="&#x16d;" horiz-adv-x="577" 
d="M517 461v-428c0 -25 -7 -33 -31 -33h-81c-14 0 -26 6 -27 20l-2 21c-46 -36 -101 -55 -160 -55c-109 0 -158 70 -158 178v297c0 20 13 26 31 26h90c19 0 29 -5 29 -26v-270c0 -41 12 -70 57 -70c33 0 74 15 102 39v301c0 20 13 26 31 26h90c19 0 29 -5 29 -26zM425 689
c0 -3 -1 -7 -2 -11c-15 -64 -64 -107 -138 -107c-70 0 -116 44 -131 106c-1 4 -2 9 -2 12c0 10 6 15 25 15h30c20 0 23 -8 31 -21c10 -17 26 -30 50 -30c22 0 39 14 49 33c6 12 12 18 27 18h40c15 0 21 -5 21 -15z" />
    <glyph glyph-name="uring" unicode="&#x16f;" horiz-adv-x="577" 
d="M517 461v-428c0 -25 -7 -33 -31 -33h-81c-14 0 -26 6 -27 20l-2 21c-46 -36 -101 -55 -160 -55c-109 0 -158 70 -158 178v297c0 20 13 26 31 26h90c19 0 29 -5 29 -26v-270c0 -41 12 -70 57 -70c33 0 74 15 102 39v301c0 20 13 26 31 26h90c19 0 29 -5 29 -26zM369 638
c0 -44 -36 -80 -81 -80c-44 0 -81 36 -81 80s37 81 81 81c45 0 81 -37 81 -81zM313 638c0 14 -11 25 -25 25s-25 -11 -25 -25s11 -24 25 -24s25 10 25 24z" />
    <glyph glyph-name="uhungarumlaut" unicode="&#x171;" horiz-adv-x="577" 
d="M517 461v-428c0 -25 -7 -33 -31 -33h-81c-14 0 -26 6 -27 20l-2 21c-46 -36 -101 -55 -160 -55c-109 0 -158 70 -158 178v297c0 20 13 26 31 26h90c19 0 29 -5 29 -26v-270c0 -41 12 -70 57 -70c33 0 74 15 102 39v301c0 20 13 26 31 26h90c19 0 29 -5 29 -26zM549 651
c0 -6 -4 -10 -13 -15l-133 -76c-9 -5 -16 -8 -21 -8c-7 0 -13 4 -20 14l-14 19c-4 5 -6 9 -6 13c0 5 4 11 15 20l117 91c9 7 15 11 21 11s11 -5 19 -15l28 -38c5 -6 7 -12 7 -16zM333 651c0 -6 -4 -10 -13 -15l-133 -76c-9 -5 -16 -8 -21 -8c-7 0 -13 4 -20 14l-14 19
c-4 5 -6 9 -6 13c0 5 4 11 15 20l117 91c9 7 15 11 21 11s11 -5 19 -15l28 -38c5 -6 7 -12 7 -16z" />
    <glyph glyph-name="uogonek" unicode="&#x173;" horiz-adv-x="577" 
d="M517 461v-432c0 -20 -9 -27 -29 -29c-46 -5 -81 -30 -94 -47c-17 -22 -20 -39 -20 -58c0 -35 27 -45 51 -45c13 0 39 4 54 9c1 0 3 1 4 1c4 0 8 -3 9 -8l8 -28c1 -2 1 -4 1 -6c0 -6 -3 -12 -13 -15c-21 -8 -56 -15 -82 -15c-67 0 -120 28 -120 90c0 60 49 104 92 133
l-2 30c-46 -36 -101 -55 -160 -55c-109 0 -158 70 -158 178v297c0 20 13 26 31 26h90c19 0 29 -5 29 -26v-270c0 -41 12 -70 57 -70c33 0 74 15 102 39v301c0 20 13 26 31 26h90c19 0 29 -5 29 -26z" />
    <glyph glyph-name="wgrave" unicode="&#x1e81;" horiz-adv-x="741" 
d="M733 474c0 -3 -1 -7 -2 -10l-133 -436c-5 -18 -15 -28 -37 -28h-83c-21 0 -30 10 -36 30l-73 246h-2l-73 -249c-6 -19 -16 -27 -38 -27h-81c-19 0 -30 12 -35 29l-131 435c-1 3 -1 6 -1 8c0 11 11 15 25 15h105c21 0 29 -9 32 -24l53 -275h1l83 275c5 17 17 24 32 24h69
c19 0 30 -7 34 -21l79 -281h1l59 276c3 16 12 26 33 26h101c15 0 18 -6 18 -13zM474 598c0 -4 -2 -8 -6 -13l-14 -19c-7 -10 -12 -14 -19 -14c-5 0 -13 3 -22 8l-133 76c-9 5 -13 9 -13 15c0 4 2 10 7 16l28 38c8 10 13 15 19 15s12 -4 21 -11l117 -91c11 -9 15 -15 15 -20z
" />
    <glyph glyph-name="wacute" unicode="&#x1e83;" horiz-adv-x="741" 
d="M733 474c0 -3 -1 -7 -2 -10l-133 -436c-5 -18 -15 -28 -37 -28h-83c-21 0 -30 10 -36 30l-73 246h-2l-73 -249c-6 -19 -16 -27 -38 -27h-81c-19 0 -30 12 -35 29l-131 435c-1 3 -1 6 -1 8c0 11 11 15 25 15h105c21 0 29 -9 32 -24l53 -275h1l83 275c5 17 17 24 32 24h69
c19 0 30 -7 34 -21l79 -281h1l59 276c3 16 12 26 33 26h101c15 0 18 -6 18 -13zM490 651c0 -6 -4 -10 -13 -15l-133 -76c-9 -5 -16 -8 -21 -8c-7 0 -13 4 -20 14l-14 19c-4 5 -6 9 -6 13c0 5 4 11 15 20l117 91c9 7 15 11 21 11s11 -5 19 -15l28 -38c5 -6 7 -12 7 -16z" />
    <glyph glyph-name="wcircumflex" unicode="&#x175;" horiz-adv-x="741" 
d="M733 474c0 -3 -1 -7 -2 -10l-133 -436c-5 -18 -15 -28 -37 -28h-83c-21 0 -30 10 -36 30l-73 246h-2l-73 -249c-6 -19 -16 -27 -38 -27h-81c-19 0 -30 12 -35 29l-131 435c-1 3 -1 6 -1 8c0 11 11 15 25 15h105c21 0 29 -9 32 -24l53 -275h1l83 275c5 17 17 24 32 24h69
c19 0 30 -7 34 -21l79 -281h1l59 276c3 16 12 26 33 26h101c15 0 18 -6 18 -13zM521 604c0 -5 -3 -11 -9 -16l-28 -23c-5 -4 -9 -6 -13 -6c-5 0 -10 3 -18 9l-83 63l-84 -62c-7 -5 -13 -8 -19 -8c-5 0 -10 3 -17 9l-23 20c-5 4 -8 8 -8 13s3 10 10 16l94 85
c11 10 18 15 37 15h22c15 0 23 -1 34 -11l97 -89c5 -5 8 -10 8 -15z" />
    <glyph glyph-name="wdieresis" unicode="&#x1e85;" horiz-adv-x="741" 
d="M733 474c0 -3 -1 -7 -2 -10l-133 -436c-5 -18 -15 -28 -37 -28h-83c-21 0 -30 10 -36 30l-73 246h-2l-73 -249c-6 -19 -16 -27 -38 -27h-81c-19 0 -30 12 -35 29l-131 435c-1 3 -1 6 -1 8c0 11 11 15 25 15h105c21 0 29 -9 32 -24l53 -275h1l83 275c5 17 17 24 32 24h69
c19 0 30 -7 34 -21l79 -281h1l59 276c3 16 12 26 33 26h101c15 0 18 -6 18 -13zM527 638c0 -38 -34 -61 -64 -61s-65 21 -65 60s32 62 65 62c32 0 64 -22 64 -61zM338 638c0 -38 -34 -61 -64 -61s-65 21 -65 60s32 62 65 62c32 0 64 -22 64 -61z" />
    <glyph glyph-name="ygrave" unicode="&#x1ef3;" horiz-adv-x="537" 
d="M523 470c0 -3 -1 -7 -2 -11l-198 -514c-46 -119 -106 -163 -236 -163c-23 0 -40 2 -60 6c-19 4 -19 16 -17 32l9 63c3 22 9 22 23 22c11 0 27 -3 39 -3c68 0 87 21 107 64l14 30l-186 464c-1 4 -2 7 -2 10c0 10 8 17 18 17h121c17 0 26 -8 30 -20l95 -297l88 288
c6 20 17 29 37 29h103c10 0 17 -7 17 -17zM371 598c0 -4 -2 -8 -6 -13l-14 -19c-7 -10 -12 -14 -19 -14c-5 0 -13 3 -22 8l-133 76c-9 5 -13 9 -13 15c0 4 2 10 7 16l28 38c8 10 13 15 19 15s12 -4 21 -11l117 -91c11 -9 15 -15 15 -20z" />
    <glyph glyph-name="yacute" unicode="&#xfd;" horiz-adv-x="537" 
d="M523 470c0 -3 -1 -7 -2 -11l-198 -514c-46 -119 -106 -163 -236 -163c-23 0 -40 2 -60 6c-19 4 -19 16 -17 32l9 63c3 22 9 22 23 22c11 0 27 -3 39 -3c68 0 87 21 107 64l14 30l-186 464c-1 4 -2 7 -2 10c0 10 8 17 18 17h121c17 0 26 -8 30 -20l95 -297l88 288
c6 20 17 29 37 29h103c10 0 17 -7 17 -17zM372 651c0 -6 -4 -10 -13 -15l-133 -76c-9 -5 -16 -8 -21 -8c-7 0 -13 4 -20 14l-14 19c-4 5 -6 9 -6 13c0 5 4 11 15 20l117 91c9 7 15 11 21 11s11 -5 19 -15l28 -38c5 -6 7 -12 7 -16z" />
    <glyph glyph-name="ycircumflex" unicode="&#x177;" horiz-adv-x="537" 
d="M523 470c0 -3 -1 -7 -2 -11l-198 -514c-46 -119 -106 -163 -236 -163c-23 0 -40 2 -60 6c-19 4 -19 16 -17 32l9 63c3 22 9 22 23 22c11 0 27 -3 39 -3c68 0 87 21 107 64l14 30l-186 464c-1 4 -2 7 -2 10c0 10 8 17 18 17h121c17 0 26 -8 30 -20l95 -297l88 288
c6 20 17 29 37 29h103c10 0 17 -7 17 -17zM419 604c0 -5 -3 -11 -9 -16l-28 -23c-5 -4 -9 -6 -13 -6c-5 0 -10 3 -18 9l-83 63l-84 -62c-7 -5 -13 -8 -19 -8c-5 0 -10 3 -17 9l-23 20c-5 4 -8 8 -8 13s3 10 10 16l94 85c11 10 18 15 37 15h22c15 0 23 -1 34 -11l97 -89
c5 -5 8 -10 8 -15z" />
    <glyph glyph-name="ydieresis" unicode="&#xff;" horiz-adv-x="537" 
d="M523 470c0 -3 -1 -7 -2 -11l-198 -514c-46 -119 -106 -163 -236 -163c-23 0 -40 2 -60 6c-19 4 -19 16 -17 32l9 63c3 22 9 22 23 22c11 0 27 -3 39 -3c68 0 87 21 107 64l14 30l-186 464c-1 4 -2 7 -2 10c0 10 8 17 18 17h121c17 0 26 -8 30 -20l95 -297l88 288
c6 20 17 29 37 29h103c10 0 17 -7 17 -17zM427 638c0 -38 -34 -61 -64 -61s-65 21 -65 60s32 62 65 62c32 0 64 -22 64 -61zM238 638c0 -38 -34 -61 -64 -61s-65 21 -65 60s32 62 65 62c32 0 64 -22 64 -61z" />
    <glyph glyph-name="zacute" unicode="&#x17a;" horiz-adv-x="453" 
d="M427 81v-58c0 -15 -10 -23 -24 -23h-350c-22 0 -29 11 -29 28v31c0 16 1 23 11 37l200 288l-1 1h-164c-24 0 -28 6 -28 33v43c0 14 8 26 23 26h332c23 0 26 -13 26 -25v-35c0 -15 -2 -26 -11 -38l-204 -286l1 -2h194c14 0 24 -5 24 -20zM370 651c0 -6 -4 -10 -13 -15
l-133 -76c-9 -5 -16 -8 -21 -8c-7 0 -13 4 -20 14l-14 19c-4 5 -6 9 -6 13c0 5 4 11 15 20l117 91c9 7 15 11 21 11s11 -5 19 -15l28 -38c5 -6 7 -12 7 -16z" />
    <glyph glyph-name="zcaron" unicode="&#x17e;" horiz-adv-x="453" 
d="M427 81v-58c0 -15 -10 -23 -24 -23h-350c-22 0 -29 11 -29 28v31c0 16 1 23 11 37l200 288l-1 1h-164c-24 0 -28 6 -28 33v43c0 14 8 26 23 26h332c23 0 26 -13 26 -25v-35c0 -15 -2 -26 -11 -38l-204 -286l1 -2h194c14 0 24 -5 24 -20zM91 678c0 5 3 11 9 16l28 23
c5 4 9 6 13 6c5 0 10 -3 18 -9l83 -63l84 62c7 5 13 8 19 8c5 0 10 -3 17 -9l23 -20c5 -4 8 -8 8 -13s-3 -10 -10 -16l-94 -85c-11 -10 -18 -15 -37 -15h-22c-15 0 -23 1 -34 11l-97 89c-5 5 -8 10 -8 15z" />
    <glyph glyph-name="zdotaccent" unicode="&#x17c;" horiz-adv-x="453" 
d="M427 81v-58c0 -15 -10 -23 -24 -23h-350c-22 0 -29 11 -29 28v31c0 16 1 23 11 37l200 288l-1 1h-164c-24 0 -28 6 -28 33v43c0 14 8 26 23 26h332c23 0 26 -13 26 -25v-35c0 -15 -2 -26 -11 -38l-204 -286l1 -2h194c14 0 24 -5 24 -20zM301 638c0 -38 -34 -61 -64 -61
s-65 21 -65 60s32 62 65 62c32 0 64 -22 64 -61z" />
    <glyph glyph-name="apple" unicode="&#xf8ff;" horiz-adv-x="591" 
d="M491 202h-261v65h196v66h-196v195h261v-65h-196v-65h196v-196zM491 594h-326v-529h73v-65h-138v659h391v-65z" />
    <glyph glyph-name="published" horiz-adv-x="830" 
d="M780 348c0 -199 -166 -361 -365 -361c-210 0 -365 162 -365 361s159 361 365 361c199 0 365 -162 365 -361zM669 348c0 147 -108 264 -254 264c-147 0 -254 -117 -254 -264s107 -264 254 -264c146 0 254 117 254 264zM429 285h-33v-96c0 -9 -4 -16 -15 -16h-52
c-11 0 -16 5 -16 16v316c0 15 3 19 18 19c25 1 51 2 76 2c76 0 153 -30 153 -119c0 -74 -54 -122 -131 -122zM476 405c0 38 -27 56 -62 56h-18v-113h24c36 0 56 21 56 57z" />
    </font>
</defs>
</svg>
