<svg xmlns="http://www.w3.org/2000/svg" xmlns:xlink="http://www.w3.org/1999/xlink" viewBox="0 0 760 441.8" opacity="0.20"><defs><style>.a{fill:none;}.b{clip-path:url(#a);}.c{fill:url(#b);}</style><clipPath id="a" transform="translate(-18 -26.1)"><path class="a" d="M561.2,224a59.08,59.08,0,0,0-20.9,33.6c18.4-.6,28.8-3.4,38.4-10.9,8.6-6.7,12.5-14.3,12.5-20.7,0-3.5-2.2-9-12-9-4.6,0-12,2.4-18,7M168.8,157.3c-5.8,21.6-14.1,52-22,81.2,32.3-.1,52.5-5.7,62.5-37.6,8.1-26.1,5-43.6-33.4-43.6h-7.1Zm289.5,63.6H401.8l5.5-20.3H508.5c-11.7,38.5-66.5,69.7-81.6,98.8h63.8L484,324.3H380.4c0-39.1,65.5-84.3,77.9-103.4m265.4-22.5c22.5,0,25.8,13.4,25.8,23.7,0,12.2-8.6,20.5-18.4,20.5-7.5,0-10.7-3-12.1-4.3-3.4-3.4-4-6.9-4.4-9.9-.5-3.4-1.6-6.8-5.6-7.4-5.7-.9-10.3,1.4-15.2,5.7-6.5,5.8-12.1,15-16.2,23.8a123.61,123.61,0,0,0-6.1,16L656,324.3H615.3l33.4-123.7h39.5l-7.1,24.8c9.3-11.3,26.6-27,42.6-27M498.1,280.6c0-44.8,40.3-82.9,83.4-82.9,21.4,0,39.9,10,39.9,26.9,0,17.6-14,35.7-35.1,42.5-13.2,4.4-26.5,7-48.8,7a62.32,62.32,0,0,0-.3,9.1c0,11.9,10.1,22.1,24.3,22.1,19,0,36.8-17.4,39-19.5l7,18.8a73.81,73.81,0,0,1-19.2,14.7,82.54,82.54,0,0,1-38.5,9.1c-30.9-.1-51.7-19.3-51.7-47.8m-365-141.8h47.3c72.6,0,77.7,37,71.5,63.4-7.6,32.6-27.1,55.9-110.4,56-8.2,30.4-15.3,56.6-17.9,66H82.9c7.5-27.5,50.2-185.4,50.2-185.4M488.6,26.1h0A671.6,671.6,0,0,0,351.8,40.5C159.7,80.6,18.1,193.4,18,300.7a117.49,117.49,0,0,0,2.5,24.4c13.9,66.6,83.5,114,180.2,133.2C221.1,379.4,268.2,199,268.2,199c9.2-35.7,14.4-49.5,23.5-65,11.9-20.1,30.9-36.7,57.6-39.1,14.5-1.3,36.1.5,48.2,9,11.4,8,12.9,16.4,12.5,24-.8,15.8-10.4,26.3-25.9,26.3-15.8,0-20.8-11.6-20.8-19.3-.1-10.4,6.1-12,6-19.7,0-3.9-3.6-10.1-13.5-8.6-12.2,1.9-22.4,11.6-29,28.5a148.63,148.63,0,0,0-5.8,18.2l-12.1,47.2H389c-10.5,37.9-28.2,105.3-33.1,123.7H315.5l27.7-103.4H303.6L240.3,464.4a583.41,583.41,0,0,0,61.6,3.5h2.4a666.43,666.43,0,0,0,133.8-14.3c192.6-40.2,339.9-154.1,340-261.7a118.37,118.37,0,0,0-2.4-23.7C757.2,80,637.5,26.1,488.6,26.1h0"/></clipPath><radialGradient id="b" cx="88.63" cy="33.05" r="3.3" gradientTransform="translate(-19517.32 -7331.39) scale(221.03)" gradientUnits="userSpaceOnUse"><stop offset="0" stop-color="#00b9f2"/><stop offset="0.25" stop-color="#00b9f2"/><stop offset="0.33" stop-color="#00b2ef"/><stop offset="0.53" stop-color="#00a5e8"/><stop offset="1" stop-color="#006cb7"/></radialGradient></defs><title>Pfizer_logo</title><g class="b"><rect class="c" width="760" height="441.8"/></g></svg>